<svg width="768" height="157" viewBox="0 0 768 157" fill="none" xmlns="http://www.w3.org/2000/svg">
<g clip-path="url(#clip0_9_4)">
<path d="M5.67728 100.048C5.67728 100.048 -7.11617 10.6797 21.0665 8.45475C49.2492 6.2298 48.8783 21.2482 48.8783 21.2482C48.8783 21.2482 69.2737 -10.6427 86.8879 15.5004C104.502 41.6435 103.204 74.8324 103.204 74.8324C103.204 74.8324 108.581 136.204 84.6629 133.052C60.7447 129.9 63.7113 72.422 63.7113 72.422C63.7113 72.422 66.8633 133.423 55.924 131.754C44.9847 130.085 42.0181 67.9721 42.0181 67.9721C42.0181 67.9721 50.7325 136.76 25.5164 135.833C0.300324 134.906 5.67728 100.048 5.67728 100.048Z" stroke="white" stroke-width="5.56237" stroke-miterlimit="10"/>
<path d="M100.701 133.886C100.701 133.886 68.2541 23.195 108.674 8.17664C108.674 8.17664 119.613 9.28911 124.805 15.7785C129.996 22.268 139.823 30.6115 139.823 47.484C139.823 64.3566 152.988 135.184 125.361 134.813C97.7347 134.442 100.701 133.886 100.701 133.886Z" stroke="white" stroke-width="5.56237" stroke-miterlimit="10"/>
<path d="M170.231 53.7881C170.231 53.7881 179.826 25.7333 169.293 11.3138C165.781 6.50792 160.033 3.21685 150.948 2.98509C114.607 2.05803 123.891 134.832 138.067 135.842C152.244 136.853 230.304 100.512 229.934 67.694C229.563 34.876 215.23 -0.178046 189.486 2.97953C163.741 6.1371 170.231 53.7881 170.231 53.7881Z" stroke="white" stroke-width="5.56237" stroke-miterlimit="10"/>
<path d="M278.882 21.3409C278.882 21.3409 267.201 -7.2126 233.456 16.891C233.456 16.891 203.01 51.45 227.412 90.4422C251.814 129.434 303.692 104.476 308.068 90.4422C312.444 76.4083 326.535 15.9639 292.234 10.7724C257.933 5.58085 278.884 21.3409 278.884 21.3409H278.882Z" stroke="white" stroke-width="5.56237" stroke-miterlimit="10"/>
<path d="M307.621 118.682C307.621 118.682 283.147 34.876 312.071 20.5993C340.996 6.32252 373.257 17.6327 379.561 27.2741C385.865 36.9156 402.2 63.3479 365.294 69.3219C365.294 69.3219 414.233 92.3538 401.069 113.862C387.905 135.369 341.366 78.4479 341.366 78.4479C341.366 78.4479 354.345 122.576 341.923 130.92C329.5 139.263 307.621 118.682 307.621 118.682Z" stroke="white" stroke-width="5.56237" stroke-miterlimit="10"/>
<path d="M394.956 13.8391C394.956 13.8391 370.663 16.7056 372.332 49.1527C374.001 81.5999 367.326 129.992 380.305 139.263C393.284 148.534 413.864 151.129 420.354 127.953C426.843 104.776 419.241 19.3014 414.421 18.9305C409.6 18.5597 394.956 13.8391 394.956 13.8391Z" stroke="white" stroke-width="5.56237" stroke-miterlimit="10"/>
<path d="M450.574 22.268C450.574 22.268 429.29 -3.8863 417.776 29.6789C406.262 63.2441 412.127 149.587 438.118 146.001C464.109 142.415 450.574 22.268 450.574 22.268Z" stroke="white" stroke-width="5.56237" stroke-miterlimit="10"/>
<path d="M761.696 22.268C761.696 22.268 740.412 -3.8863 728.898 29.6789C717.384 63.2441 723.249 149.587 749.24 146.001C775.231 142.415 761.696 22.268 761.696 22.268Z" stroke="white" stroke-width="5.56237" stroke-miterlimit="10"/>
<path d="M493.775 47.1132C493.775 47.1132 535.864 66.3961 535.864 43.2196C535.864 20.043 512.567 11.388 489.913 12.5635C467.259 13.739 418.127 59.5358 484.505 83.8248C484.505 83.8248 438.522 53.9735 446.124 109.041C453.726 164.108 533.268 123.069 535.864 106.414C538.46 89.758 536.976 64.3566 527.706 62.6878C518.435 61.0191 493.775 47.1132 493.775 47.1132Z" stroke="white" stroke-width="5.56237" stroke-miterlimit="10"/>
<path d="M576.84 54.1589C576.84 54.1589 635.616 61.39 629.126 36.7302C622.637 12.0703 558.484 1.68724 534.751 25.9762C511.019 50.2653 523.68 142.004 537.004 142.024C550.328 142.044 631.166 142.415 626.901 115.53C622.637 88.6456 575.538 98.3204 575.538 98.3204C575.538 98.3204 626.79 119.387 629.627 94.004C632.464 68.6211 575.538 73.375 575.538 73.375C575.538 73.375 613.941 76.8849 613.468 69.3219C612.995 61.759 576.84 54.1589 576.84 54.1589Z" stroke="white" stroke-width="5.56237" stroke-miterlimit="10"/>
<path d="M657.123 31.3532C657.123 31.3532 626.901 -29.0912 609.658 50.8215C609.658 50.8215 587.965 155.578 609.658 153.354C631.351 151.131 651.19 87.5331 651.19 87.5331C651.19 87.5331 641.519 68.1019 644.222 59.2763C644.222 59.2763 660.366 156.664 705.19 146.11C750.013 135.557 673.44 56.9401 673.44 54.1589C673.44 51.3777 748.346 49.3382 731.103 28.7574C713.86 8.17666 658.236 11.8849 657.123 31.3532Z" stroke="white" stroke-width="5.56237" stroke-miterlimit="10"/>
</g>
<defs>
<clipPath id="clip0_9_4">
<rect width="768" height="156.169" fill="white"/>
</clipPath>
</defs>
</svg>
