<svg width="490" height="98" viewBox="0 0 490 98" fill="none" xmlns="http://www.w3.org/2000/svg">
<path d="M11.0814 14.0341C8.63237 14.9951 7.59858 17.7031 8.89773 20.0446C9.01659 20.2668 9.27642 20.3473 9.50308 20.2362C11.8388 19.0641 12.7427 16.7088 11.6674 14.2785C11.5651 14.048 11.3136 13.9396 11.0814 14.0341Z" fill="white"/>
<path d="M3.93625 21.9361C3.5548 22.5111 3.33643 23.1332 3.2231 23.7498C3.11254 24.3664 3.12359 24.9803 3.28115 25.5635C3.5852 26.7301 4.33429 27.7355 5.5284 28.3744C5.75229 28.4938 6.01488 28.4188 6.13374 28.2022C6.46268 27.63 6.66999 27.0412 6.75291 26.4523C6.79437 26.1579 6.80267 25.8635 6.78884 25.5747C6.78055 25.2858 6.73909 24.9997 6.67275 24.7192C6.3991 23.5971 5.67213 22.5472 4.56371 21.8056C4.35087 21.664 4.08275 21.7223 3.93625 21.9389V21.9361Z" fill="white"/>
<path d="M12.7427 24.3328C12.7869 24.9439 12.7427 25.5216 12.5658 26.041C12.3944 26.5604 12.1125 27.0298 11.7614 27.438C11.0538 28.2519 9.93985 28.8101 8.62689 28.9573C8.37535 28.9851 8.15698 28.824 8.11829 28.5824C8.0326 27.9463 8.08512 27.3353 8.24267 26.777C8.32283 26.4993 8.42511 26.2326 8.56331 25.9826C8.70428 25.7355 8.87013 25.5049 9.06086 25.2966C9.81547 24.455 10.9239 23.944 12.2673 23.9301C12.5216 23.9273 12.7233 24.0995 12.7427 24.3328Z" fill="white"/>
<path d="M1.30209 30.7103C0.953807 31.4463 0.740968 32.2074 0.710562 32.9517C0.680157 33.6961 0.796251 34.421 1.04226 35.0821C1.55915 36.4097 2.62611 37.479 4.09111 38.0345C4.37029 38.1401 4.66605 38.0123 4.77938 37.7373C5.07791 37.0152 5.21335 36.2958 5.22164 35.5959C5.24652 34.8987 5.12766 34.2183 4.87889 33.5794C4.3924 32.3046 3.43601 31.1825 2.01247 30.4603C1.74435 30.3242 1.4403 30.4298 1.30485 30.7103H1.30209Z" fill="white"/>
<path d="M11.9194 32.2818C12.0769 32.9845 12.0603 33.6483 11.947 34.2761C11.8337 34.901 11.5849 35.4843 11.2173 36.0037C10.5014 37.0452 9.33213 37.8618 7.79527 38.2368C7.50503 38.309 7.22862 38.1562 7.15398 37.8785C6.95773 37.1508 6.90798 36.4314 7.01301 35.7565C7.13187 35.0843 7.38617 34.4566 7.75657 33.915C8.50841 32.8262 9.76886 32.0846 11.3085 31.8819C11.6015 31.843 11.8668 32.018 11.9249 32.2818H11.9194Z" fill="white"/>
<path d="M0.315359 40.6504C-0.2043 42.2531 -0.0716209 43.8751 0.638764 45.1639C1.31598 46.4554 2.57366 47.4053 4.14922 47.7747C4.45052 47.8441 4.73246 47.6747 4.80709 47.3775C4.9066 46.9887 4.96741 46.6054 4.98952 46.2304C5.01716 45.8554 5.01993 45.486 4.98123 45.1277C4.91213 44.4112 4.67165 43.7334 4.35377 43.1113C3.71249 41.8725 2.5322 40.8504 1.01192 40.3005C0.721688 40.1949 0.420396 40.3449 0.315359 40.6504Z" fill="white"/>
<path d="M11.3773 40.8506C11.8803 42.2393 11.7477 43.5781 11.1644 44.7418C10.5453 45.9028 9.48107 46.8916 7.96632 47.4804C7.67885 47.5915 7.37479 47.4721 7.2587 47.2027C7.1039 46.8444 6.99057 46.4833 6.91594 46.125C6.84684 45.764 6.82749 45.4057 6.83578 45.0557C6.86619 44.353 7.01269 43.6781 7.34162 43.0726C7.98843 41.8588 9.12726 40.9339 10.7056 40.5228C11.0013 40.4451 11.2943 40.5867 11.38 40.8506H11.3773Z" fill="white"/>
<path d="M0.688831 50.6884C0.603143 51.1105 0.561681 51.5299 0.556152 51.9382C0.556152 52.3465 0.608671 52.7437 0.686067 53.127C0.85468 53.8936 1.13662 54.6018 1.58441 55.2045C2.47723 56.4127 3.80678 57.2182 5.46527 57.3849C5.78038 57.4154 6.04021 57.2071 6.07338 56.8988C6.18947 56.085 6.14525 55.3156 5.96558 54.6046C5.92135 54.4268 5.86607 54.2519 5.80526 54.0824C5.74721 53.9102 5.68364 53.7436 5.61177 53.5797C5.46803 53.252 5.28836 52.9409 5.08105 52.6493C4.23246 51.4855 2.97201 50.6023 1.34393 50.2467C1.03435 50.1801 0.752406 50.3689 0.688831 50.6884Z" fill="white"/>
<path d="M11.8832 49.4443C12.049 49.7804 12.1762 50.1165 12.2619 50.4525C12.3558 50.7886 12.4194 51.1219 12.4415 51.4552C12.494 52.119 12.3669 52.7801 12.1541 53.4022C11.7201 54.6465 10.7112 55.7964 9.27658 56.5852C9.00293 56.7352 8.67676 56.6547 8.51921 56.3963C8.13223 55.7103 7.90004 54.9909 7.82264 54.2799C7.80329 54.1021 7.79224 53.9244 7.79224 53.7494C7.79776 53.5716 7.81159 53.3967 7.83646 53.2245C7.88345 52.8773 7.96638 52.5384 8.08524 52.2135C8.54408 50.908 9.63868 49.8193 11.1507 49.2027C11.4381 49.086 11.7533 49.1916 11.8804 49.4443H11.8832Z" fill="white"/>
<path d="M2.28602 60.5958C2.18375 62.3456 2.73381 63.951 3.79248 65.0592C4.81521 66.1813 6.32167 66.8062 8.0078 66.759C8.32844 66.7507 8.56615 66.5035 8.56615 66.1869C8.56339 65.7702 8.51916 65.3703 8.44453 64.987C8.38095 64.6009 8.28145 64.2315 8.14877 63.8815C8.01609 63.5316 7.85024 63.2011 7.65399 62.89C7.55448 62.7344 7.44944 62.5845 7.33611 62.44C7.22831 62.2928 7.11498 62.1539 6.99059 62.0178C6.02314 60.9402 4.56644 60.2236 2.8969 60.0653C2.57626 60.0375 2.31366 60.2653 2.28602 60.5986V60.5958Z" fill="white"/>
<path d="M13.4613 57.8937C14.332 59.1546 14.5393 60.5323 14.2601 61.8516C13.9423 63.1792 13.1241 64.4541 11.7613 65.4484C11.5015 65.6373 11.1643 65.5984 10.9763 65.3568C10.7276 65.0374 10.5147 64.7068 10.3461 64.3652C10.1886 64.0208 10.0697 63.6653 9.98677 63.3098C9.90661 62.9542 9.86238 62.596 9.85962 62.2404C9.85962 62.0627 9.86515 61.8849 9.88173 61.7099C9.90385 61.5322 9.93702 61.3572 9.97848 61.185C10.3157 59.7962 11.2168 58.5686 12.6984 57.7409C12.9776 57.5854 13.3065 57.652 13.4613 57.8937Z" fill="white"/>
<path d="M5.06179 70.5666C5.1226 71.4943 5.3382 72.3692 5.73348 73.1191C6.12322 73.8746 6.62077 74.5357 7.25099 75.0412C8.51973 76.0549 10.1285 76.5188 11.903 76.2133C12.2375 76.1577 12.4503 75.8633 12.3978 75.5356C12.2734 74.6634 12.0247 73.8691 11.6349 73.183C11.4359 72.8414 11.2231 72.5164 10.9826 72.2137C10.7393 71.9137 10.4685 71.6415 10.1699 71.3943C9.8714 71.1499 9.54799 70.9305 9.19971 70.7444C8.85972 70.5555 8.50038 70.3917 8.11893 70.2639C7.35603 70.0084 6.51297 69.8834 5.61738 69.9223C5.27739 69.9361 5.03691 70.2111 5.05903 70.5639L5.06179 70.5666Z" fill="white"/>
<path d="M16.367 66.1926C16.8977 66.7898 17.2515 67.4453 17.492 68.1118C17.7269 68.7812 17.7822 69.495 17.7269 70.2005C17.6191 71.6059 16.8894 73.0835 15.6317 74.3056C15.3885 74.5389 15.0291 74.5501 14.7942 74.3279C14.1861 73.7363 13.7576 73.0474 13.4757 72.3336C13.3319 71.9781 13.2435 71.6059 13.1965 71.2337C13.1495 70.8616 13.1412 70.4866 13.1744 70.1144C13.2075 69.7422 13.2794 69.3756 13.3927 69.0201C13.5116 68.659 13.6775 68.3063 13.8765 67.9702C14.2773 67.2953 14.8356 66.6759 15.5405 66.1482C15.8086 65.9482 16.1652 65.9704 16.3642 66.1954L16.367 66.1926Z" fill="white"/>
<path d="M9.52536 80.502C9.72714 81.4297 10.0782 82.2824 10.5674 82.9962C11.0705 83.7045 11.6897 84.2933 12.3835 84.7266C13.807 85.5765 15.5263 85.7987 17.2594 85.2488C17.5911 85.1404 17.757 84.821 17.6685 84.4877C17.428 83.6156 17.0466 82.8601 16.5546 82.2185C16.0847 81.563 15.4959 81.027 14.8187 80.6187C13.4836 79.791 11.8113 79.4383 9.99526 79.7743C9.65251 79.8382 9.44796 80.1493 9.52536 80.502Z" fill="white"/>
<path d="M20.3555 74.4581C20.9857 74.9803 21.4418 75.5885 21.7624 76.2385C22.0969 76.8801 22.2738 77.58 22.3014 78.3132C22.3843 79.7548 21.8813 81.3351 20.7618 82.7711C20.5517 83.0405 20.1813 83.11 19.9215 82.91C19.2305 82.3906 18.6804 81.7684 18.2962 81.0852C17.9313 80.388 17.7212 79.6381 17.677 78.8798C17.6079 77.3522 18.2381 75.7913 19.5096 74.5275C19.7529 74.2859 20.115 74.2581 20.3555 74.4581Z" fill="white"/>
<path d="M15.0423 89.751C15.3768 90.712 15.8992 91.5369 16.5101 92.2285C17.132 92.9145 17.8866 93.4284 18.6827 93.7839C19.4733 94.1449 20.3633 94.2921 21.2423 94.2699C22.1241 94.2449 23.0169 94.0283 23.8848 93.6089C24.2138 93.4506 24.3492 93.0756 24.2027 92.7451C23.8213 91.8619 23.2905 91.1397 22.6935 90.5259C22.0992 89.9093 21.3943 89.4399 20.6259 89.1066C19.1167 88.4205 17.2702 88.3206 15.4404 88.9094C15.0893 89.0233 14.918 89.3843 15.0423 89.751Z" fill="white"/>
<path d="M25.5574 81.8244C26.2816 82.2882 26.8703 82.8354 27.2905 83.477C27.7189 84.1102 28.023 84.8018 28.1557 85.5656C28.2856 86.3322 28.3049 87.121 28.1446 87.9543C27.9898 88.782 27.6747 89.6374 27.191 90.479C27.0085 90.7984 26.6409 90.9151 26.3341 90.7484C25.5352 90.3068 24.847 89.7485 24.3577 89.0764C23.8685 88.4014 23.5285 87.6515 23.3792 86.86C23.1 85.2518 23.5036 83.552 24.6894 82.016C24.9106 81.7272 25.2865 81.6438 25.5574 81.8244Z" fill="white"/>
<path d="M28.6642 95.6033C28.5481 95.6033 28.4348 95.5617 28.3435 95.4756C26.7597 93.9868 25.2366 92.412 25.2201 92.3981C15.2222 81.7548 8.69325 68.4701 6.32991 53.9744C4.2955 41.4979 5.50619 28.6687 9.82655 16.8727C9.915 16.6283 10.1887 16.5033 10.4319 16.5922C10.6751 16.6839 10.8023 16.9533 10.7111 17.2005C6.446 28.8409 5.25466 41.5062 7.26142 53.8216C9.59436 68.1284 16.0376 81.2409 25.9 91.7426C25.9111 91.7537 27.4175 93.3119 28.9848 94.784C29.1755 94.9617 29.1838 95.2617 29.0069 95.4533C28.913 95.5533 28.7886 95.6033 28.6614 95.6033H28.6642Z" fill="white"/>
<path d="M477.434 14.2927C476.358 16.7202 477.262 19.0755 479.598 20.2476C479.822 20.356 480.084 20.2754 480.203 20.056C481.502 17.7174 480.469 15.0093 478.02 14.0483C477.787 13.9566 477.536 14.0622 477.434 14.2927Z" fill="white"/>
<path d="M476.394 24.3337C476.35 24.9447 476.394 25.5224 476.571 26.0418C476.742 26.5612 477.024 27.0306 477.375 27.4389C478.083 28.2527 479.197 28.811 480.51 28.9582C480.761 28.986 480.98 28.8249 481.019 28.5832C481.104 27.9472 481.052 27.3361 480.894 26.7779C480.814 26.5001 480.712 26.2335 480.574 25.9835C480.433 25.7363 480.267 25.5058 480.076 25.2975C479.321 24.4559 478.213 23.9448 476.87 23.9309C476.615 23.9282 476.413 24.1004 476.394 24.3337Z" fill="white"/>
<path d="M485.201 21.9366C485.582 22.5115 485.8 23.1337 485.914 23.7503C486.024 24.3669 486.013 24.9807 485.856 25.564C485.552 26.7305 484.803 27.736 483.608 28.372C483.385 28.4915 483.122 28.4165 483.003 28.1998C482.674 27.6277 482.467 27.0388 482.384 26.45C482.342 26.1556 482.334 25.8612 482.348 25.5723C482.356 25.2835 482.398 24.9974 482.464 24.7169C482.738 23.5948 483.465 22.5449 484.573 21.8033C484.786 21.6616 485.054 21.72 485.201 21.9366Z" fill="white"/>
<path d="M477.218 32.2821C477.06 32.9848 477.077 33.6486 477.19 34.2763C477.303 34.9012 477.552 35.4845 477.92 36.0039C478.636 37.0455 479.805 37.862 481.342 38.237C481.632 38.3092 481.908 38.1564 481.983 37.8787C482.179 37.151 482.229 36.4316 482.124 35.7567C482.005 35.0846 481.751 34.4568 481.381 33.9152C480.629 32.8265 479.368 32.0849 477.829 31.8821C477.536 31.8432 477.27 32.0182 477.212 32.2821H477.218Z" fill="white"/>
<path d="M487.838 30.7074C488.186 31.4434 488.399 32.2044 488.429 32.9488C488.46 33.6932 488.343 34.4181 488.097 35.0791C487.581 36.4068 486.514 37.4761 485.049 38.0316C484.769 38.1371 484.474 38.0094 484.36 37.7344C484.062 37.0122 483.926 36.2929 483.918 35.593C483.893 34.8958 484.012 34.2153 484.261 33.5765C484.747 32.3016 485.704 31.1795 487.127 30.4574C487.395 30.3213 487.699 30.4268 487.835 30.7074H487.838Z" fill="white"/>
<path d="M477.76 40.8483C477.257 42.237 477.389 43.5757 477.972 44.7395C478.592 45.9005 479.656 46.8893 481.171 47.4781C481.458 47.5892 481.762 47.4698 481.878 47.2004C482.033 46.8421 482.146 46.481 482.221 46.1227C482.29 45.7616 482.309 45.4033 482.301 45.0534C482.271 44.3507 482.124 43.6757 481.795 43.0702C481.148 41.8565 480.01 40.9316 478.431 40.5205C478.136 40.4427 477.843 40.5844 477.757 40.8483H477.76Z" fill="white"/>
<path d="M488.822 40.6508C489.342 42.2534 489.209 43.8755 488.499 45.1642C487.822 46.4558 486.564 47.4057 484.988 47.7751C484.687 47.8445 484.405 47.6751 484.33 47.3779C484.231 46.989 484.17 46.6057 484.148 46.2308C484.12 45.8558 484.118 45.4864 484.156 45.1281C484.225 44.4115 484.466 43.7338 484.784 43.1117C485.425 41.8729 486.605 40.8508 488.126 40.3008C488.416 40.1953 488.717 40.3453 488.822 40.6508Z" fill="white"/>
<path d="M477.254 49.4444C477.088 49.7805 476.961 50.1166 476.875 50.4527C476.781 50.7887 476.718 51.122 476.696 51.4553C476.643 52.1191 476.77 52.7802 476.983 53.4023C477.417 54.6467 478.426 55.7965 479.861 56.5853C480.134 56.7353 480.46 56.6548 480.618 56.3965C481.005 55.7104 481.237 54.9911 481.315 54.28C481.334 54.1023 481.345 53.9245 481.345 53.7495C481.339 53.5718 481.326 53.3968 481.301 53.2246C481.254 52.8774 481.171 52.5385 481.052 52.2136C480.593 50.9082 479.499 49.8194 477.987 49.2028C477.699 49.0861 477.384 49.1917 477.257 49.4444H477.254Z" fill="white"/>
<path d="M488.452 50.6863C488.537 51.1085 488.579 51.5279 488.584 51.9361C488.584 52.3444 488.532 52.7416 488.454 53.1249C488.286 53.8915 488.004 54.5997 487.556 55.2025C486.663 56.4107 485.334 57.2161 483.675 57.3828C483.36 57.4133 483.1 57.205 483.067 56.8967C482.951 56.0829 482.995 55.3136 483.175 54.6025C483.219 54.4248 483.274 54.2498 483.335 54.0804C483.393 53.9082 483.457 53.7415 483.529 53.5776C483.675 53.2499 483.852 52.9388 484.059 52.6472C484.908 51.4834 486.168 50.6002 487.796 50.2447C488.106 50.178 488.388 50.3669 488.452 50.6863Z" fill="white"/>
<path d="M475.675 57.8938C474.804 59.1548 474.597 60.5324 474.876 61.8517C475.194 63.1793 476.012 64.4542 477.375 65.4485C477.635 65.6374 477.972 65.5985 478.16 65.3569C478.409 65.0375 478.622 64.707 478.79 64.3653C478.948 64.0209 479.067 63.6654 479.147 63.3099C479.227 62.9544 479.271 62.5961 479.274 62.2406C479.274 62.0628 479.268 61.885 479.252 61.7101C479.23 61.5323 479.197 61.3573 479.155 61.1851C478.818 59.7964 477.917 58.5687 476.435 57.741C476.156 57.5855 475.827 57.6522 475.672 57.8938H475.675Z" fill="white"/>
<path d="M486.853 60.5961C486.955 62.346 486.405 63.9513 485.347 65.0596C484.324 66.1817 482.817 66.8066 481.131 66.7594C480.811 66.751 480.573 66.5039 480.573 66.1872C480.576 65.7706 480.62 65.3706 480.695 64.9873C480.758 64.6013 480.858 64.2319 480.99 63.8819C481.123 63.5319 481.289 63.2014 481.485 62.8903C481.585 62.7348 481.69 62.5848 481.803 62.4404C481.911 62.2932 482.024 62.1543 482.149 62.0182C483.116 60.9406 484.573 60.224 486.242 60.0656C486.563 60.0379 486.825 60.2656 486.853 60.5989V60.5961Z" fill="white"/>
<path d="M472.77 66.1898C472.239 66.787 471.886 67.4424 471.645 68.109C471.41 68.7784 471.355 69.4922 471.41 70.1977C471.518 71.6031 472.248 73.0807 473.505 74.3028C473.749 74.5361 474.108 74.5472 474.343 74.325C474.951 73.7334 475.379 73.0446 475.664 72.3308C475.808 71.9753 475.896 71.6031 475.941 71.2309C475.988 70.8587 475.996 70.4838 475.963 70.1116C475.93 69.7394 475.858 69.3728 475.744 69.0173C475.625 68.6562 475.46 68.3035 475.261 67.9674C474.86 67.2925 474.301 66.6731 473.597 66.1454C473.328 65.9454 472.975 65.9676 472.773 66.1926L472.77 66.1898Z" fill="white"/>
<path d="M484.078 70.5669C484.017 71.4946 483.802 72.3695 483.406 73.1194C483.017 73.8749 482.519 74.5359 481.889 75.0414C480.62 76.0552 479.011 76.519 477.237 76.2135C476.902 76.158 476.69 75.8635 476.742 75.5358C476.866 74.6637 477.115 73.8693 477.505 73.1833C477.704 72.8416 477.917 72.5167 478.157 72.2139C478.401 71.914 478.671 71.6418 478.97 71.3946C479.269 71.1502 479.592 70.9307 479.94 70.7446C480.28 70.5558 480.64 70.3919 481.021 70.2641C481.784 70.0086 482.627 69.8836 483.523 69.9225C483.863 69.9364 484.103 70.2114 484.081 70.5641L484.078 70.5669Z" fill="white"/>
<path d="M468.782 74.4585C468.151 74.9806 467.695 75.5889 467.375 76.2388C467.04 76.8804 466.863 77.5803 466.836 78.3136C466.753 79.7551 467.256 81.3355 468.375 82.7715C468.585 83.0409 468.956 83.1103 469.216 82.9103C469.907 82.391 470.457 81.7688 470.841 81.0855C471.206 80.3884 471.416 79.6385 471.46 78.8802C471.529 77.3526 470.899 75.7916 469.627 74.5279C469.384 74.2863 469.022 74.2585 468.782 74.4585Z" fill="white"/>
<path d="M479.614 80.5025C479.413 81.4302 479.062 82.2829 478.572 82.9967C478.069 83.705 477.45 84.2938 476.756 84.7271C475.333 85.577 473.614 85.7992 471.88 85.2493C471.549 85.1409 471.383 84.8215 471.471 84.4882C471.712 83.6161 472.093 82.8606 472.585 82.219C473.055 81.5635 473.644 81.0275 474.321 80.6192C475.656 79.7915 477.329 79.4388 479.145 79.7748C479.487 79.8387 479.692 80.1498 479.614 80.5025Z" fill="white"/>
<path d="M463.58 81.8247C462.856 82.2886 462.267 82.8357 461.847 83.4773C461.418 84.1106 461.114 84.8022 460.982 85.566C460.852 86.3326 460.832 87.1214 460.993 87.9546C461.147 88.7823 461.462 89.6378 461.946 90.4794C462.129 90.7988 462.496 90.9154 462.803 90.7488C463.602 90.3072 464.29 89.7489 464.779 89.0767C465.269 88.4018 465.609 87.6519 465.758 86.8603C466.037 85.2522 465.634 83.5523 464.448 82.0164C464.227 81.7275 463.851 81.6442 463.58 81.8247Z" fill="white"/>
<path d="M474.097 89.7513C473.763 90.7123 473.24 91.5372 472.629 92.2288C472.007 92.9149 471.253 93.4287 470.457 93.7842C469.666 94.1453 468.776 94.2925 467.897 94.2703C467.015 94.2453 466.122 94.0259 465.255 93.6093C464.926 93.4509 464.79 93.076 464.937 92.7455C465.318 91.8622 465.849 91.1401 466.446 90.5262C467.04 89.9096 467.745 89.4403 468.513 89.107C470.023 88.4209 471.869 88.3209 473.699 88.9098C474.047 89.0236 474.221 89.3847 474.097 89.7513Z" fill="white"/>
<path d="M460.473 95.6031C460.345 95.6031 460.221 95.5531 460.127 95.4531C459.95 95.2615 459.958 94.9615 460.149 94.7837C461.716 93.3117 463.223 91.7535 463.239 91.7368C473.096 81.2407 479.542 68.1282 481.875 53.8214C483.882 41.506 482.691 28.8407 478.426 17.2003C478.334 16.9558 478.462 16.6836 478.705 16.592C478.948 16.5003 479.219 16.6281 479.31 16.8725C483.631 28.6685 484.838 41.4977 482.807 53.9742C480.444 68.4698 473.915 81.7546 463.922 92.3923C463.903 92.4118 462.38 93.9866 460.796 95.4753C460.705 95.5614 460.589 95.6031 460.475 95.6031H460.473Z" fill="white"/>
<path d="M90.1358 86.4564H51.0323L47.758 86.7371L47.1967 84.5855L51.0323 84.8661H83.3535L85.9261 81.6387H86.5809L90.1358 85.3338V86.4564ZM86.2535 56.9884H54.5403L51.2661 57.2691L50.7048 55.1175L54.5403 55.3981H79.7051L82.1841 52.311H82.839L86.2535 55.8659V56.9884ZM83.1664 70.9273H57.3L54.0258 71.2079L53.4645 69.0563L57.3 69.3369H76.6179L79.097 66.2498H79.7518L83.1664 69.8047V70.9273ZM128.21 65.0337H108.659V68.8692H134.338L136.396 66.2498H137.051L140.044 69.3369V70.4595H108.659V74.295H134.712L136.302 72.6112H136.91C139.249 74.295 139.81 74.8563 139.81 75.3709C139.81 75.7918 139.296 76.1193 138.22 76.5402C137.893 81.6854 137.425 85.1468 136.349 88.0468C135.32 90.8065 133.73 92.2097 129.146 92.2565C129.052 90.8065 128.678 90.3387 125.825 89.45L126.059 88.3742C127.93 88.6548 129.193 88.7952 130.409 88.7952C131.906 88.7952 132.981 88.2806 133.589 86.6903C134.478 84.3516 134.993 80.6564 135.226 75.6983H108.659V77.2886L108.191 77.7564L105.525 77.8499L105.712 68.1208V55.7723C105.712 53.6675 105.525 52.4981 105.01 51.0949L105.291 50.8142C106.788 51.4691 108.05 52.1239 109.407 52.8723H116.61C116.797 52.2174 116.891 51.6094 116.984 50.8142C117.078 50.1594 117.172 49.2706 117.172 48.4287L117.405 48.2416C120.82 49.1771 122.036 49.7852 122.036 50.3932C122.036 50.9078 121.709 51.0949 119.978 51.0949C119.51 51.7029 118.996 52.2642 118.434 52.8723H127.649L129.146 51.2352H129.801C132.139 52.8723 132.701 53.34 132.701 53.9013C132.701 54.3691 132.326 54.6497 131.157 55.1175V58.8594L131.251 66.3901L130.783 66.8579L128.21 66.9514V65.0337ZM128.21 63.4433V59.6078H108.659V63.4433H128.21ZM128.21 58.0175V54.4626H108.659V58.0175H128.21ZM124.515 86.2693H104.776V88.6081L104.355 89.029L101.783 89.1226L101.97 84.0709V82.2467C101.97 80.9838 101.876 80.1886 101.502 79.1128L101.736 78.8322C105.852 79.5806 106.554 79.8144 106.554 80.3757C106.554 80.8903 106.226 81.1709 104.776 81.5451V84.679H113.102V80.7032C113.102 79.0193 112.962 78.1773 112.541 77.1483L112.775 76.8676C116.891 77.4289 117.78 77.7096 117.78 78.2709C117.78 78.7386 117.359 78.9725 115.909 79.3467V84.679H124.515V82.2467C124.515 80.9838 124.422 80.1419 124.047 79.0661L124.281 78.7854C128.351 79.5338 129.099 79.8612 129.099 80.3757C129.099 80.8903 128.772 81.1241 127.322 81.4983V82.9951L127.509 87.1581L127.088 87.579L124.515 87.6726V86.2693ZM157.959 60.824H169.84V53.6675C169.84 52.3578 169.606 50.9078 169.091 49.7852L169.325 49.5045C174.237 50.2997 175.078 50.5803 175.078 51.3755C175.078 51.89 174.657 52.1239 172.833 52.5916V60.824H185.509L187.053 58.953H187.708C190.514 60.9643 190.982 61.3853 190.982 61.9466C190.982 62.4143 190.514 62.7417 189.111 63.2095V77.8967L189.391 90.4323L188.924 90.9L186.117 90.9936V88H157.211V90.6662L156.743 91.1339L153.983 91.2274L154.264 78.037V63.724C154.264 61.8062 154.077 60.5433 153.609 58.9998L153.89 58.7191C155.386 59.4207 156.649 60.0288 157.959 60.824ZM172.833 74.6225V86.4097H186.117V74.6225H172.833ZM169.84 74.6225H157.211V86.4097H169.84V74.6225ZM157.211 73.0321H169.84V62.4143H157.211V73.0321ZM172.833 73.0321H186.117V62.4143H172.833V73.0321ZM215.117 54.1352L215.445 53.9949C218.626 55.3981 219.888 56.3804 219.888 56.9417C219.888 57.4562 219.514 57.6901 217.69 57.5965C214.65 62.0869 212.077 65.4079 208.99 68.6821C211.516 68.5418 213.995 68.4014 216.521 68.2144C215.959 67.0918 215.351 66.1563 214.463 65.2676L215.258 64.4724C219.795 66.9514 220.543 69.4773 220.543 70.6934C220.543 71.9563 219.888 72.5176 219.28 72.5176C218.626 72.5176 218.064 72.4241 217.597 70.9741C217.409 70.4128 217.222 69.8982 217.035 69.3837C215.538 69.7111 214.088 69.9918 212.592 70.2724V83.0887L212.779 91.5081L212.311 91.9758L209.505 92.0694L209.785 83.0887V70.7402C208.288 71.0208 206.838 71.2547 205.342 71.4886C205.201 72.8918 204.967 73.1257 204.593 73.1257C203.985 73.1257 203.377 72.0499 202.254 69.1498L202.442 68.8224C203.704 68.8692 204.874 68.8692 206.23 68.8224C206.558 68.8224 206.932 68.7756 207.306 68.7756C209.972 64.7998 211.796 61.5256 213.855 57.6433C214.369 56.661 214.93 55.3046 215.117 54.1352ZM238.131 67.5127H225.829V83.1354C225.829 87.0177 226.577 87.6726 232.752 87.6726C239.113 87.6726 240.282 87.1113 240.984 86.1758C241.685 85.2403 241.966 83.3225 242.621 79.0193L243.744 79.1596C243.65 83.229 243.65 85.1468 243.65 86.129C243.65 86.6903 243.884 86.8774 244.398 87.1581C245.006 87.4855 245.334 87.8129 245.334 88.3742C245.334 89.0758 244.726 89.5436 243.931 89.7774C242.808 90.1049 240.516 90.5726 232.892 90.5726C224.145 90.5726 222.695 89.4032 222.695 83.9774L222.789 77.8967V68.6353C222.789 66.5772 222.601 65.4547 222.04 64.0514L222.321 63.7708C223.771 64.3788 225.174 65.0805 226.671 65.9224H238.131V53.4804H224.987L221.713 53.761L221.151 51.6094L224.987 51.89H237.523L239.019 50.0658H239.674C242.294 51.9836 242.902 52.4513 242.902 53.0126C242.902 53.4804 242.481 53.8078 241.218 54.2755V62.1337L241.452 70.0853L240.984 70.5531L238.131 70.6466V67.5127ZM202.442 56.7546L203.003 55.7723C204.359 56.2401 205.529 56.7546 206.558 57.3159C207.68 55.3513 208.522 53.5271 209.13 51.7029C209.411 50.9545 209.738 49.6916 209.879 48.7561L210.206 48.6158C213.48 50.019 214.837 50.861 214.837 51.4223C214.837 51.9836 214.463 52.1707 212.405 52.0771C210.721 54.6497 209.411 56.2868 207.727 58.0175C209.505 59.1401 210.44 60.3562 210.44 61.2917C210.44 62.4143 210.019 63.2095 208.99 63.2095C208.335 63.2095 207.867 62.9288 207.213 61.6659C206.277 60.0288 204.921 58.2981 202.442 56.7546ZM203.564 75.6047L203.892 75.4644C207.166 76.587 208.101 77.0547 208.101 77.7096C208.101 78.2241 207.68 78.4112 206.324 78.5983C205.342 81.9661 204.5 84.6322 202.769 87.6258L201.74 87.2048C202.675 84.2113 203.19 81.0774 203.517 78.5048C203.611 77.8031 203.658 77.1951 203.658 76.6806C203.658 76.3064 203.611 75.9789 203.564 75.6047ZM214.322 75.8854L215.211 75.2305C218.953 78.1773 220.169 81.4516 220.169 83.4629C220.169 84.7726 219.701 85.5209 218.766 85.5209C217.83 85.5209 217.409 85.1 217.082 83.1354C216.708 80.937 215.959 78.1773 214.322 75.8854ZM296.646 87.9065L296.318 88.8887C294.728 88.9355 293.792 89.6839 293.278 90.9936C291.641 90.292 290.004 89.5436 288.507 88.6081C285.139 86.55 282.239 83.8371 279.9 80.7032C277.842 77.9435 276.205 74.9031 274.895 71.6757C274.241 74.5757 273.305 76.8676 271.855 79.3935C268.347 85.4742 261.471 89.4968 253.473 91.5549L252.911 90.5726C260.208 87.8597 266.523 83.4161 269.423 77.8967C270.686 75.4644 271.574 73.1257 272.136 70.2724H257.402L254.127 70.5531L253.566 68.4014L257.402 68.6821H272.416C272.837 65.7353 272.978 62.7885 273.024 59.7949H261.424L258.15 60.0756L257.589 57.9239L261.424 58.2046H273.071V56.1465C273.071 51.7029 272.978 50.4868 272.463 49.0368L272.697 48.7561C277.234 49.5513 278.216 49.9255 278.216 50.6739C278.216 51.282 277.608 51.5626 276.112 51.9368C276.112 54.2287 276.065 56.3336 276.018 58.2046H284.765L287.01 55.3981H287.665L290.846 58.6723V59.7949H276.018C275.924 62.7417 275.831 65.7353 275.41 68.6821H289.255L291.547 65.7821H292.202L295.429 69.1498V70.2724H275.737C280.041 78.7386 286.355 85.1 296.646 87.9065ZM315.496 84.5855V85.5209L315.028 85.9887L312.315 86.0822L312.549 78.4112V72.0499C312.549 69.945 312.502 69.0095 311.988 67.6063L312.268 67.3256C313.672 67.9805 314.888 68.5418 316.104 69.1498H335.749L337.293 67.466H337.948C340.473 69.3837 341.081 69.8515 341.081 70.2724C341.081 70.7402 340.52 71.0676 339.351 71.5353V78.2709L339.585 85.1935L339.117 85.6613L336.357 85.7548V84.5855H315.496ZM315.496 82.9951H336.357V79.908H315.496V82.9951ZM315.496 78.3177H336.357V75.2773H315.496V78.3177ZM315.496 73.687H336.357V70.7402H315.496V73.687ZM318.396 59.8885H333.223L334.673 58.3449H335.328C337.667 59.9352 338.369 60.4498 338.369 61.0111C338.369 61.432 337.948 61.7595 336.685 62.1804V63.0691L336.778 66.7643L336.31 67.2321L333.738 67.3256V66.4837H317.834V66.9047L317.367 67.3724L314.841 67.466L314.934 63.7708V62.7885C314.934 60.9175 314.841 60.0288 314.513 58.4385L314.794 58.1578C316.244 58.7659 317.226 59.2336 318.396 59.8885ZM317.834 61.4788V64.8934H333.738V61.4788H317.834ZM341.783 57.2691H310.07C310.07 60.9175 309.041 62.7417 306.842 62.7417C305.813 62.7417 305.112 62.0869 305.112 61.0578C305.112 60.3562 305.439 59.982 306.234 59.1401C307.684 57.5965 308.386 56.0997 308.48 53.0594L309.602 53.1062C309.836 54.0417 309.93 54.8836 310.023 55.6788H317.414C317.133 55.3981 316.852 54.9771 316.572 54.3223C315.823 52.8255 314.981 51.6561 313.157 50.2997L313.859 49.411C318.022 50.7674 319.752 52.4981 319.752 54.4158C319.752 55.0707 319.565 55.4449 319.284 55.6788H324.336V52.4513C324.336 50.6739 324.149 49.7384 323.588 48.6158L323.822 48.3352C328.639 49.0835 329.341 49.3642 329.341 50.1126C329.341 50.6739 328.92 50.9078 327.189 51.3287V55.6788H331.82C332.849 54.1352 333.457 52.9658 333.878 52.0771C334.486 50.7674 334.673 50.2061 334.767 49.3642L335.094 49.2239C338.041 50.4868 339.351 51.2352 339.351 51.7497C339.351 52.4045 338.93 52.5449 337.199 52.4045C336.17 53.4804 335.141 54.4626 333.691 55.6788H341.409L343.14 53.7142H343.794C346.648 56.0997 347.302 56.8481 347.302 57.4094C347.302 58.0643 346.788 58.2046 344.777 58.4852C343.701 59.6546 342.344 60.9643 340.707 62.2272L339.819 61.5256C340.754 59.982 341.222 58.9062 341.783 57.2691ZM318.255 85.2871L318.63 85.1935C321.764 86.8774 322.278 87.2516 322.278 87.7661C322.278 88.1403 321.951 88.3742 321.062 88.3742C320.688 88.3742 320.173 88.3274 319.565 88.2339C315.262 90.292 311.613 91.2742 305.673 92.1629L305.299 91.0871C310.117 89.9178 313.204 88.7952 315.683 87.3452C317.226 86.4564 317.788 85.8951 318.255 85.2871ZM329.856 86.6435L330.277 85.6145C339.678 86.6903 343.42 88.6081 343.42 90.6194C343.42 91.6484 342.999 92.0226 342.11 92.0226C341.362 92.0226 340.614 91.6016 339.444 90.7129C337.433 89.1226 334.393 87.9065 329.856 86.6435ZM397.831 88.3824L397.716 89.2236C396.263 89.4148 395.575 90.0266 395.193 91.3266C389.916 90.1413 385.366 88.3059 381.58 85.1322C376.992 88.3824 371.524 90.2942 365.329 91.4031L365.024 90.5236C370.53 89.0706 375.692 86.9676 379.974 83.6792C378.445 82.1115 377.106 80.3526 375.998 78.479C375.309 77.3319 374.736 76.1465 374.162 74.923H372.059L369.383 75.1524L368.924 73.3935L372.059 73.6229H387.277L388.692 71.9787H389.228C391.636 73.9288 391.904 74.2729 391.904 74.6935C391.904 75.1141 391.407 75.3436 390.069 75.7259C388.157 78.9761 385.901 81.6527 383.301 83.7939C387.201 86.3176 391.942 87.6559 397.831 88.3824ZM387.392 74.923H375.424C376.954 77.7525 378.942 80.3908 381.465 82.4174C383.836 80.3526 385.824 77.9054 387.392 74.923ZM387.163 67.6962H394.198L395.613 66.0902H396.148C398.481 68.0403 399.016 68.5756 399.016 69.0345C399.016 69.5698 398.596 69.6845 396.951 69.9904C395.843 71.0993 394.542 72.3229 393.089 73.3553L392.363 72.7817C393.242 71.4816 393.892 70.4492 394.504 68.9962H368.197C368.197 71.9787 367.356 73.8523 365.559 73.8523C364.718 73.8523 364.106 73.2788 364.106 72.514C364.106 71.864 364.374 71.5581 365.368 70.564C366.515 69.3786 366.744 67.9638 366.897 65.5549L367.815 65.5932C368.006 66.3579 368.083 67.0462 368.159 67.6962H385.748C386.972 65.7843 387.775 64.2166 388.272 63.0313C388.692 62.0371 388.883 61.4253 388.922 60.6988L389.189 60.5841C392.478 62.3048 392.898 62.6489 392.898 63.1077C392.898 63.6048 392.631 63.7578 390.91 63.6048C389.878 64.9049 388.616 66.3579 387.163 67.6962ZM370.644 62.0754L371.256 61.3871C374.047 62.9166 375.08 64.3313 375.08 65.6314C375.08 66.5108 374.659 67.0844 373.895 67.0844C373.206 67.0844 372.862 66.5873 372.633 65.7079C372.327 64.5608 371.792 63.3372 370.644 62.0754ZM378.559 61.3489L379.286 60.8135C382.115 62.3812 383.339 64.0254 383.339 65.402C383.339 66.5491 382.727 67.0844 382.077 67.0844C381.427 67.0844 381.045 66.702 380.815 65.6696C380.433 64.2166 379.936 62.9548 378.559 61.3489ZM368.083 60.89L368.006 59.9723C374.698 59.3988 380.777 58.4811 385.251 57.3722C387.01 56.9516 388.08 56.6075 389.113 56.0339H389.381C392.325 57.8693 392.937 58.3281 392.937 58.8252C392.937 59.1693 392.669 59.3605 392.248 59.3605C391.789 59.3605 391.254 59.2458 389.725 58.9017C381.886 60.2782 375.424 60.8135 368.083 60.89ZM415.076 85.2087V85.9734L414.693 86.3558L412.476 86.4323L412.667 80.1614V74.9612C412.667 73.2405 412.629 72.4758 412.208 71.3287L412.437 71.0993C413.584 71.6346 414.579 72.0934 415.573 72.5905H431.632L432.894 71.214H433.429C435.494 72.7817 435.991 73.1641 435.991 73.5082C435.991 73.8906 435.532 74.1582 434.577 74.5406V80.0467L434.768 85.7058L434.385 86.0882L432.129 86.1646V85.2087H415.076ZM415.076 83.9086H432.129V81.385H415.076V83.9086ZM415.076 80.085H432.129V77.5996H415.076V80.085ZM415.076 76.2995H432.129V73.8906H415.076V76.2995ZM417.446 65.0196H429.568L430.753 63.7578H431.288C433.2 65.0578 433.774 65.4784 433.774 65.9373C433.774 66.2814 433.429 66.5491 432.397 66.8932V67.6197L432.474 70.6404L432.091 71.0228L429.988 71.0993V70.411H416.988V70.7551L416.605 71.1375L414.54 71.214L414.617 68.1933V67.3903C414.617 65.8608 414.54 65.1343 414.273 63.8343L414.502 63.6048C415.687 64.1019 416.49 64.4843 417.446 65.0196ZM416.988 66.3197V69.1109H429.988V66.3197H416.988ZM436.565 62.8783H410.64C410.64 65.8608 409.799 67.3521 408.002 67.3521C407.161 67.3521 406.587 66.8167 406.587 65.9755C406.587 65.402 406.855 65.0961 407.505 64.4078C408.69 63.146 409.264 61.9224 409.34 59.437L410.258 59.4752C410.449 60.24 410.526 60.9282 410.602 61.5783H416.643C416.414 61.3489 416.185 61.0047 415.955 60.4694C415.343 59.2458 414.655 58.2899 413.164 57.181L413.737 56.4545C417.14 57.5634 418.555 58.9782 418.555 60.5459C418.555 61.0812 418.402 61.3871 418.173 61.5783H422.302V58.9399C422.302 57.4869 422.15 56.7222 421.691 55.8045L421.882 55.5751C425.82 56.1869 426.394 56.4163 426.394 57.0281C426.394 57.4869 426.05 57.6781 424.635 58.0222V61.5783H428.42C429.262 60.3165 429.759 59.3605 430.103 58.634C430.6 57.5634 430.753 57.1045 430.829 56.4163L431.097 56.3016C433.506 57.334 434.577 57.9458 434.577 58.3664C434.577 58.9017 434.232 59.0164 432.818 58.9017C431.976 59.7811 431.135 60.5841 429.95 61.5783H436.259L437.674 59.9723H438.209C440.542 61.9224 441.077 62.5342 441.077 62.993C441.077 63.5284 440.656 63.6431 439.012 63.8725C438.133 64.8284 437.024 65.899 435.685 66.9314L434.959 66.3579C435.724 65.0961 436.106 64.2166 436.565 62.8783ZM417.332 85.7823L417.638 85.7058C420.199 87.0823 420.62 87.3882 420.62 87.8088C420.62 88.1147 420.352 88.3059 419.626 88.3059C419.32 88.3059 418.899 88.2677 418.402 88.1912C414.885 89.8736 411.902 90.6766 407.046 91.4031L406.74 90.5236C410.678 89.5677 413.202 88.65 415.229 87.4647C416.49 86.7382 416.949 86.2793 417.332 85.7823ZM426.814 86.8911L427.159 86.0499C434.844 86.9294 437.903 88.4971 437.903 90.1413C437.903 90.9825 437.559 91.2884 436.833 91.2884C436.221 91.2884 435.609 90.9442 434.653 90.2177C433.009 88.9177 430.523 87.9235 426.814 86.8911Z" fill="white"/>
<path d="M201.908 15.2765H194.424L192.106 15.4752L191.709 13.9518L194.424 14.1505H211.181L212.108 12.9915H212.572C214.261 14.283 214.625 14.5479 214.625 14.9453C214.625 15.2102 214.36 15.442 213.565 15.707V17.7602L213.731 20.4757L213.4 20.8068L211.479 20.873V19.7471H203.928V23.423H213.764L214.89 22.0983H215.32C217.075 23.4561 217.407 23.7873 217.407 24.1515C217.407 24.4496 217.142 24.7145 216.248 24.9794C215.983 26.7015 215.784 28.291 215.122 30.0462C214.327 32.1656 212.903 32.8279 210.254 32.861C210.22 31.8675 209.724 31.2383 207.472 30.5098L207.637 29.7481C209.525 30.1124 210.287 30.2449 211.048 30.2449C212.075 30.2449 212.704 30.013 213.135 29.0196C213.698 27.6618 213.896 26.2709 214.095 24.5489H203.928V28.0923L204.061 34.4175L203.73 34.7486L201.71 34.8149L202.008 26.2047C198.497 29.6488 193.762 32.4305 188.563 33.8545L188.165 33.1591C192.669 31.3046 197.305 28.3241 200.617 24.5489H192.04C191.808 25.0788 191.609 25.6417 191.378 26.1385L190.947 26.4365L188.927 26.2047C189.954 24.0522 190.947 21.4029 191.51 19.5153C191.709 18.8861 191.874 18.2238 191.974 17.5615L192.172 17.3959C192.901 17.7602 193.663 18.1907 194.424 18.6212H201.908V15.2765ZM203.928 15.2765V18.6212H211.479V15.2765H203.928ZM201.908 19.7471H193.762C193.331 20.9724 192.934 22.1977 192.47 23.423H201.908V19.7471ZM203.067 8.85197H196.544C198.067 9.87856 198.829 10.8058 198.829 11.6999C198.829 12.2629 198.564 12.8259 197.934 12.8259C197.338 12.8259 197.14 12.4616 196.842 11.5012C196.61 10.7065 196.146 9.77922 195.385 8.85197H192.801C191.378 10.9383 189.755 12.4285 187.702 13.8856L187.172 13.2895C189.457 11.1039 190.781 9.21625 191.907 6.40139C192.205 5.63972 192.338 4.91118 192.371 4.28197L192.603 4.18263C194.987 5.01052 195.815 5.50726 195.815 5.93777C195.815 6.26893 195.351 6.43451 194.225 6.43451C193.994 6.89813 193.762 7.32864 193.497 7.72603H199.06L200.484 5.97089H200.948L203.067 8.05719V8.85197ZM218.003 8.85197H209.161C210.982 10.011 211.81 11.0376 211.81 11.9649C211.81 12.7596 211.479 13.1902 210.883 13.1902C210.287 13.1902 209.989 12.7928 209.691 11.8324C209.393 10.8058 208.863 9.84545 207.902 8.85197H205.783C204.723 10.4415 203.564 11.6999 201.743 13.0908L201.147 12.561C202.935 10.7396 204.028 8.98443 204.988 6.50074C205.319 5.67284 205.452 5.01052 205.485 4.28197L205.717 4.18263C208.101 5.01052 208.83 5.44103 208.83 5.87154C208.83 6.2027 208.399 6.36828 207.273 6.36828C207.008 6.86501 206.743 7.29552 206.511 7.72603H213.731L215.221 5.80531H215.685L218.003 8.05719V8.85197ZM225.619 13.9849V11.1039C225.619 10.0773 225.884 9.7461 226.48 9.41494C227.904 8.62016 229.891 8.0903 231.945 8.0903C235.819 8.0903 238.038 10.3091 238.038 13.4551C238.038 15.9719 236.548 18.5881 232.971 19.3828V19.5153C236.647 19.8796 238.932 21.8665 238.932 25.3768C238.932 29.3176 235.687 32.1987 230.719 32.1987C228.666 32.1987 226.812 31.7682 225.52 31.139C224.99 30.8741 224.825 30.3773 224.825 29.715V26.1716H226.083L226.447 28.291C226.58 29.2183 226.745 29.5163 227.54 29.9468C228.434 30.4436 229.593 30.7747 230.951 30.7747C234.296 30.7747 235.918 28.8209 235.918 25.9729C235.918 22.86 233.998 21.0055 229.693 21.0055H228.202L228.865 18.9523H229.328C233.07 18.9523 235.157 17.2965 235.157 13.8525C235.157 11.2363 233.468 9.58052 230.852 9.58052C229.924 9.58052 228.997 9.77922 228.202 10.2097C227.772 10.4415 227.673 10.6402 227.441 11.4681L226.911 13.9849H225.619ZM257.081 10.6733H249.862C248.702 10.6733 248.404 10.8389 247.875 12.3291L247.146 14.3161H246.119L247.014 9.28248C247.146 8.52081 247.411 8.32212 248.173 8.32212H260.591V8.78574C260.591 9.51429 260.425 10.0441 259.829 11.0707C258.571 13.2895 257.279 15.6738 255.293 19.8465C253.339 23.9528 252.213 27.6949 251.848 32H248.934C248.934 30.2449 250.491 26.3041 252.478 22.297C254.365 18.4887 256.087 15.0778 257.644 12.1304C257.809 11.7993 257.942 11.5012 257.942 11.1701C257.942 10.7396 257.677 10.6733 257.081 10.6733ZM285.628 24.2509H277.813V25.9398L277.481 26.2709L275.594 26.3372L275.759 20.3763V16.005C275.759 14.5148 275.627 13.6869 275.263 12.6934L275.461 12.4947C276.521 12.9583 277.382 13.422 278.309 13.9518H285.231L286.29 12.6603H286.754C288.542 14.0181 288.906 14.3492 288.906 14.7466C288.906 15.0778 288.542 15.3096 287.714 15.6407V20.0783L287.88 25.6086L287.549 25.9398L285.628 26.006V24.2509ZM285.628 23.1249V15.0778H277.813V23.1249H285.628ZM271.355 6.69943H292.317L293.41 5.3748H293.874C295.861 6.79878 296.225 7.09683 296.225 7.49422C296.225 7.82538 295.894 8.05719 294.9 8.38835V25.443L295.099 33.5564L294.768 33.8876L292.748 33.9538V32.1325H270.825V33.722L270.494 34.0532L268.507 34.1194L268.706 25.5424V8.75262C268.706 7.39487 268.573 6.50074 268.242 5.40791L268.441 5.20922C269.501 5.70596 270.395 6.13647 271.355 6.69943ZM270.825 7.82538V31.0065H292.748V7.82538H270.825Z" fill="white"/>
</svg>
