<svg width="212" height="85" viewBox="0 0 212 85" fill="none" xmlns="http://www.w3.org/2000/svg">
<path d="M11.0814 3.03408C8.63237 3.99509 7.59858 6.70314 8.89773 9.04456C9.01659 9.26676 9.27642 9.3473 9.50308 9.23621C11.8388 8.06411 12.7427 5.7088 11.6674 3.2785C11.5651 3.04797 11.3136 2.93965 11.0814 3.03408Z" fill="#A6C022"/>
<path d="M3.93625 10.9361C3.5548 11.5111 3.33643 12.1332 3.2231 12.7498C3.11254 13.3664 3.12359 13.9803 3.28115 14.5635C3.5852 15.7301 4.33429 16.7355 5.5284 17.3744C5.75229 17.4938 6.01488 17.4188 6.13374 17.2022C6.46268 16.63 6.66999 16.0412 6.75291 15.4523C6.79437 15.1579 6.80267 14.8635 6.78884 14.5747C6.78055 14.2858 6.73909 13.9997 6.67275 13.7192C6.3991 12.5971 5.67213 11.5472 4.56371 10.8056C4.35087 10.664 4.08275 10.7223 3.93625 10.9389V10.9361Z" fill="#A6C022"/>
<path d="M12.7427 13.3328C12.7869 13.9439 12.7427 14.5216 12.5658 15.041C12.3944 15.5604 12.1125 16.0298 11.7614 16.438C11.0538 17.2519 9.93985 17.8101 8.62689 17.9573C8.37535 17.9851 8.15698 17.824 8.11829 17.5824C8.0326 16.9463 8.08512 16.3353 8.24267 15.777C8.32283 15.4993 8.42511 15.2326 8.56331 14.9826C8.70428 14.7355 8.87013 14.5049 9.06086 14.2966C9.81547 13.455 10.9239 12.944 12.2673 12.9301C12.5216 12.9273 12.7233 13.0995 12.7427 13.3328Z" fill="#A6C022"/>
<path d="M1.30209 19.7103C0.953807 20.4463 0.740968 21.2074 0.710562 21.9517C0.680157 22.6961 0.796251 23.421 1.04226 24.0821C1.55915 25.4097 2.62611 26.479 4.09111 27.0345C4.37029 27.1401 4.66605 27.0123 4.77938 26.7373C5.07791 26.0152 5.21335 25.2958 5.22164 24.5959C5.24652 23.8987 5.12766 23.2183 4.87889 22.5794C4.3924 21.3046 3.43601 20.1825 2.01247 19.4603C1.74435 19.3242 1.4403 19.4298 1.30485 19.7103H1.30209Z" fill="#A6C022"/>
<path d="M11.9194 21.2818C12.0769 21.9845 12.0603 22.6483 11.947 23.2761C11.8337 23.901 11.5849 24.4843 11.2173 25.0037C10.5014 26.0452 9.33213 26.8618 7.79527 27.2368C7.50503 27.309 7.22862 27.1562 7.15398 26.8785C6.95773 26.1508 6.90798 25.4314 7.01301 24.7565C7.13187 24.0843 7.38617 23.4566 7.75657 22.915C8.50841 21.8262 9.76886 21.0846 11.3085 20.8819C11.6015 20.843 11.8668 21.018 11.9249 21.2818H11.9194Z" fill="#A6C022"/>
<path d="M0.315359 29.6504C-0.2043 31.2531 -0.0716209 32.8751 0.638764 34.1639C1.31598 35.4554 2.57366 36.4053 4.14922 36.7747C4.45052 36.8441 4.73246 36.6747 4.80709 36.3775C4.9066 35.9887 4.96741 35.6054 4.98952 35.2304C5.01716 34.8554 5.01993 34.486 4.98123 34.1277C4.91213 33.4112 4.67165 32.7334 4.35377 32.1113C3.71249 30.8725 2.5322 29.8504 1.01192 29.3005C0.721688 29.1949 0.420396 29.3449 0.315359 29.6504Z" fill="#A6C022"/>
<path d="M11.3773 29.8506C11.8803 31.2393 11.7477 32.5781 11.1644 33.7418C10.5453 34.9028 9.48107 35.8916 7.96632 36.4804C7.67885 36.5915 7.37479 36.4721 7.2587 36.2027C7.1039 35.8444 6.99057 35.4833 6.91594 35.125C6.84684 34.764 6.82749 34.4057 6.83578 34.0557C6.86619 33.353 7.01269 32.6781 7.34162 32.0726C7.98843 30.8588 9.12726 29.9339 10.7056 29.5228C11.0013 29.4451 11.2943 29.5867 11.38 29.8506H11.3773Z" fill="#A6C022"/>
<path d="M0.688831 39.6884C0.603143 40.1105 0.561681 40.5299 0.556152 40.9382C0.556152 41.3465 0.608671 41.7437 0.686067 42.127C0.85468 42.8936 1.13662 43.6018 1.58441 44.2045C2.47723 45.4127 3.80678 46.2182 5.46527 46.3849C5.78038 46.4154 6.04021 46.2071 6.07338 45.8988C6.18947 45.085 6.14525 44.3156 5.96558 43.6046C5.92135 43.4268 5.86607 43.2519 5.80526 43.0824C5.74721 42.9102 5.68364 42.7436 5.61177 42.5797C5.46803 42.252 5.28836 41.9409 5.08105 41.6493C4.23246 40.4855 2.97201 39.6023 1.34393 39.2467C1.03435 39.1801 0.752406 39.3689 0.688831 39.6884Z" fill="#A6C022"/>
<path d="M11.8832 38.4443C12.049 38.7804 12.1762 39.1165 12.2619 39.4525C12.3558 39.7886 12.4194 40.1219 12.4415 40.4552C12.494 41.119 12.3669 41.7801 12.1541 42.4022C11.7201 43.6465 10.7112 44.7964 9.27658 45.5852C9.00293 45.7352 8.67676 45.6547 8.51921 45.3963C8.13223 44.7103 7.90004 43.9909 7.82264 43.2799C7.80329 43.1021 7.79224 42.9244 7.79224 42.7494C7.79776 42.5716 7.81159 42.3967 7.83646 42.2245C7.88345 41.8773 7.96638 41.5384 8.08524 41.2135C8.54408 39.908 9.63868 38.8193 11.1507 38.2027C11.4381 38.086 11.7533 38.1916 11.8804 38.4443H11.8832Z" fill="#A6C022"/>
<path d="M2.28602 49.5958C2.18375 51.3456 2.73381 52.951 3.79248 54.0592C4.81521 55.1813 6.32167 55.8062 8.0078 55.759C8.32844 55.7507 8.56615 55.5035 8.56615 55.1869C8.56339 54.7702 8.51916 54.3703 8.44453 53.987C8.38095 53.6009 8.28145 53.2315 8.14877 52.8815C8.01609 52.5316 7.85024 52.2011 7.65399 51.89C7.55448 51.7344 7.44944 51.5845 7.33611 51.44C7.22831 51.2928 7.11498 51.1539 6.99059 51.0178C6.02314 49.9402 4.56644 49.2236 2.8969 49.0653C2.57626 49.0375 2.31366 49.2653 2.28602 49.5986V49.5958Z" fill="#A6C022"/>
<path d="M13.4613 46.8937C14.332 48.1546 14.5393 49.5323 14.2601 50.8516C13.9423 52.1792 13.1241 53.4541 11.7613 54.4484C11.5015 54.6373 11.1643 54.5984 10.9763 54.3568C10.7276 54.0374 10.5147 53.7068 10.3461 53.3652C10.1886 53.0208 10.0697 52.6653 9.98677 52.3098C9.90661 51.9542 9.86238 51.596 9.85962 51.2404C9.85962 51.0627 9.86515 50.8849 9.88173 50.7099C9.90385 50.5322 9.93702 50.3572 9.97848 50.185C10.3157 48.7962 11.2168 47.5686 12.6984 46.7409C12.9776 46.5854 13.3065 46.652 13.4613 46.8937Z" fill="#A6C022"/>
<path d="M5.06179 59.5666C5.1226 60.4943 5.3382 61.3692 5.73348 62.1191C6.12322 62.8746 6.62077 63.5357 7.25099 64.0412C8.51973 65.0549 10.1285 65.5188 11.903 65.2133C12.2375 65.1577 12.4503 64.8633 12.3978 64.5356C12.2734 63.6634 12.0247 62.8691 11.6349 62.183C11.4359 61.8414 11.2231 61.5164 10.9826 61.2137C10.7393 60.9137 10.4685 60.6415 10.1699 60.3943C9.8714 60.1499 9.54799 59.9305 9.19971 59.7444C8.85972 59.5555 8.50038 59.3917 8.11893 59.2639C7.35603 59.0084 6.51297 58.8834 5.61738 58.9223C5.27739 58.9361 5.03691 59.2111 5.05903 59.5639L5.06179 59.5666Z" fill="#A6C022"/>
<path d="M16.367 55.1926C16.8977 55.7898 17.2515 56.4453 17.492 57.1118C17.7269 57.7812 17.7822 58.495 17.7269 59.2005C17.6191 60.6059 16.8894 62.0835 15.6317 63.3056C15.3885 63.5389 15.0291 63.5501 14.7942 63.3279C14.1861 62.7363 13.7576 62.0474 13.4757 61.3336C13.3319 60.9781 13.2435 60.6059 13.1965 60.2337C13.1495 59.8616 13.1412 59.4866 13.1744 59.1144C13.2075 58.7422 13.2794 58.3756 13.3927 58.0201C13.5116 57.659 13.6775 57.3063 13.8765 56.9702C14.2773 56.2953 14.8356 55.6759 15.5405 55.1482C15.8086 54.9482 16.1652 54.9704 16.3642 55.1954L16.367 55.1926Z" fill="#A6C022"/>
<path d="M9.52536 69.502C9.72714 70.4297 10.0782 71.2824 10.5674 71.9962C11.0705 72.7045 11.6897 73.2933 12.3835 73.7266C13.807 74.5765 15.5263 74.7987 17.2594 74.2488C17.5911 74.1404 17.757 73.821 17.6685 73.4877C17.428 72.6156 17.0466 71.8601 16.5546 71.2185C16.0847 70.563 15.4959 70.027 14.8187 69.6187C13.4836 68.791 11.8113 68.4383 9.99526 68.7743C9.65251 68.8382 9.44796 69.1493 9.52536 69.502Z" fill="#A6C022"/>
<path d="M20.3555 63.4581C20.9857 63.9803 21.4418 64.5885 21.7624 65.2385C22.0969 65.8801 22.2738 66.58 22.3014 67.3132C22.3843 68.7548 21.8813 70.3351 20.7618 71.7711C20.5517 72.0405 20.1813 72.11 19.9215 71.91C19.2305 71.3906 18.6804 70.7684 18.2962 70.0852C17.9313 69.388 17.7212 68.6381 17.677 67.8798C17.6079 66.3522 18.2381 64.7913 19.5096 63.5275C19.7529 63.2859 20.115 63.2581 20.3555 63.4581Z" fill="#A6C022"/>
<path d="M15.0423 78.751C15.3768 79.712 15.8992 80.5369 16.5101 81.2285C17.132 81.9145 17.8866 82.4284 18.6827 82.7839C19.4733 83.1449 20.3633 83.2921 21.2423 83.2699C22.1241 83.2449 23.0169 83.0283 23.8848 82.6089C24.2138 82.4506 24.3492 82.0756 24.2027 81.7451C23.8213 80.8619 23.2905 80.1397 22.6935 79.5259C22.0992 78.9093 21.3943 78.4399 20.6259 78.1066C19.1167 77.4205 17.2702 77.3206 15.4404 77.9094C15.0893 78.0233 14.918 78.3843 15.0423 78.751Z" fill="#A6C022"/>
<path d="M25.5574 70.8244C26.2816 71.2882 26.8703 71.8354 27.2905 72.477C27.7189 73.1102 28.023 73.8018 28.1557 74.5656C28.2856 75.3322 28.3049 76.121 28.1446 76.9543C27.9898 77.782 27.6747 78.6374 27.191 79.479C27.0085 79.7984 26.6409 79.9151 26.3341 79.7484C25.5352 79.3068 24.847 78.7485 24.3577 78.0764C23.8685 77.4014 23.5285 76.6515 23.3792 75.86C23.1 74.2518 23.5036 72.552 24.6894 71.016C24.9106 70.7272 25.2865 70.6438 25.5574 70.8244Z" fill="#A6C022"/>
<path d="M28.6642 84.6033C28.5481 84.6033 28.4348 84.5617 28.3435 84.4756C26.7597 82.9868 25.2366 81.412 25.2201 81.3981C15.2222 70.7548 8.69325 57.4701 6.32991 42.9744C4.2955 30.4979 5.50619 17.6687 9.82655 5.87274C9.915 5.62832 10.1887 5.50333 10.4319 5.59221C10.6751 5.68387 10.8023 5.95329 10.7111 6.20048C6.446 17.8409 5.25466 30.5062 7.26142 42.8216C9.59436 57.1284 16.0376 70.2409 25.9 80.7426C25.9111 80.7537 27.4175 82.3119 28.9848 83.784C29.1755 83.9617 29.1838 84.2617 29.0069 84.4533C28.913 84.5533 28.7886 84.6033 28.6614 84.6033H28.6642Z" fill="#A6C022"/>
<path d="M199.733 3.29272C198.658 5.72024 199.562 8.07555 201.898 9.24765C202.122 9.35597 202.384 9.27542 202.503 9.056C203.802 6.71736 202.768 4.00931 200.319 3.0483C200.087 2.95664 199.836 3.06219 199.733 3.29272Z" fill="#A6C022"/>
<path d="M198.694 13.3337C198.65 13.9447 198.694 14.5224 198.871 15.0418C199.042 15.5612 199.324 16.0306 199.675 16.4389C200.383 17.2527 201.497 17.811 202.81 17.9582C203.061 17.986 203.28 17.8249 203.318 17.5832C203.404 16.9472 203.352 16.3361 203.194 15.7779C203.114 15.5001 203.012 15.2335 202.873 14.9835C202.732 14.7363 202.567 14.5058 202.376 14.2975C201.621 13.4559 200.513 12.9448 199.169 12.9309C198.915 12.9282 198.713 13.1004 198.694 13.3337Z" fill="#A6C022"/>
<path d="M207.5 10.9366C207.882 11.5115 208.1 12.1337 208.214 12.7503C208.324 13.3669 208.313 13.9807 208.155 14.564C207.851 15.7305 207.102 16.736 205.908 17.372C205.684 17.4915 205.422 17.4165 205.303 17.1998C204.974 16.6277 204.767 16.0388 204.684 15.45C204.642 15.1556 204.634 14.8612 204.648 14.5723C204.656 14.2835 204.698 13.9974 204.764 13.7169C205.038 12.5948 205.764 11.5449 206.873 10.8033C207.086 10.6616 207.354 10.72 207.5 10.9366Z" fill="#A6C022"/>
<path d="M199.518 21.2821C199.36 21.9848 199.377 22.6486 199.49 23.2763C199.603 23.9012 199.852 24.4845 200.22 25.0039C200.936 26.0455 202.105 26.862 203.642 27.237C203.932 27.3092 204.208 27.1564 204.283 26.8787C204.479 26.151 204.529 25.4316 204.424 24.7567C204.305 24.0846 204.051 23.4568 203.68 22.9152C202.929 21.8265 201.668 21.0849 200.128 20.8821C199.835 20.8432 199.57 21.0182 199.512 21.2821H199.518Z" fill="#A6C022"/>
<path d="M210.137 19.7074C210.486 20.4434 210.699 21.2044 210.729 21.9488C210.759 22.6932 210.643 23.4181 210.397 24.0791C209.88 25.4068 208.813 26.4761 207.348 27.0316C207.069 27.1371 206.773 27.0094 206.66 26.7344C206.362 26.0122 206.226 25.2929 206.218 24.593C206.193 23.8958 206.312 23.2153 206.561 22.5765C207.047 21.3016 208.004 20.1795 209.427 19.4574C209.695 19.3213 209.999 19.4268 210.135 19.7074H210.137Z" fill="#A6C022"/>
<path d="M200.059 29.8483C199.556 31.237 199.689 32.5757 200.272 33.7395C200.891 34.9005 201.956 35.8893 203.47 36.4781C203.758 36.5892 204.062 36.4698 204.178 36.2004C204.333 35.8421 204.446 35.481 204.521 35.1227C204.59 34.7616 204.609 34.4033 204.601 34.0534C204.571 33.3507 204.424 32.6757 204.095 32.0702C203.448 30.8565 202.309 29.9316 200.731 29.5205C200.435 29.4427 200.142 29.5844 200.057 29.8483H200.059Z" fill="#A6C022"/>
<path d="M211.122 29.6508C211.642 31.2534 211.509 32.8755 210.799 34.1642C210.121 35.4558 208.864 36.4057 207.288 36.7751C206.987 36.8445 206.705 36.6751 206.63 36.3779C206.531 35.989 206.47 35.6057 206.448 35.2308C206.42 34.8558 206.417 34.4864 206.456 34.1281C206.525 33.4115 206.766 32.7338 207.084 32.1117C207.725 30.8729 208.905 29.8508 210.425 29.3008C210.716 29.1953 211.017 29.3453 211.122 29.6508Z" fill="#A6C022"/>
<path d="M199.554 38.4444C199.388 38.7805 199.261 39.1166 199.175 39.4527C199.081 39.7887 199.018 40.122 198.995 40.4553C198.943 41.1191 199.07 41.7802 199.283 42.4023C199.717 43.6467 200.726 44.7965 202.16 45.5853C202.434 45.7353 202.76 45.6548 202.918 45.3965C203.305 44.7104 203.537 43.9911 203.614 43.28C203.634 43.1023 203.645 42.9245 203.645 42.7495C203.639 42.5718 203.625 42.3968 203.601 42.2246C203.554 41.8774 203.471 41.5385 203.352 41.2136C202.893 39.9082 201.798 38.8194 200.286 38.2028C199.999 38.0861 199.684 38.1917 199.557 38.4444H199.554Z" fill="#A6C022"/>
<path d="M210.751 39.6863C210.837 40.1085 210.878 40.5279 210.884 40.9361C210.884 41.3444 210.831 41.7416 210.754 42.1249C210.585 42.8915 210.304 43.5997 209.856 44.2025C208.963 45.4107 207.633 46.2161 205.975 46.3828C205.66 46.4133 205.4 46.205 205.367 45.8967C205.251 45.0829 205.295 44.3136 205.475 43.6025C205.519 43.4248 205.574 43.2498 205.635 43.0804C205.693 42.9082 205.757 42.7415 205.828 42.5776C205.975 42.2499 206.152 41.9388 206.359 41.6472C207.208 40.4834 208.468 39.6002 210.096 39.2447C210.406 39.178 210.688 39.3669 210.751 39.6863Z" fill="#A6C022"/>
<path d="M197.975 46.8938C197.104 48.1548 196.897 49.5324 197.176 50.8517C197.494 52.1793 198.312 53.4542 199.675 54.4485C199.935 54.6374 200.272 54.5985 200.46 54.3569C200.709 54.0375 200.922 53.707 201.09 53.3653C201.248 53.0209 201.367 52.6654 201.447 52.3099C201.527 51.9544 201.571 51.5961 201.574 51.2406C201.574 51.0628 201.568 50.885 201.552 50.7101C201.53 50.5323 201.496 50.3573 201.455 50.1851C201.118 48.7964 200.217 47.5687 198.735 46.741C198.456 46.5855 198.127 46.6522 197.972 46.8938H197.975Z" fill="#A6C022"/>
<path d="M209.153 49.5961C209.255 51.346 208.705 52.9513 207.646 54.0596C206.624 55.1817 205.117 55.8066 203.431 55.7594C203.111 55.751 202.873 55.5039 202.873 55.1872C202.876 54.7706 202.92 54.3706 202.994 53.9873C203.058 53.6013 203.158 53.2319 203.29 52.8819C203.423 52.5319 203.589 52.2014 203.785 51.8903C203.884 51.7348 203.99 51.5848 204.103 51.4404C204.211 51.2932 204.324 51.1543 204.448 51.0182C205.416 49.9406 206.873 49.224 208.542 49.0656C208.863 49.0379 209.125 49.2656 209.153 49.5989V49.5961Z" fill="#A6C022"/>
<path d="M195.07 55.1898C194.539 55.787 194.185 56.4424 193.945 57.109C193.71 57.7784 193.655 58.4922 193.71 59.1977C193.818 60.6031 194.547 62.0807 195.805 63.3028C196.048 63.5361 196.408 63.5472 196.643 63.325C197.251 62.7334 197.679 62.0446 197.964 61.3308C198.108 60.9753 198.196 60.6031 198.24 60.2309C198.287 59.8587 198.296 59.4838 198.263 59.1116C198.229 58.7394 198.157 58.3728 198.044 58.0173C197.925 57.6562 197.759 57.3035 197.56 56.9674C197.16 56.2925 196.601 55.6731 195.896 55.1454C195.628 54.9454 195.274 54.9676 195.073 55.1926L195.07 55.1898Z" fill="#A6C022"/>
<path d="M206.378 59.5669C206.317 60.4946 206.101 61.3695 205.706 62.1194C205.316 62.8749 204.819 63.5359 204.189 64.0414C202.92 65.0552 201.311 65.519 199.537 65.2135C199.202 65.158 198.989 64.8635 199.042 64.5358C199.166 63.6637 199.415 62.8693 199.805 62.1833C200.004 61.8416 200.217 61.5167 200.457 61.2139C200.7 60.914 200.971 60.6418 201.27 60.3946C201.568 60.1502 201.892 59.9307 202.24 59.7446C202.58 59.5558 202.939 59.3919 203.321 59.2641C204.084 59.0086 204.927 58.8836 205.822 58.9225C206.162 58.9364 206.403 59.2114 206.381 59.5641L206.378 59.5669Z" fill="#A6C022"/>
<path d="M191.081 63.4585C190.451 63.9806 189.995 64.5889 189.674 65.2388C189.34 65.8804 189.163 66.5803 189.135 67.3136C189.053 68.7551 189.556 70.3355 190.675 71.7715C190.885 72.0409 191.256 72.1103 191.515 71.9103C192.206 71.391 192.757 70.7688 193.141 70.0855C193.506 69.3884 193.716 68.6385 193.76 67.8802C193.829 66.3526 193.199 64.7916 191.927 63.5279C191.684 63.2863 191.322 63.2585 191.081 63.4585Z" fill="#A6C022"/>
<path d="M201.914 69.5025C201.712 70.4302 201.361 71.2829 200.872 71.9967C200.369 72.705 199.75 73.2938 199.056 73.7271C197.633 74.577 195.913 74.7992 194.18 74.2493C193.849 74.1409 193.683 73.8215 193.771 73.4882C194.012 72.6161 194.393 71.8606 194.885 71.219C195.355 70.5635 195.944 70.0275 196.621 69.6192C197.956 68.7915 199.628 68.4388 201.444 68.7748C201.787 68.8387 201.992 69.1498 201.914 69.5025Z" fill="#A6C022"/>
<path d="M185.88 70.8247C185.155 71.2886 184.567 71.8357 184.146 72.4773C183.718 73.1106 183.414 73.8022 183.281 74.566C183.151 75.3326 183.132 76.1214 183.292 76.9546C183.447 77.7823 183.762 78.6378 184.246 79.4794C184.428 79.7988 184.796 79.9154 185.103 79.7488C185.902 79.3072 186.59 78.7489 187.079 78.0767C187.568 77.4018 187.908 76.6519 188.058 75.8603C188.337 74.2522 187.933 72.5523 186.748 71.0164C186.526 70.7275 186.15 70.6442 185.88 70.8247Z" fill="#A6C022"/>
<path d="M196.397 78.7513C196.062 79.7123 195.54 80.5372 194.929 81.2288C194.307 81.9149 193.553 82.4287 192.756 82.7842C191.966 83.1453 191.076 83.2925 190.197 83.2703C189.315 83.2453 188.422 83.0259 187.554 82.6093C187.225 82.4509 187.09 82.076 187.236 81.7455C187.618 80.8622 188.149 80.1401 188.746 79.5262C189.34 78.9096 190.045 78.4403 190.813 78.107C192.322 77.4209 194.169 77.3209 195.999 77.9098C196.347 78.0236 196.521 78.3847 196.397 78.7513Z" fill="#A6C022"/>
<path d="M182.772 84.6031C182.645 84.6031 182.521 84.5531 182.427 84.4531C182.25 84.2615 182.258 83.9615 182.449 83.7837C184.016 82.3117 185.523 80.7535 185.539 80.7368C195.396 70.2407 201.842 57.1282 204.175 42.8214C206.182 30.506 204.991 17.8407 200.725 6.20025C200.634 5.95583 200.761 5.68364 201.005 5.59198C201.248 5.50033 201.519 5.62809 201.61 5.87251C205.93 17.6685 207.138 30.4977 205.107 42.9742C202.743 57.4698 196.214 70.7546 186.222 81.3923C186.203 81.4118 184.68 82.9866 183.096 84.4753C183.005 84.5614 182.888 84.6031 182.775 84.6031H182.772Z" fill="#A6C022"/>
<path d="M84.7218 9.203H80.3374L78.9794 9.3194L78.7466 8.427L80.3374 8.5434H90.1538L90.697 7.8644H90.9686C91.958 8.621 92.1714 8.7762 92.1714 9.009C92.1714 9.1642 92.0162 9.3 91.5506 9.4552V10.658L91.6476 12.2488L91.4536 12.4428L90.3284 12.4816V11.822H85.9052V13.9754H91.667L92.3266 13.1994H92.5788C93.607 13.9948 93.801 14.1888 93.801 14.4022C93.801 14.5768 93.6458 14.732 93.122 14.8872C92.9668 15.896 92.8504 16.8272 92.4624 17.8554C91.9968 19.097 91.1626 19.485 89.6106 19.5044C89.5912 18.9224 89.3002 18.5538 87.981 18.127L88.078 17.6808C89.1838 17.8942 89.63 17.9718 90.0762 17.9718C90.6776 17.9718 91.0462 17.836 91.2984 17.254C91.6282 16.4586 91.7446 15.6438 91.861 14.635H85.9052V16.7108L85.9828 20.4162L85.7888 20.6102L84.6054 20.649L84.78 15.605C82.7236 17.6226 79.9494 19.2522 76.9036 20.0864L76.6708 19.679C79.3092 18.5926 82.0252 16.8466 83.9652 14.635H78.9406C78.8048 14.9454 78.6884 15.2752 78.5526 15.5662L78.3004 15.7408L77.117 15.605C77.7184 14.344 78.3004 12.792 78.6302 11.6862C78.7466 11.3176 78.8436 10.9296 78.9018 10.5416L79.0182 10.4446C79.445 10.658 79.8912 10.9102 80.3374 11.1624H84.7218V9.203ZM85.9052 9.203V11.1624H90.3284V9.203H85.9052ZM84.7218 11.822H79.9494C79.6972 12.5398 79.4644 13.2576 79.1928 13.9754H84.7218V11.822ZM85.4008 5.4394H81.579C82.4714 6.0408 82.9176 6.584 82.9176 7.1078C82.9176 7.4376 82.7624 7.7674 82.3938 7.7674C82.0446 7.7674 81.9282 7.554 81.7536 6.9914C81.6178 6.5258 81.3462 5.9826 80.9 5.4394H79.3868C78.5526 6.6616 77.602 7.5346 76.3992 8.3882L76.0888 8.039C77.4274 6.7586 78.2034 5.6528 78.863 4.0038C79.0376 3.5576 79.1152 3.1308 79.1346 2.7622L79.2704 2.704C80.6672 3.189 81.1522 3.48 81.1522 3.7322C81.1522 3.9262 80.8806 4.0232 80.221 4.0232C80.0852 4.2948 79.9494 4.547 79.7942 4.7798H83.0534L83.8876 3.7516H84.1592L85.4008 4.9738V5.4394ZM94.1502 5.4394H88.9704C90.0374 6.1184 90.5224 6.7198 90.5224 7.263C90.5224 7.7286 90.3284 7.9808 89.9792 7.9808C89.63 7.9808 89.4554 7.748 89.2808 7.1854C89.1062 6.584 88.7958 6.0214 88.2332 5.4394H86.9916C86.3708 6.3706 85.6918 7.1078 84.6248 7.9226L84.2756 7.6122C85.3232 6.5452 85.9634 5.517 86.526 4.062C86.72 3.577 86.7976 3.189 86.817 2.7622L86.9528 2.704C88.3496 3.189 88.7764 3.4412 88.7764 3.6934C88.7764 3.8874 88.5242 3.9844 87.8646 3.9844C87.7094 4.2754 87.5542 4.5276 87.4184 4.7798H91.6476L92.5206 3.6546H92.7922L94.1502 4.9738V5.4394ZM96.6722 8.4464V6.7586C96.6722 6.1572 96.8274 5.9632 97.1766 5.7692C98.0108 5.3036 99.1748 4.9932 100.378 4.9932C102.647 4.9932 103.947 6.293 103.947 8.136C103.947 9.6104 103.074 11.143 100.979 11.6086V11.6862C103.132 11.8996 104.471 13.0636 104.471 15.12C104.471 17.4286 102.57 19.1164 99.6598 19.1164C98.457 19.1164 97.3706 18.8642 96.614 18.4956C96.3036 18.3404 96.2066 18.0494 96.2066 17.6614V15.5856H96.9438L97.1572 16.8272C97.2348 17.3704 97.3318 17.545 97.7974 17.7972C98.3212 18.0882 99.0002 18.2822 99.7956 18.2822C101.755 18.2822 102.706 17.1376 102.706 15.4692C102.706 13.6456 101.58 12.5592 99.0584 12.5592H98.1854L98.5734 11.3564H98.845C101.037 11.3564 102.259 10.3864 102.259 8.3688C102.259 6.8362 101.27 5.8662 99.7374 5.8662C99.1942 5.8662 98.651 5.9826 98.1854 6.2348C97.9332 6.3706 97.875 6.487 97.7392 6.972L97.4288 8.4464H96.6722ZM113.163 6.5064H108.934C108.255 6.5064 108.08 6.6034 107.77 7.4764L107.343 8.6404H106.742L107.265 5.6916C107.343 5.2454 107.498 5.129 107.944 5.129H115.219V5.4006C115.219 5.8274 115.122 6.1378 114.773 6.7392C114.036 8.039 113.279 9.4358 112.115 11.8802C110.971 14.2858 110.311 16.478 110.098 19H108.391C108.391 17.9718 109.302 15.6632 110.466 13.3158C111.572 11.0848 112.581 9.0866 113.493 7.36C113.59 7.166 113.667 6.9914 113.667 6.7974C113.667 6.5452 113.512 6.5064 113.163 6.5064ZM127.947 14.4604H123.368V15.4498L123.174 15.6438L122.068 15.6826L122.165 12.1906V9.6298C122.165 8.7568 122.088 8.2718 121.874 7.6898L121.991 7.5734C122.612 7.845 123.116 8.1166 123.659 8.427H127.714L128.335 7.6704H128.606C129.654 8.4658 129.867 8.6598 129.867 8.8926C129.867 9.0866 129.654 9.2224 129.169 9.4164V12.016L129.266 15.2558L129.072 15.4498L127.947 15.4886V14.4604ZM127.947 13.8008V9.0866H123.368V13.8008H127.947ZM119.585 4.1784H131.865L132.506 3.4024H132.777C133.941 4.2366 134.155 4.4112 134.155 4.644C134.155 4.838 133.961 4.9738 133.379 5.1678V15.1588L133.495 19.9118L133.301 20.1058L132.118 20.1446V19.0776H119.275V20.0088L119.081 20.2028L117.917 20.2416L118.033 15.217V5.3812C118.033 4.5858 117.956 4.062 117.762 3.4218L117.878 3.3054C118.499 3.5964 119.023 3.8486 119.585 4.1784ZM119.275 4.838V18.418H132.118V4.838H119.275ZM49.5735 50.0957H26.6658L24.7477 50.2602L24.4189 48.9997L26.6658 49.1641H45.6003L47.1073 47.2734H47.491L49.5735 49.4381V50.0957ZM47.2992 32.8328H28.7209L26.8028 32.9972L26.474 31.7367L28.7209 31.9011H43.4629L44.9152 30.0926H45.2988L47.2992 32.1751V32.8328ZM45.4907 40.9984H30.3376L28.4195 41.1629L28.0907 39.9024L30.3376 40.0668H41.6544L43.1067 38.2583H43.4903L45.4907 40.3408V40.9984ZM69.1382 37.5458H57.6843V39.7928H72.7278L73.9334 38.2583H74.3171L76.0708 40.0668V40.7244H57.6843V42.9714H72.947L73.8786 41.9849H74.2349C75.6049 42.9714 75.9338 43.3002 75.9338 43.6016C75.9338 43.8482 75.6323 44.04 75.0021 44.2866C74.8103 47.3008 74.5363 49.3285 73.906 51.0274C73.3032 52.6441 72.3716 53.4661 69.6862 53.4935C69.6314 52.6441 69.4122 52.3701 67.7407 51.8494L67.8777 51.2192C68.9738 51.3836 69.7136 51.4658 70.426 51.4658C71.3029 51.4658 71.9331 51.1644 72.2894 50.2328C72.81 48.8627 73.1114 46.698 73.2484 43.7934H57.6843V44.725L57.4103 44.9991L55.8484 45.0539L55.958 39.3544V32.1203C55.958 30.8873 55.8484 30.2022 55.547 29.3802L55.7114 29.2158C56.5883 29.5994 57.3281 29.983 58.1228 30.4215H62.3426C62.4522 30.0378 62.507 29.6816 62.5618 29.2158C62.6166 28.8322 62.6714 28.3115 62.6714 27.8183L62.8084 27.7087C64.8087 28.2567 65.5212 28.613 65.5212 28.9692C65.5212 29.2706 65.3294 29.3802 64.3155 29.3802C64.0415 29.7364 63.7401 30.0652 63.4113 30.4215H68.8094L69.6862 29.4624H70.0698C71.4399 30.4215 71.7687 30.6955 71.7687 31.0243C71.7687 31.2983 71.5495 31.4627 70.8645 31.7367V33.9288L70.9193 38.3405L70.6453 38.6145L69.1382 38.6693V37.5458ZM69.1382 36.6142V34.3673H57.6843V36.6142H69.1382ZM69.1382 33.4356V31.3531H57.6843V33.4356H69.1382ZM66.9735 49.9861H55.41V51.3562L55.1634 51.6028L53.6563 51.6576L53.7659 48.6983V47.6296C53.7659 46.8898 53.7111 46.4239 53.4919 45.7937L53.6289 45.6293C56.0402 46.0677 56.4513 46.2047 56.4513 46.5336C56.4513 46.835 56.2595 46.9994 55.41 47.2186V49.0545H60.2875V46.7254C60.2875 45.7389 60.2053 45.2457 59.9587 44.6428L60.0957 44.4784C62.507 44.8073 63.0276 44.9717 63.0276 45.3005C63.0276 45.5745 62.781 45.7115 61.9316 45.9307V49.0545H66.9735V47.6296C66.9735 46.8898 66.9186 46.3965 66.6994 45.7663L66.8364 45.6019C69.2204 46.0403 69.6588 46.2321 69.6588 46.5336C69.6588 46.835 69.467 46.972 68.6175 47.1912V48.068L68.7272 50.5068L68.4805 50.7534L66.9735 50.8082V49.9861ZM83.8254 35.0797H90.7854V30.8873C90.7854 30.12 90.6484 29.2706 90.347 28.613L90.484 28.4485C93.3611 28.9144 93.8544 29.0788 93.8544 29.5446C93.8544 29.846 93.6077 29.983 92.5391 30.257V35.0797H99.9649L100.869 33.9837H101.253C102.897 35.1619 103.171 35.4085 103.171 35.7373C103.171 36.0114 102.897 36.2032 102.075 36.4772V45.0813L102.239 52.4249L101.965 52.6989L100.321 52.7537V51H83.387V52.5619L83.113 52.8359L81.4963 52.8907L81.6607 45.1635V36.7786C81.6607 35.6551 81.5511 34.9153 81.277 34.0111L81.4415 33.8466C82.3183 34.2577 83.0581 34.6139 83.8254 35.0797ZM92.5391 43.1632V50.0683H100.321V43.1632H92.5391ZM90.7854 43.1632H83.387V50.0683H90.7854V43.1632ZM83.387 42.2315H90.7854V36.0114H83.387V42.2315ZM92.5391 42.2315H100.321V36.0114H92.5391V42.2315ZM114.57 31.1613L114.762 31.0791C116.625 31.9011 117.365 32.4766 117.365 32.8054C117.365 33.1068 117.146 33.2438 116.077 33.189C114.296 35.8196 112.789 37.7651 110.98 39.6832C112.46 39.601 113.912 39.5188 115.392 39.4092C115.063 38.7515 114.707 38.2035 114.186 37.6829L114.652 37.217C117.31 38.6693 117.748 40.149 117.748 40.8614C117.748 41.6013 117.365 41.9301 117.009 41.9301C116.625 41.9301 116.296 41.8753 116.022 41.0258C115.913 40.697 115.803 40.3956 115.693 40.0942C114.817 40.286 113.967 40.4504 113.09 40.6148V48.1228L113.2 53.0551L112.926 53.3291L111.282 53.3839L111.446 48.1228V40.8888C110.569 41.0532 109.72 41.1903 108.843 41.3273C108.761 42.1493 108.624 42.2863 108.405 42.2863C108.048 42.2863 107.692 41.6561 107.034 39.9572L107.144 39.7654C107.884 39.7928 108.569 39.7928 109.364 39.7654C109.555 39.7654 109.775 39.738 109.994 39.738C111.556 37.4088 112.624 35.4907 113.83 33.2164C114.131 32.641 114.46 31.8463 114.57 31.1613ZM128.051 38.9981H120.845V48.1502C120.845 50.4246 121.283 50.8082 124.9 50.8082C128.627 50.8082 129.312 50.4794 129.723 49.9313C130.134 49.3833 130.298 48.2598 130.682 45.7389L131.34 45.8211C131.285 48.205 131.285 49.3285 131.285 49.9039C131.285 50.2328 131.422 50.3424 131.723 50.5068C132.079 50.6986 132.271 50.8904 132.271 51.2192C132.271 51.6302 131.915 51.9043 131.449 52.0413C130.792 52.2331 129.449 52.5071 124.982 52.5071C119.858 52.5071 119.009 51.822 119.009 48.6435L119.064 45.0813V39.6558C119.064 38.4501 118.954 37.7925 118.625 36.9704L118.79 36.806C119.639 37.1622 120.461 37.5733 121.338 38.0665H128.051V30.7777H120.352L118.434 30.9421L118.105 29.6816L120.352 29.846H127.695L128.572 28.7774H128.956C130.49 29.9008 130.846 30.1748 130.846 30.5037C130.846 30.7777 130.6 30.9695 129.86 31.2435V35.847L129.997 40.5052L129.723 40.7792L128.051 40.834V38.9981ZM107.144 32.6958L107.473 32.1203C108.268 32.3944 108.953 32.6958 109.555 33.0246C110.213 31.8737 110.706 30.8051 111.063 29.7364C111.227 29.298 111.419 28.5581 111.501 28.0101L111.693 27.9279C113.611 28.75 114.405 29.2432 114.405 29.572C114.405 29.9008 114.186 30.0104 112.981 29.9556C111.994 31.4627 111.227 32.4218 110.24 33.4356C111.282 34.0933 111.83 34.8057 111.83 35.3537C111.83 36.0114 111.583 36.4772 110.98 36.4772C110.597 36.4772 110.323 36.3128 109.939 35.5729C109.391 34.6139 108.596 33.6 107.144 32.6958ZM107.802 43.7386L107.994 43.6564C109.912 44.314 110.46 44.588 110.46 44.9717C110.46 45.2731 110.213 45.3827 109.418 45.4923C108.843 47.4652 108.35 49.0271 107.336 50.7808L106.733 50.5342C107.281 48.7805 107.583 46.9446 107.774 45.4375C107.829 45.0265 107.857 44.6702 107.857 44.3688C107.857 44.1496 107.829 43.9578 107.802 43.7386ZM114.104 43.903L114.625 43.5194C116.817 45.2457 117.529 47.1638 117.529 48.3421C117.529 49.1093 117.255 49.5477 116.707 49.5477C116.159 49.5477 115.913 49.3011 115.721 48.1502C115.502 46.8624 115.063 45.2457 114.104 43.903ZM159.591 50.9452L159.399 51.5206C158.467 51.548 157.919 51.9865 157.618 52.7537C156.659 52.3427 155.7 51.9043 154.823 51.3562C152.85 50.1506 151.151 48.5613 149.781 46.7254C148.575 45.1087 147.616 43.3276 146.849 41.4369C146.465 43.1358 145.917 44.4784 145.068 45.9581C143.013 49.5203 138.985 51.8768 134.299 53.0825L133.97 52.5071C138.245 50.9178 141.944 48.3147 143.643 45.0813C144.383 43.6564 144.903 42.2863 145.232 40.6148H136.601L134.683 40.7792L134.354 39.5188L136.601 39.6832H145.397C145.643 37.9569 145.725 36.2306 145.753 34.4769H138.957L137.039 34.6413L136.71 33.3808L138.957 33.5452H145.78V32.3396C145.78 29.7364 145.725 29.024 145.424 28.1745L145.561 28.0101C148.219 28.4759 148.794 28.6952 148.794 29.1336C148.794 29.4898 148.438 29.6542 147.561 29.8734C147.561 31.2161 147.534 32.4492 147.507 33.5452H152.631L153.946 31.9011H154.33L156.193 33.8192V34.4769H147.507C147.452 36.2032 147.397 37.9569 147.15 39.6832H155.261L156.604 37.9843H156.987L158.878 39.9572V40.6148H147.342C149.863 45.5745 153.562 49.3011 159.591 50.9452ZM167.893 48.9997V49.5477L167.619 49.8217L166.03 49.8765L166.167 45.3827V41.6561C166.167 40.423 166.14 39.875 165.838 39.0529L166.003 38.8885C166.825 39.2721 167.537 39.601 168.249 39.9572H179.758L180.662 38.9707H181.046C182.526 40.0942 182.882 40.3682 182.882 40.6148C182.882 40.8888 182.553 41.0806 181.868 41.3547V45.3005L182.005 49.3559L181.731 49.6299L180.114 49.6847V48.9997H167.893ZM167.893 48.068H180.114V46.2595H167.893V48.068ZM167.893 45.3279H180.114V43.5468H167.893V45.3279ZM167.893 42.6151H180.114V40.8888H167.893V42.6151ZM169.592 34.5317H178.278L179.128 33.6274H179.512C180.882 34.5591 181.293 34.8605 181.293 35.1893C181.293 35.4359 181.046 35.6277 180.306 35.8744V36.395L180.361 38.5597L180.087 38.8337L178.58 38.8885V38.3953H169.263V38.6419L168.989 38.9159L167.51 38.9707L167.564 36.806V36.2306C167.564 35.1345 167.51 34.6139 167.318 33.6822L167.482 33.5178C168.332 33.874 168.907 34.1481 169.592 34.5317ZM169.263 35.4633V37.4636H178.58V35.4633H169.263ZM183.293 32.9972H164.715C164.715 35.1345 164.112 36.2032 162.824 36.2032C162.221 36.2032 161.81 35.8196 161.81 35.2167C161.81 34.8057 162.002 34.5865 162.468 34.0933C163.317 33.189 163.728 32.3122 163.783 30.5311L164.441 30.5585C164.578 31.1065 164.632 31.5997 164.687 32.0655H169.017C168.852 31.9011 168.688 31.6545 168.523 31.2709C168.085 30.3941 167.592 29.709 166.523 28.9144L166.934 28.3937C169.373 29.1884 170.387 30.2022 170.387 31.3257C170.387 31.7093 170.277 31.9285 170.113 32.0655H173.072V30.1748C173.072 29.1336 172.963 28.5856 172.634 27.9279L172.771 27.7635C175.593 28.2019 176.004 28.3663 176.004 28.8048C176.004 29.1336 175.758 29.2706 174.744 29.5172V32.0655H177.456C178.059 31.1613 178.415 30.4763 178.662 29.9556C179.018 29.1884 179.128 28.8596 179.183 28.3663L179.375 28.2841C181.101 29.024 181.868 29.4624 181.868 29.7638C181.868 30.1474 181.621 30.2296 180.608 30.1474C180.005 30.7777 179.402 31.3531 178.552 32.0655H183.074L184.088 30.9147H184.471C186.143 32.3122 186.526 32.7506 186.526 33.0794C186.526 33.463 186.225 33.5452 185.047 33.7096C184.416 34.3947 183.622 35.1619 182.663 35.9018L182.142 35.4907C182.69 34.5865 182.964 33.9562 183.293 32.9972ZM169.51 49.4107L169.729 49.3559C171.565 50.3424 171.866 50.5616 171.866 50.863C171.866 51.0822 171.675 51.2192 171.154 51.2192C170.935 51.2192 170.633 51.1918 170.277 51.137C167.756 52.3427 165.619 52.9181 162.139 53.4387L161.92 52.8085C164.742 52.1235 166.551 51.4658 168.003 50.6164C168.907 50.0957 169.236 49.7669 169.51 49.4107ZM176.306 50.2054L176.552 49.6025C182.06 50.2328 184.252 51.3562 184.252 52.5345C184.252 53.1373 184.005 53.3565 183.485 53.3565C183.046 53.3565 182.608 53.1099 181.923 52.5893C180.745 51.6576 178.963 50.9452 176.306 50.2054ZM103.842 77.224L103.775 77.7168C102.924 77.8288 102.521 78.1872 102.297 78.9488C99.2056 78.2544 96.54 77.1792 94.3224 75.32C91.6344 77.224 88.4312 78.344 84.8024 78.9936L84.6232 78.4784C87.8488 77.6272 90.8728 76.3952 93.3816 74.4688C92.4856 73.5504 91.7016 72.52 91.052 71.4224C90.6488 70.7504 90.3128 70.056 89.9768 69.3392H88.7448L87.1768 69.4736L86.908 68.4432L88.7448 68.5776H97.66L98.4888 67.6144H98.8024C100.214 68.7568 100.37 68.9584 100.37 69.2048C100.37 69.4512 100.079 69.5856 99.2952 69.8096C98.1752 71.7136 96.8536 73.2816 95.3304 74.536C97.6152 76.0144 100.393 76.7984 103.842 77.224ZM97.7272 69.3392H90.716C91.612 70.9968 92.7768 72.5424 94.2552 73.7296C95.644 72.52 96.8088 71.0864 97.7272 69.3392ZM97.5928 65.1056H101.714L102.543 64.1648H102.857C104.223 65.3072 104.537 65.6208 104.537 65.8896C104.537 66.2032 104.29 66.2704 103.327 66.4496C102.678 67.0992 101.916 67.816 101.065 68.4208L100.639 68.0848C101.154 67.3232 101.535 66.7184 101.894 65.8672H86.4824C86.4824 67.6144 85.9896 68.712 84.9368 68.712C84.444 68.712 84.0856 68.376 84.0856 67.928C84.0856 67.5472 84.2424 67.368 84.8248 66.7856C85.4968 66.0912 85.6312 65.2624 85.7208 63.8512L86.2584 63.8736C86.3704 64.3216 86.4152 64.7248 86.46 65.1056H96.764C97.4808 63.9856 97.9512 63.0672 98.2424 62.3728C98.4888 61.7904 98.6008 61.432 98.6232 61.0064L98.78 60.9392C100.706 61.9472 100.953 62.1488 100.953 62.4176C100.953 62.7088 100.796 62.7984 99.788 62.7088C99.1832 63.4704 98.444 64.3216 97.5928 65.1056ZM87.916 61.8128L88.2744 61.4096C89.9096 62.3056 90.5144 63.1344 90.5144 63.896C90.5144 64.4112 90.268 64.7472 89.82 64.7472C89.4168 64.7472 89.2152 64.456 89.0808 63.9408C88.9016 63.2688 88.588 62.552 87.916 61.8128ZM92.5528 61.3872L92.9784 61.0736C94.636 61.992 95.3528 62.9552 95.3528 63.7616C95.3528 64.4336 94.9944 64.7472 94.6136 64.7472C94.2328 64.7472 94.0088 64.5232 93.8744 63.9184C93.6504 63.0672 93.3592 62.328 92.5528 61.3872ZM86.4152 61.1184L86.3704 60.5808C90.2904 60.2448 93.852 59.7072 96.4728 59.0576C97.5032 58.8112 98.1304 58.6096 98.7352 58.2736H98.892C100.617 59.3488 100.975 59.6176 100.975 59.9088C100.975 60.1104 100.818 60.2224 100.572 60.2224C100.303 60.2224 99.9896 60.1552 99.0936 59.9536C94.5016 60.76 90.716 61.0736 86.4152 61.1184ZM111.705 75.3648V75.8128L111.481 76.0368L110.182 76.0816L110.294 72.408V69.3616C110.294 68.3536 110.271 67.9056 110.025 67.2336L110.159 67.0992C110.831 67.4128 111.414 67.6816 111.996 67.9728H121.404L122.143 67.1664H122.457C123.666 68.0848 123.958 68.3088 123.958 68.5104C123.958 68.7344 123.689 68.8912 123.129 69.1152V72.3408L123.241 75.656L123.017 75.88L121.695 75.9248V75.3648H111.705ZM111.705 74.6032H121.695V73.1248H111.705V74.6032ZM111.705 72.3632H121.695V70.9072H111.705V72.3632ZM111.705 70.1456H121.695V68.7344H111.705V70.1456ZM113.094 63.5376H120.194L120.889 62.7984H121.202C122.322 63.56 122.658 63.8064 122.658 64.0752C122.658 64.2768 122.457 64.4336 121.852 64.6352V65.0608L121.897 66.8304L121.673 67.0544L120.441 67.0992V66.696H112.825V66.8976L112.601 67.1216L111.391 67.1664L111.436 65.3968V64.9264C111.436 64.0304 111.391 63.6048 111.234 62.8432L111.369 62.7088C112.063 63 112.534 63.224 113.094 63.5376ZM112.825 64.2992V65.9344H120.441V64.2992H112.825ZM124.294 62.2832H109.106C109.106 64.0304 108.614 64.904 107.561 64.904C107.068 64.904 106.732 64.5904 106.732 64.0976C106.732 63.7616 106.889 63.5824 107.27 63.1792C107.964 62.44 108.3 61.7232 108.345 60.2672L108.882 60.2896C108.994 60.7376 109.039 61.1408 109.084 61.5216H112.623C112.489 61.3872 112.354 61.1856 112.22 60.872C111.862 60.1552 111.458 59.5952 110.585 58.9456L110.921 58.52C112.914 59.1696 113.743 59.9984 113.743 60.9168C113.743 61.2304 113.654 61.4096 113.519 61.5216H115.938V59.976C115.938 59.1248 115.849 58.6768 115.58 58.1392L115.692 58.0048C117.999 58.3632 118.335 58.4976 118.335 58.856C118.335 59.1248 118.134 59.2368 117.305 59.4384V61.5216H119.522C120.015 60.7824 120.306 60.2224 120.508 59.7968C120.799 59.1696 120.889 58.9008 120.934 58.4976L121.09 58.4304C122.502 59.0352 123.129 59.3936 123.129 59.64C123.129 59.9536 122.927 60.0208 122.098 59.9536C121.606 60.4688 121.113 60.9392 120.418 61.5216H124.114L124.943 60.5808H125.257C126.623 61.7232 126.937 62.0816 126.937 62.3504C126.937 62.664 126.69 62.7312 125.727 62.8656C125.212 63.4256 124.562 64.0528 123.778 64.6576L123.353 64.3216C123.801 63.5824 124.025 63.0672 124.294 62.2832ZM113.026 75.7008L113.206 75.656C114.706 76.4624 114.953 76.6416 114.953 76.888C114.953 77.0672 114.796 77.1792 114.37 77.1792C114.191 77.1792 113.945 77.1568 113.654 77.112C111.593 78.0976 109.846 78.568 107.001 78.9936L106.822 78.4784C109.129 77.9184 110.607 77.3808 111.794 76.6864C112.534 76.2608 112.802 75.992 113.026 75.7008ZM118.582 76.3504L118.783 75.8576C123.286 76.3728 125.078 77.2912 125.078 78.2544C125.078 78.7472 124.876 78.9264 124.45 78.9264C124.092 78.9264 123.734 78.7248 123.174 78.2992C122.21 77.5376 120.754 76.9552 118.582 76.3504Z" fill="white"/>
</svg>
