<svg width="75" height="18" viewBox="0 0 75 18" fill="none" xmlns="http://www.w3.org/2000/svg">
<path d="M2.764 10.906L2.818 9.466V4.912C2.254 5.548 1.642 6.178 0.982001 6.802C0.886001 6.862 0.802001 6.892 0.730001 6.892C0.562001 6.892 0.478001 6.802 0.478001 6.622C0.478001 6.43 0.532001 6.28 0.640001 6.172C2.344 4.336 3.484 2.5 4.06 0.663999C5.296 0.951999 5.902 1.252 5.878 1.564L5.176 1.87C4.912 2.278 4.624 2.686 4.312 3.094H7.984C8.416 2.41 8.71 1.636 8.866 0.772C9.874 1.012 10.51 1.3 10.774 1.636C10.57 1.804 10.306 1.9 9.982 1.924C9.682 2.272 9.358 2.662 9.01 3.094H12.25L13.186 2.212C14.086 2.944 14.536 3.34 14.536 3.4C14.536 3.556 14.398 3.634 14.122 3.634H9.28V5.236H11.89L12.916 4.354C13.756 5.086 14.176 5.482 14.176 5.542C14.176 5.698 14.038 5.776 13.762 5.776H9.28V7.396H11.89L12.826 6.514C13.726 7.246 14.176 7.642 14.176 7.702C14.176 7.858 14.038 7.936 13.762 7.936H9.28V9.628H12.79L13.726 8.746C14.626 9.478 15.076 9.874 15.076 9.934C15.076 10.09 14.938 10.168 14.662 10.168H4.222C4.246 10.492 4.258 10.708 4.258 10.816C4.258 11.116 3.868 11.266 3.088 11.266C2.872 11.266 2.764 11.146 2.764 10.906ZM7.948 3.634H4.168V5.236H7.948V3.634ZM7.948 5.776H4.168V7.396H7.948V5.776ZM7.948 7.936H4.168V9.358C4.168 9.442 4.174 9.532 4.186 9.628H7.948V7.936ZM8.938 15.19C8.998 15.982 9.028 16.48 9.028 16.684C9.028 16.996 8.596 17.152 7.732 17.152C7.528 17.152 7.408 17.008 7.372 16.72L7.462 15.19V13.246C5.47 14.794 3.112 15.976 0.388001 16.792C0.136001 16.852 0.0100008 16.828 0.0100008 16.72C0.0100008 16.492 0.148001 16.318 0.424001 16.198C2.62 15.238 4.636 13.936 6.472 12.292H2.35C1.99 12.304 1.702 12.352 1.486 12.436C1.282 12.52 1.156 12.562 1.108 12.562L0.244001 11.716C0.208001 11.68 0.190001 11.632 0.190001 11.572C0.190001 11.512 0.238001 11.494 0.334001 11.518C1.03 11.638 1.87 11.704 2.854 11.716H7.462V11.302L7.372 10.402C7.396 10.366 7.426 10.348 7.462 10.348H7.552C8.704 10.42 9.346 10.558 9.478 10.762L8.92 11.356V11.716H13.888L14.95 10.654C15.85 11.578 16.3 12.082 16.3 12.166C16.3 12.25 16.162 12.292 15.886 12.292L9.334 12.31C11.554 13.87 13.906 14.926 16.39 15.478L15.238 17.008C12.85 16.012 10.75 14.596 8.938 12.76V15.19ZM34.984 2.752H38.962V1.492L38.872 0.7V0.682C38.872 0.609999 38.92 0.573999 39.016 0.573999C39.124 0.573999 39.472 0.615999 40.06 0.7C40.648 0.783999 40.942 0.873999 40.942 0.969999L40.402 1.546V2.752H42.688C42.928 2.476 43.252 2.134 43.66 1.726C44.62 2.434 45.1 2.884 45.1 3.076C45.1 3.196 45.028 3.262 44.884 3.274H40.402V4.318L40.51 5.254C40.474 5.494 40.048 5.614 39.232 5.614C39.028 5.614 38.908 5.476 38.872 5.2L38.962 4.318V3.274H34.984V4.318L35.092 5.254C35.056 5.494 34.63 5.614 33.814 5.614C33.61 5.614 33.49 5.476 33.454 5.2L33.544 4.318V3.274H30.682C30.298 3.274 29.854 3.334 29.35 3.454L28.54 2.662C28.66 2.722 29.254 2.752 30.322 2.752H33.544V1.492L33.454 0.7V0.682C33.454 0.609999 33.502 0.573999 33.598 0.573999C33.706 0.573999 34.054 0.615999 34.642 0.7C35.23 0.783999 35.524 0.873999 35.524 0.969999L34.984 1.546V2.752ZM36.244 7.468H33.22V10.996H35.938C36.106 10.324 36.208 9.148 36.244 7.468ZM45.19 15.55C44.686 16.138 44.338 16.672 44.146 17.152C41.206 16.444 38.86 14.674 37.108 11.842C36.232 14.206 33.928 15.964 30.196 17.116C30.04 17.164 29.89 17.188 29.746 17.188C29.614 17.188 29.506 17.152 29.422 17.08C29.35 17.02 29.314 16.96 29.314 16.9C29.314 16.852 29.338 16.792 29.386 16.72C32.734 15.736 34.858 14.008 35.758 11.536H30.502C30.178 11.548 29.884 11.602 29.62 11.698L29.278 11.824L28.36 10.942L28.486 10.798C29.218 10.918 29.878 10.984 30.466 10.996H31.78V7.198L31.69 6.388C31.678 6.316 31.702 6.28 31.762 6.28C31.834 6.28 32.11 6.388 32.59 6.604C33.07 6.82 33.4 6.958 33.58 7.018H36.244C36.256 6.55 36.262 6.076 36.262 5.596C36.262 5.104 36.244 4.786 36.208 4.642C36.172 4.498 36.16 4.408 36.172 4.372C36.196 4.324 36.256 4.3 36.352 4.3C36.448 4.3 36.808 4.348 37.432 4.444C38.056 4.528 38.368 4.618 38.368 4.714L37.72 5.308C37.72 5.656 37.714 6.226 37.702 7.018H40.348C40.504 6.946 40.708 6.772 40.96 6.496C41.212 6.208 41.368 6.064 41.428 6.064C41.5 6.064 41.788 6.256 42.292 6.64C42.808 7.024 43.066 7.318 43.066 7.522C43.066 7.582 42.94 7.702 42.688 7.882C42.436 8.062 42.31 8.206 42.31 8.314V10.996H43.354L44.308 9.826C44.86 10.258 45.334 10.768 45.73 11.356C45.706 11.476 45.574 11.536 45.334 11.536H37.756C39.7 13.9 42.178 15.238 45.19 15.55ZM40.87 7.864C40.87 7.696 40.834 7.564 40.762 7.468H37.684C37.624 9.052 37.504 10.228 37.324 10.996H40.87V7.864ZM58.816 4.984L57.736 5.11C57.736 4.918 57.658 4.594 57.502 4.138C57.526 4.162 57.724 4.204 58.096 4.264C58.48 4.324 59.362 4.36 60.742 4.372V2.122L60.652 1.312C60.64 1.228 60.7 1.186 60.832 1.186C60.964 1.186 61.312 1.234 61.876 1.33C62.452 1.414 62.74 1.504 62.74 1.6C62.74 1.66 62.644 1.744 62.452 1.852C62.272 1.948 62.182 2.056 62.182 2.176V4.354C62.446 4.354 62.722 4.354 63.01 4.354L63.946 3.562C64.846 4.042 65.296 4.402 65.296 4.642C65.308 4.906 65.17 5.056 64.882 5.092C64.786 5.104 64.684 5.23 64.576 5.47C64.168 6.406 63.34 7.492 62.092 8.728V8.998C62.152 9.022 62.212 9.046 62.272 9.07L62.83 9.322C63.91 9.754 64.588 10.21 64.864 10.69C65.14 11.158 65.278 11.482 65.278 11.662C65.278 12.334 65.038 12.67 64.558 12.67C64.378 12.67 64.216 12.502 64.072 12.166C63.628 11.134 62.968 10.312 62.092 9.7V15.244C62.176 16.048 62.218 16.546 62.218 16.738C62.218 17.014 61.798 17.152 60.958 17.152C60.742 17.152 60.622 17.008 60.598 16.72L60.724 15.244V9.988C59.884 10.72 58.912 11.5 57.808 12.328C57.76 12.364 57.676 12.382 57.556 12.382C57.352 12.382 57.25 12.202 57.25 11.842C57.25 11.794 57.31 11.734 57.43 11.662C60.394 9.238 62.278 7.084 63.082 5.2C63.058 5.104 63.022 5.026 62.974 4.966L58.816 4.984ZM65.152 16.108L64.09 16.234C63.826 15.838 63.694 15.604 63.694 15.532C63.694 15.484 63.736 15.466 63.82 15.478C63.916 15.478 64.156 15.508 64.54 15.568C64.936 15.628 65.458 15.664 66.106 15.676H68.644C68.644 13.108 68.65 10.546 68.662 7.99H65.962L64.9 8.116L64.36 7.504C64.324 7.468 64.306 7.438 64.306 7.414C64.306 7.378 64.336 7.36 64.396 7.36C64.468 7.36 64.69 7.39 65.062 7.45C65.446 7.51 66.094 7.546 67.006 7.558H68.662C68.662 5.734 68.662 3.91 68.662 2.086L68.572 1.294V1.204C68.572 1.18 68.632 1.168 68.752 1.168C68.872 1.168 69.214 1.21 69.778 1.294C70.354 1.378 70.642 1.468 70.642 1.564C70.642 1.624 70.552 1.708 70.372 1.816C70.192 1.912 70.102 2.02 70.102 2.14V7.558H71.236L72.28 6.334C73.312 7.282 73.828 7.768 73.828 7.792C73.828 7.924 73.684 7.99 73.396 7.99H70.102V15.676H71.83C71.842 15.676 71.872 15.664 71.92 15.64L72.892 14.452C73.924 15.34 74.44 15.82 74.44 15.892C74.44 16.036 74.296 16.108 74.008 16.108H65.152Z" fill="black"/>
</svg>
