<svg width="490" height="94" viewBox="0 0 490 94" fill="none" xmlns="http://www.w3.org/2000/svg">
<path d="M201.908 15.2765H194.424L192.106 15.4752L191.709 13.9518L194.424 14.1505H211.181L212.108 12.9915H212.572C214.261 14.283 214.625 14.5479 214.625 14.9453C214.625 15.2102 214.36 15.442 213.565 15.707V17.7602L213.731 20.4757L213.4 20.8068L211.479 20.873V19.7471H203.928V23.423H213.764L214.89 22.0983H215.32C217.075 23.4561 217.407 23.7873 217.407 24.1515C217.407 24.4496 217.142 24.7145 216.248 24.9794C215.983 26.7015 215.784 28.291 215.122 30.0462C214.327 32.1656 212.903 32.8279 210.254 32.861C210.22 31.8675 209.724 31.2383 207.472 30.5098L207.637 29.7481C209.525 30.1124 210.287 30.2449 211.048 30.2449C212.075 30.2449 212.704 30.013 213.135 29.0196C213.698 27.6618 213.896 26.2709 214.095 24.5489H203.928V28.0923L204.061 34.4175L203.73 34.7486L201.71 34.8149L202.008 26.2047C198.497 29.6488 193.762 32.4305 188.563 33.8545L188.165 33.1591C192.669 31.3046 197.305 28.3241 200.617 24.5489H192.04C191.808 25.0788 191.609 25.6417 191.378 26.1385L190.947 26.4365L188.927 26.2047C189.954 24.0522 190.947 21.4029 191.51 19.5153C191.709 18.8861 191.874 18.2238 191.974 17.5615L192.172 17.3959C192.901 17.7602 193.663 18.1907 194.424 18.6212H201.908V15.2765ZM203.928 15.2765V18.6212H211.479V15.2765H203.928ZM201.908 19.7471H193.762C193.331 20.9724 192.934 22.1977 192.47 23.423H201.908V19.7471ZM203.067 8.85197H196.544C198.067 9.87856 198.829 10.8058 198.829 11.6999C198.829 12.2629 198.564 12.8259 197.934 12.8259C197.338 12.8259 197.14 12.4616 196.842 11.5012C196.61 10.7065 196.146 9.77922 195.385 8.85197H192.801C191.378 10.9383 189.755 12.4285 187.702 13.8856L187.172 13.2895C189.457 11.1039 190.781 9.21625 191.907 6.40139C192.205 5.63972 192.338 4.91118 192.371 4.28197L192.603 4.18263C194.987 5.01052 195.815 5.50726 195.815 5.93777C195.815 6.26893 195.351 6.43451 194.225 6.43451C193.994 6.89813 193.762 7.32864 193.497 7.72603H199.06L200.484 5.97089H200.948L203.067 8.05719V8.85197ZM218.003 8.85197H209.161C210.982 10.011 211.81 11.0376 211.81 11.9649C211.81 12.7596 211.479 13.1902 210.883 13.1902C210.287 13.1902 209.989 12.7928 209.691 11.8324C209.393 10.8058 208.863 9.84545 207.902 8.85197H205.783C204.723 10.4415 203.564 11.6999 201.743 13.0908L201.147 12.561C202.935 10.7396 204.028 8.98443 204.988 6.50074C205.319 5.67284 205.452 5.01052 205.485 4.28197L205.717 4.18263C208.101 5.01052 208.83 5.44103 208.83 5.87154C208.83 6.2027 208.399 6.36828 207.273 6.36828C207.008 6.86501 206.743 7.29552 206.511 7.72603H213.731L215.221 5.80531H215.685L218.003 8.05719V8.85197ZM239.561 25.4099H235.952V27.993C235.952 30.2449 236.084 30.4104 237.905 30.6754L239.495 30.8741V32C238.137 31.9007 236.216 31.8344 234.528 31.8344C232.971 31.8344 230.885 31.9007 229.56 32V30.8741L231.282 30.6754C233.17 30.4436 233.269 30.2449 233.269 27.993V25.4099H223.831V23.8535C226.646 18.5549 230.189 12.5278 232.806 8.32212H235.952V23.5554H240.058L239.561 25.4099ZM225.851 23.5554H233.269V10.2428C231.083 13.72 228.136 19.1179 225.851 23.5554ZM247.08 31.2052V30.2117C247.908 30.4436 248.835 30.6091 249.961 30.6091C254.266 30.6091 257.015 27.5625 257.147 20.3432C255.955 21.7009 254.001 22.6944 251.683 22.6944C247.974 22.6944 245.623 20.4094 245.623 16.2037C245.623 11.0376 248.636 8.05719 252.743 8.05719C257.246 8.05719 260.127 10.6402 260.127 18.3894C260.127 27.6949 255.922 32.1656 250.093 32.1656C249.133 32.1656 248.305 32.1325 247.51 31.9338C247.179 31.8344 247.08 31.6357 247.08 31.2052ZM253.107 20.9724C255.061 20.9724 256.352 20.0452 257.114 19.1179C257.147 18.7867 257.147 18.4556 257.147 18.0251C257.147 11.5012 255.524 9.38183 252.478 9.38183C249.828 9.38183 248.537 11.7662 248.537 15.3427C248.537 18.8199 249.928 20.9724 253.107 20.9724ZM285.628 24.2509H277.813V25.9398L277.481 26.2709L275.594 26.3372L275.759 20.3763V16.005C275.759 14.5148 275.627 13.6869 275.263 12.6934L275.461 12.4947C276.521 12.9583 277.382 13.422 278.309 13.9518H285.231L286.29 12.6603H286.754C288.542 14.0181 288.906 14.3492 288.906 14.7466C288.906 15.0778 288.542 15.3096 287.714 15.6407V20.0783L287.88 25.6086L287.549 25.9398L285.628 26.006V24.2509ZM285.628 23.1249V15.0778H277.813V23.1249H285.628ZM271.355 6.69943H292.317L293.41 5.3748H293.874C295.861 6.79878 296.225 7.09683 296.225 7.49422C296.225 7.82538 295.894 8.05719 294.9 8.38835V25.443L295.099 33.5564L294.768 33.8876L292.748 33.9538V32.1325H270.825V33.722L270.494 34.0532L268.507 34.1194L268.706 25.5424V8.75262C268.706 7.39487 268.573 6.50074 268.242 5.40791L268.441 5.20922C269.501 5.70596 270.395 6.13647 271.355 6.69943ZM270.825 7.82538V31.0065H292.748V7.82538H270.825Z" fill="white"/>
<path d="M11.0814 8.03408C8.63237 8.99509 7.59858 11.7031 8.89773 14.0446C9.01659 14.2668 9.27642 14.3473 9.50308 14.2362C11.8388 13.0641 12.7427 10.7088 11.6674 8.2785C11.5651 8.04797 11.3136 7.93965 11.0814 8.03408Z" fill="white"/>
<path d="M3.93625 15.9363C3.5548 16.5112 3.33643 17.1334 3.2231 17.75C3.11254 18.3666 3.12359 18.9804 3.28115 19.5637C3.5852 20.7302 4.33429 21.7357 5.5284 22.3745C5.75229 22.4939 6.01488 22.4189 6.13374 22.2023C6.46268 21.6301 6.66999 21.0413 6.75291 20.4525C6.79437 20.158 6.80267 19.8636 6.78884 19.5748C6.78055 19.2859 6.73909 18.9998 6.67275 18.7193C6.3991 17.5972 5.67213 16.5473 4.56371 15.8057C4.35087 15.6641 4.08275 15.7224 3.93625 15.939V15.9363Z" fill="white"/>
<path d="M12.7427 18.3329C12.7869 18.944 12.7427 19.5217 12.5658 20.0411C12.3944 20.5605 12.1125 21.0299 11.7614 21.4382C11.0538 22.252 9.93985 22.8102 8.62689 22.9575C8.37535 22.9852 8.15698 22.8241 8.11829 22.5825C8.0326 21.9465 8.08512 21.3354 8.24267 20.7771C8.32283 20.4994 8.42511 20.2327 8.56331 19.9828C8.70428 19.7356 8.87013 19.505 9.06086 19.2967C9.81547 18.4552 10.9239 17.9441 12.2673 17.9302C12.5216 17.9274 12.7233 18.0996 12.7427 18.3329Z" fill="white"/>
<path d="M1.30209 24.7102C0.953807 25.4462 0.740968 26.2072 0.710562 26.9516C0.680157 27.696 0.796251 28.4209 1.04226 29.0819C1.55915 30.4096 2.62611 31.4789 4.09111 32.0344C4.37029 32.1399 4.66605 32.0122 4.77938 31.7372C5.07791 31.0151 5.21335 30.2957 5.22164 29.5958C5.24652 28.8986 5.12766 28.2181 4.87889 27.5793C4.3924 26.3044 3.43601 25.1823 2.01247 24.4602C1.74435 24.3241 1.4403 24.4296 1.30485 24.7102H1.30209Z" fill="white"/>
<path d="M11.9194 26.2818C12.0769 26.9845 12.0603 27.6483 11.947 28.2761C11.8337 28.901 11.5849 29.4843 11.2173 30.0037C10.5014 31.0452 9.33213 31.8618 7.79527 32.2368C7.50503 32.309 7.22862 32.1562 7.15398 31.8785C6.95773 31.1508 6.90798 30.4314 7.01301 29.7565C7.13187 29.0843 7.38617 28.4566 7.75657 27.915C8.50841 26.8262 9.76886 26.0846 11.3085 25.8819C11.6015 25.843 11.8668 26.018 11.9249 26.2818H11.9194Z" fill="white"/>
<path d="M0.315359 34.6504C-0.2043 36.2531 -0.0716209 37.8751 0.638764 39.1639C1.31598 40.4554 2.57366 41.4053 4.14922 41.7747C4.45052 41.8441 4.73246 41.6747 4.80709 41.3775C4.9066 40.9887 4.96741 40.6054 4.98952 40.2304C5.01716 39.8554 5.01993 39.486 4.98123 39.1277C4.91213 38.4112 4.67165 37.7334 4.35377 37.1113C3.71249 35.8725 2.5322 34.8504 1.01192 34.3005C0.721688 34.1949 0.420396 34.3449 0.315359 34.6504Z" fill="white"/>
<path d="M11.3773 34.8507C11.8803 36.2394 11.7477 37.5782 11.1644 38.742C10.5453 39.9029 9.48107 40.8917 7.96632 41.4806C7.67885 41.5917 7.37479 41.4722 7.2587 41.2028C7.1039 40.8445 6.99057 40.4834 6.91594 40.1251C6.84684 39.7641 6.82749 39.4058 6.83578 39.0558C6.86619 38.3531 7.01269 37.6782 7.34162 37.0727C7.98843 35.8589 9.12726 34.934 10.7056 34.523C11.0013 34.4452 11.2943 34.5868 11.38 34.8507H11.3773Z" fill="white"/>
<path d="M0.688831 44.6884C0.603143 45.1105 0.561681 45.5299 0.556152 45.9382C0.556152 46.3465 0.608671 46.7437 0.686067 47.127C0.85468 47.8936 1.13662 48.6018 1.58441 49.2045C2.47723 50.4127 3.80678 51.2182 5.46527 51.3849C5.78038 51.4154 6.04021 51.2071 6.07338 50.8988C6.18947 50.085 6.14525 49.3156 5.96558 48.6046C5.92135 48.4268 5.86607 48.2519 5.80526 48.0824C5.74721 47.9102 5.68364 47.7436 5.61177 47.5797C5.46803 47.252 5.28836 46.9409 5.08105 46.6493C4.23246 45.4855 2.97201 44.6023 1.34393 44.2467C1.03435 44.1801 0.752406 44.3689 0.688831 44.6884Z" fill="white"/>
<path d="M11.8832 43.4443C12.049 43.7804 12.1762 44.1165 12.2619 44.4525C12.3558 44.7886 12.4194 45.1219 12.4415 45.4552C12.494 46.119 12.3669 46.7801 12.1541 47.4022C11.7201 48.6465 10.7112 49.7964 9.27658 50.5852C9.00293 50.7352 8.67676 50.6547 8.51921 50.3963C8.13223 49.7103 7.90004 48.9909 7.82264 48.2799C7.80329 48.1021 7.79224 47.9244 7.79224 47.7494C7.79776 47.5716 7.81159 47.3967 7.83646 47.2245C7.88345 46.8773 7.96638 46.5384 8.08524 46.2135C8.54408 44.908 9.63868 43.8193 11.1507 43.2027C11.4381 43.086 11.7533 43.1916 11.8804 43.4443H11.8832Z" fill="white"/>
<path d="M2.28602 54.5955C2.18375 56.3453 2.73381 57.9507 3.79248 59.0589C4.81521 60.1811 6.32167 60.806 8.0078 60.7588C8.32844 60.7504 8.56615 60.5032 8.56615 60.1866C8.56339 59.77 8.51916 59.37 8.44453 58.9867C8.38095 58.6007 8.28145 58.2313 8.14877 57.8813C8.01609 57.5313 7.85024 57.2008 7.65399 56.8897C7.55448 56.7342 7.44944 56.5842 7.33611 56.4398C7.22831 56.2926 7.11498 56.1537 6.99059 56.0176C6.02314 54.9399 4.56644 54.2233 2.8969 54.065C2.57626 54.0373 2.31366 54.265 2.28602 54.5983V54.5955Z" fill="white"/>
<path d="M13.4613 51.8935C14.332 53.1545 14.5393 54.5322 14.2601 55.8515C13.9423 57.1791 13.1241 58.454 11.7613 59.4483C11.5015 59.6372 11.1643 59.5983 10.9763 59.3566C10.7276 59.0372 10.5147 58.7067 10.3461 58.3651C10.1886 58.0207 10.0697 57.6652 9.98677 57.3096C9.90661 56.9541 9.86238 56.5958 9.85962 56.2403C9.85962 56.0626 9.86515 55.8848 9.88173 55.7098C9.90385 55.5321 9.93702 55.3571 9.97848 55.1849C10.3157 53.7961 11.2168 52.5685 12.6984 51.7408C12.9776 51.5852 13.3065 51.6519 13.4613 51.8935Z" fill="white"/>
<path d="M5.06179 64.5666C5.1226 65.4943 5.3382 66.3692 5.73348 67.1191C6.12322 67.8746 6.62077 68.5357 7.25099 69.0412C8.51973 70.0549 10.1285 70.5188 11.903 70.2133C12.2375 70.1577 12.4503 69.8633 12.3978 69.5356C12.2734 68.6634 12.0247 67.8691 11.6349 67.183C11.4359 66.8414 11.2231 66.5164 10.9826 66.2137C10.7393 65.9137 10.4685 65.6415 10.1699 65.3943C9.8714 65.1499 9.54799 64.9305 9.19971 64.7444C8.85972 64.5555 8.50038 64.3917 8.11893 64.2639C7.35603 64.0084 6.51297 63.8834 5.61738 63.9223C5.27739 63.9361 5.03691 64.2111 5.05903 64.5639L5.06179 64.5666Z" fill="white"/>
<path d="M16.367 60.1925C16.8977 60.7896 17.2515 61.4451 17.492 62.1117C17.7269 62.7811 17.7822 63.4949 17.7269 64.2004C17.6191 65.6058 16.8894 67.0834 15.6317 68.3055C15.3885 68.5388 15.0291 68.5499 14.7942 68.3277C14.1861 67.7361 13.7576 67.0473 13.4757 66.3335C13.3319 65.978 13.2435 65.6058 13.1965 65.2336C13.1495 64.8614 13.1412 64.4865 13.1744 64.1143C13.2075 63.7421 13.2794 63.3755 13.3927 63.02C13.5116 62.6589 13.6775 62.3061 13.8765 61.9701C14.2773 61.2951 14.8356 60.6758 15.5405 60.148C15.8086 59.9481 16.1652 59.9703 16.3642 60.1953L16.367 60.1925Z" fill="white"/>
<path d="M9.52536 74.5022C9.72714 75.4298 10.0782 76.2825 10.5674 76.9964C11.0705 77.7046 11.6897 78.2934 12.3835 78.7267C13.807 79.5766 15.5263 79.7988 17.2594 79.2489C17.5911 79.1406 17.757 78.8212 17.6685 78.4879C17.428 77.6157 17.0466 76.8603 16.5546 76.2187C16.0847 75.5632 15.4959 75.0271 14.8187 74.6188C13.4836 73.7911 11.8113 73.4384 9.99526 73.7745C9.65251 73.8384 9.44796 74.1494 9.52536 74.5022Z" fill="white"/>
<path d="M20.3555 68.4581C20.9857 68.9803 21.4418 69.5885 21.7624 70.2385C22.0969 70.8801 22.2738 71.58 22.3014 72.3132C22.3843 73.7548 21.8813 75.3351 20.7618 76.7711C20.5517 77.0405 20.1813 77.11 19.9215 76.91C19.2305 76.3906 18.6804 75.7684 18.2962 75.0852C17.9313 74.388 17.7212 73.6381 17.677 72.8798C17.6079 71.3522 18.2381 69.7913 19.5096 68.5275C19.7529 68.2859 20.115 68.2581 20.3555 68.4581Z" fill="white"/>
<path d="M15.0423 83.751C15.3768 84.712 15.8992 85.5369 16.5101 86.2285C17.132 86.9145 17.8866 87.4284 18.6827 87.7839C19.4733 88.1449 20.3633 88.2921 21.2423 88.2699C22.1241 88.2449 23.0169 88.0283 23.8848 87.6089C24.2138 87.4506 24.3492 87.0756 24.2027 86.7451C23.8213 85.8619 23.2905 85.1397 22.6935 84.5259C22.0992 83.9093 21.3943 83.4399 20.6259 83.1066C19.1167 82.4205 17.2702 82.3206 15.4404 82.9094C15.0893 83.0233 14.918 83.3843 15.0423 83.751Z" fill="white"/>
<path d="M25.5574 75.8244C26.2816 76.2882 26.8703 76.8354 27.2905 77.477C27.7189 78.1102 28.023 78.8018 28.1557 79.5656C28.2856 80.3322 28.3049 81.121 28.1446 81.9543C27.9898 82.782 27.6747 83.6374 27.191 84.479C27.0085 84.7984 26.6409 84.9151 26.3341 84.7484C25.5352 84.3068 24.847 83.7485 24.3577 83.0764C23.8685 82.4014 23.5285 81.6515 23.3792 80.86C23.1 79.2518 23.5036 77.552 24.6894 76.016C24.9106 75.7272 25.2865 75.6438 25.5574 75.8244Z" fill="white"/>
<path d="M28.6642 89.6032C28.5481 89.6032 28.4348 89.5615 28.3435 89.4754C26.7597 87.9867 25.2366 86.4119 25.2201 86.398C15.2222 75.7547 8.69325 62.4699 6.32991 47.9743C4.2955 35.4978 5.50619 22.6686 9.82655 10.8726C9.915 10.6282 10.1887 10.5032 10.4319 10.5921C10.6751 10.6837 10.8023 10.9532 10.7111 11.2004C6.446 22.8408 5.25466 35.5061 7.26142 47.8215C9.59436 62.1283 16.0376 75.2408 25.9 85.7425C25.9111 85.7536 27.4175 87.3118 28.9848 88.7838C29.1755 88.9616 29.1838 89.2616 29.0069 89.4532C28.913 89.5532 28.7886 89.6032 28.6614 89.6032H28.6642Z" fill="white"/>
<path d="M477.434 8.29272C476.358 10.7202 477.262 13.0755 479.598 14.2476C479.822 14.356 480.084 14.2754 480.203 14.056C481.502 11.7174 480.469 9.00931 478.02 8.0483C477.787 7.95664 477.536 8.06219 477.434 8.29272Z" fill="white"/>
<path d="M476.394 18.3337C476.35 18.9447 476.394 19.5224 476.571 20.0418C476.742 20.5612 477.024 21.0306 477.375 21.4389C478.083 22.2527 479.197 22.811 480.51 22.9582C480.761 22.986 480.98 22.8249 481.019 22.5832C481.104 21.9472 481.052 21.3361 480.894 20.7779C480.814 20.5001 480.712 20.2335 480.574 19.9835C480.433 19.7363 480.267 19.5058 480.076 19.2975C479.321 18.4559 478.213 17.9448 476.87 17.9309C476.615 17.9282 476.413 18.1004 476.394 18.3337Z" fill="white"/>
<path d="M485.201 15.9366C485.582 16.5115 485.8 17.1337 485.914 17.7503C486.024 18.3669 486.013 18.9807 485.856 19.564C485.552 20.7305 484.803 21.736 483.608 22.372C483.385 22.4915 483.122 22.4165 483.003 22.1998C482.674 21.6277 482.467 21.0388 482.384 20.45C482.342 20.1556 482.334 19.8612 482.348 19.5723C482.356 19.2835 482.398 18.9974 482.464 18.7169C482.738 17.5948 483.465 16.5449 484.573 15.8033C484.786 15.6616 485.054 15.72 485.201 15.9366Z" fill="white"/>
<path d="M477.218 26.2821C477.06 26.9848 477.077 27.6486 477.19 28.2763C477.303 28.9012 477.552 29.4845 477.92 30.0039C478.636 31.0455 479.805 31.862 481.342 32.237C481.632 32.3092 481.908 32.1564 481.983 31.8787C482.179 31.151 482.229 30.4316 482.124 29.7567C482.005 29.0846 481.751 28.4568 481.381 27.9152C480.629 26.8265 479.368 26.0849 477.829 25.8821C477.536 25.8432 477.27 26.0182 477.212 26.2821H477.218Z" fill="white"/>
<path d="M487.838 24.7072C488.186 25.4433 488.399 26.2043 488.429 26.9487C488.46 27.693 488.343 28.418 488.097 29.079C487.581 30.4066 486.514 31.476 485.049 32.0315C484.769 32.137 484.474 32.0092 484.36 31.7343C484.062 31.0121 483.926 30.2928 483.918 29.5928C483.893 28.8957 484.012 28.2152 484.261 27.5764C484.747 26.3015 485.704 25.1794 487.127 24.4573C487.395 24.3212 487.699 24.4267 487.835 24.7072H487.838Z" fill="white"/>
<path d="M477.76 34.8485C477.257 36.2372 477.389 37.576 477.972 38.7398C478.592 39.9007 479.656 40.8895 481.171 41.4784C481.458 41.5895 481.762 41.47 481.878 41.2006C482.033 40.8423 482.146 40.4812 482.221 40.1229C482.29 39.7619 482.309 39.4036 482.301 39.0536C482.271 38.3509 482.124 37.676 481.795 37.0705C481.148 35.8567 480.01 34.9318 478.431 34.5208C478.136 34.443 477.843 34.5846 477.757 34.8485H477.76Z" fill="white"/>
<path d="M488.822 34.6509C489.342 36.2535 489.209 37.8756 488.499 39.1643C487.822 40.4559 486.564 41.4058 484.988 41.7752C484.687 41.8446 484.405 41.6752 484.33 41.378C484.231 40.9891 484.17 40.6059 484.148 40.2309C484.12 39.8559 484.118 39.4865 484.156 39.1282C484.225 38.4116 484.466 37.7339 484.784 37.1118C485.425 35.873 486.605 34.8509 488.126 34.301C488.416 34.1954 488.717 34.3454 488.822 34.6509Z" fill="white"/>
<path d="M477.254 43.4445C477.088 43.7806 476.961 44.1167 476.875 44.4528C476.781 44.7889 476.718 45.1221 476.696 45.4554C476.643 46.1193 476.77 46.7803 476.983 47.4025C477.417 48.6468 478.426 49.7967 479.861 50.5855C480.134 50.7354 480.46 50.6549 480.618 50.3966C481.005 49.7106 481.237 48.9912 481.315 48.2801C481.334 48.1024 481.345 47.9246 481.345 47.7496C481.339 47.5719 481.326 47.3969 481.301 47.2247C481.254 46.8775 481.171 46.5387 481.052 46.2137C480.593 44.9083 479.499 43.8195 477.987 43.2029C477.699 43.0863 477.384 43.1918 477.257 43.4445H477.254Z" fill="white"/>
<path d="M488.452 44.6864C488.537 45.1086 488.579 45.528 488.584 45.9363C488.584 46.3446 488.532 46.7417 488.454 47.125C488.286 47.8916 488.004 48.5999 487.556 49.2026C486.663 50.4108 485.334 51.2163 483.675 51.3829C483.36 51.4135 483.1 51.2052 483.067 50.8969C482.951 50.0831 482.995 49.3137 483.175 48.6026C483.219 48.4249 483.274 48.2499 483.335 48.0805C483.393 47.9083 483.457 47.7416 483.529 47.5778C483.675 47.25 483.852 46.9389 484.059 46.6473C484.908 45.4835 486.168 44.6003 487.796 44.2448C488.106 44.1781 488.388 44.367 488.452 44.6864Z" fill="white"/>
<path d="M475.675 51.8938C474.804 53.1548 474.597 54.5324 474.876 55.8517C475.194 57.1793 476.012 58.4542 477.375 59.4485C477.635 59.6374 477.972 59.5985 478.16 59.3569C478.409 59.0375 478.622 58.707 478.79 58.3653C478.948 58.0209 479.067 57.6654 479.147 57.3099C479.227 56.9544 479.271 56.5961 479.274 56.2406C479.274 56.0628 479.268 55.885 479.252 55.7101C479.23 55.5323 479.197 55.3573 479.155 55.1851C478.818 53.7964 477.917 52.5687 476.435 51.741C476.156 51.5855 475.827 51.6522 475.672 51.8938H475.675Z" fill="white"/>
<path d="M486.853 54.5963C486.955 56.3461 486.405 57.9515 485.347 59.0597C484.324 60.1818 482.817 60.8067 481.131 60.7595C480.811 60.7512 480.573 60.504 480.573 60.1873C480.576 59.7707 480.62 59.3708 480.695 58.9875C480.758 58.6014 480.858 58.232 480.99 57.882C481.123 57.5321 481.289 57.2015 481.485 56.8905C481.585 56.7349 481.69 56.5849 481.803 56.4405C481.911 56.2933 482.024 56.1544 482.149 56.0183C483.116 54.9407 484.573 54.2241 486.242 54.0658C486.563 54.038 486.825 54.2657 486.853 54.599V54.5963Z" fill="white"/>
<path d="M472.77 60.1898C472.239 60.787 471.886 61.4424 471.645 62.109C471.41 62.7784 471.355 63.4922 471.41 64.1977C471.518 65.6031 472.248 67.0807 473.505 68.3028C473.749 68.5361 474.108 68.5472 474.343 68.325C474.951 67.7334 475.379 67.0446 475.664 66.3308C475.808 65.9753 475.896 65.6031 475.941 65.2309C475.988 64.8587 475.996 64.4838 475.963 64.1116C475.93 63.7394 475.858 63.3728 475.744 63.0173C475.625 62.6562 475.46 62.3035 475.261 61.9674C474.86 61.2925 474.301 60.6731 473.597 60.1454C473.328 59.9454 472.975 59.9676 472.773 60.1926L472.77 60.1898Z" fill="white"/>
<path d="M484.078 64.5669C484.017 65.4946 483.802 66.3695 483.406 67.1194C483.017 67.8749 482.519 68.5359 481.889 69.0414C480.62 70.0552 479.011 70.519 477.237 70.2135C476.902 70.158 476.69 69.8635 476.742 69.5358C476.866 68.6637 477.115 67.8693 477.505 67.1833C477.704 66.8416 477.917 66.5167 478.157 66.2139C478.401 65.914 478.671 65.6418 478.97 65.3946C479.269 65.1502 479.592 64.9307 479.94 64.7446C480.28 64.5558 480.64 64.3919 481.021 64.2641C481.784 64.0086 482.627 63.8836 483.523 63.9225C483.863 63.9364 484.103 64.2114 484.081 64.5641L484.078 64.5669Z" fill="white"/>
<path d="M468.782 68.4583C468.151 68.9805 467.695 69.5888 467.375 70.2387C467.04 70.8803 466.863 71.5802 466.836 72.3135C466.753 73.755 467.256 75.3354 468.375 76.7713C468.585 77.0408 468.956 77.1102 469.216 76.9102C469.907 76.3908 470.457 75.7687 470.841 75.0854C471.206 74.3883 471.416 73.6383 471.46 72.8801C471.529 71.3525 470.899 69.7915 469.627 68.5278C469.384 68.2861 469.022 68.2584 468.782 68.4583Z" fill="white"/>
<path d="M479.614 74.5024C479.413 75.4301 479.062 76.2828 478.572 76.9966C478.069 77.7049 477.45 78.2937 476.756 78.727C475.333 79.5769 473.614 79.7991 471.88 79.2491C471.549 79.1408 471.383 78.8214 471.471 78.4881C471.712 77.616 472.093 76.8605 472.585 76.2189C473.055 75.5634 473.644 75.0274 474.321 74.6191C475.656 73.7914 477.329 73.4386 479.145 73.7747C479.487 73.8386 479.692 74.1497 479.614 74.5024Z" fill="white"/>
<path d="M463.58 75.8246C462.856 76.2885 462.267 76.8356 461.847 77.4772C461.418 78.1105 461.114 78.8021 460.982 79.5659C460.852 80.3325 460.832 81.1213 460.993 81.9545C461.147 82.7822 461.462 83.6377 461.946 84.4793C462.129 84.7987 462.496 84.9153 462.803 84.7487C463.602 84.3071 464.29 83.7488 464.779 83.0766C465.269 82.4017 465.609 81.6518 465.758 80.8602C466.037 79.252 465.634 77.5522 464.448 76.0163C464.227 75.7274 463.851 75.6441 463.58 75.8246Z" fill="white"/>
<path d="M474.097 83.7512C473.763 84.7122 473.24 85.5371 472.629 86.2287C472.007 86.9148 471.253 87.4286 470.457 87.7841C469.666 88.1452 468.776 88.2924 467.897 88.2702C467.015 88.2452 466.122 88.0258 465.255 87.6091C464.926 87.4508 464.79 87.0759 464.937 86.7453C465.318 85.8621 465.849 85.1399 466.446 84.5261C467.04 83.9095 467.745 83.4401 468.513 83.1068C470.023 82.4208 471.869 82.3208 473.699 82.9096C474.047 83.0235 474.221 83.3846 474.097 83.7512Z" fill="white"/>
<path d="M460.473 89.6031C460.345 89.6031 460.221 89.5531 460.127 89.4531C459.95 89.2615 459.958 88.9615 460.149 88.7837C461.716 87.3117 463.223 85.7535 463.239 85.7368C473.096 75.2407 479.542 62.1282 481.875 47.8214C483.882 35.506 482.691 22.8407 478.426 11.2003C478.334 10.9558 478.462 10.6836 478.705 10.592C478.948 10.5003 479.219 10.6281 479.31 10.8725C483.631 22.6685 484.838 35.4977 482.807 47.9742C480.444 62.4698 473.915 75.7546 463.922 86.3923C463.903 86.4118 462.38 87.9866 460.796 89.4753C460.705 89.5614 460.589 89.6031 460.475 89.6031H460.473Z" fill="white"/>
<path d="M63.442 47.8432V46.8142C64.284 46.3932 65.0324 46.2061 65.734 46.2061C66.6695 46.2061 67.7921 46.4868 68.9147 47.0013C69.9437 47.4691 70.4582 47.9836 70.4582 48.6384C70.4582 48.8255 70.4114 49.1529 70.3179 49.6207C70.1776 50.2287 70.084 50.7433 69.9905 51.632C69.9437 52.1465 69.8969 53.1288 69.8502 54.7659C73.7792 54.2981 76.6792 54.111 78.9244 53.9239C79.8131 53.8304 80.1873 53.7368 80.7954 53.4562C81.1696 53.2691 81.5906 53.1288 81.9648 53.1288C82.5728 53.1288 83.5083 53.6433 84.3503 54.1578C85.1922 54.6723 85.7535 55.1869 85.7535 55.7949C85.7535 56.3562 85.4261 56.6369 84.21 56.6369C82.2922 56.6369 81.0761 56.4965 79.6728 56.4965C77.5212 56.4965 74.0599 56.5433 69.8502 56.9643C69.8034 60.5192 69.8034 63.6531 69.8502 67.3015C70.084 69.0789 70.1308 70.5757 70.1308 72.166C70.1308 80.5387 66.4356 84.5613 58.2501 86.7129L57.6888 85.5903C64.4243 82.8306 66.8566 79.0419 67.184 73.7564C65.7808 75.5338 64.6114 76.0951 63.2082 76.0951C60.6356 76.0951 58.9517 73.2418 58.9517 70.0144C58.9517 65.3837 61.7581 61.6885 64.5646 61.6885C65.6872 61.6885 66.3888 62.0159 67.1372 62.7643V57.2917C62.4598 57.8998 57.5017 58.882 54.2742 59.724C52.9178 60.0982 52.1226 60.3321 51.6081 60.5659C51.2806 60.7063 50.8597 60.8466 50.4387 60.8466C49.6435 60.8466 48.8484 60.4256 47.9596 59.724C47.0709 59.0224 46.3693 57.853 46.1354 56.3562L46.8838 55.6546C48.1467 57.1514 49.4564 57.6191 50.4387 57.6191C50.8129 57.6191 51.9355 57.4788 52.871 57.3385C58.0162 56.403 62.3194 55.7014 67.1372 55.0933C67.1372 53.1755 67.0905 51.632 66.9969 50.2755C66.9501 49.6207 66.763 49.0594 66.2953 48.5916C65.6872 48.0771 64.7049 47.8432 63.442 47.8432ZM60.7291 69.687C60.7291 72.0725 61.7581 73.7096 63.2549 73.7096C65.1259 73.7096 67.0437 71.0902 67.0437 67.9095C67.0437 65.4305 65.8275 63.6998 64.3308 63.6998C62.413 63.6998 60.7291 66.4595 60.7291 69.687ZM128.272 48.2174L128.973 47.4223C134.259 49.4336 135.943 51.5852 135.943 52.9417C135.943 53.9707 135.241 54.6723 134.399 54.6723C133.51 54.6723 133.136 54.1578 132.154 52.5207C131.125 50.8836 129.815 49.4336 128.272 48.2174ZM132.575 45.1303L133.183 44.2884C138.656 45.7852 140.62 47.7497 140.62 49.1997C140.62 50.2287 139.965 50.79 139.217 50.79C138.422 50.79 138.001 50.4626 136.878 48.9191C135.709 47.4223 134.259 46.1594 132.575 45.1303ZM121.209 50.5094L121.536 49.4804C121.817 49.4336 122.097 49.4336 122.331 49.4336C123.594 49.4336 125.044 49.9013 126.214 50.6029C127.336 51.2578 127.991 52.0062 127.991 52.8481C127.991 53.1288 127.991 53.4562 127.944 53.8772C127.897 54.2981 127.851 54.8127 127.804 55.374C127.71 56.403 127.71 57.5256 127.664 59.0224C129.347 58.695 130.564 58.3208 131.218 58.0401C131.639 57.853 132.014 57.7127 132.528 57.7127C133.23 57.7127 133.885 57.9466 134.259 58.1337C134.82 58.3675 135.147 58.8353 135.147 59.2562C135.147 60.0046 134.633 60.4256 131.78 60.9869C130.751 61.174 129.535 61.4079 127.664 61.6417C127.664 66.2724 127.71 70.9499 127.71 75.5806C129.675 76.1419 130.985 76.7499 132.435 77.4516C134.68 78.5741 135.709 79.6967 135.709 80.8661C135.709 81.7548 135.194 82.3629 134.493 82.3629C133.931 82.3629 133.417 82.0822 132.107 81.0532C130.564 79.8838 129.301 79.0887 127.617 78.3403C127.055 81.8484 124.53 83.4387 120.133 83.4387C115.83 83.4387 113.117 81.6145 113.117 78.808C113.117 76.1419 115.642 74.458 120.133 74.458C121.676 74.458 123.22 74.5515 124.904 74.879V61.9692C122.846 62.203 121.443 62.3434 120.507 62.3434C117.467 62.3434 115.549 61.4547 114.005 59.4901L114.567 58.6014C116.297 59.6304 118.075 60.0046 119.993 60.0046C121.209 60.0046 122.705 59.8175 124.904 59.4901V56.8707C124.904 54.5788 124.576 53.2223 123.968 52.3336C123.454 51.5384 122.565 50.8836 121.209 50.5094ZM114.754 78.7612C114.754 80.4451 116.672 81.2871 119.899 81.2871C123.173 81.2871 124.717 79.7903 124.904 77.3112C123.126 76.7499 121.302 76.3757 119.525 76.3757C116.718 76.3757 114.754 77.2177 114.754 78.7612ZM108.112 66.6934L109.188 67.3482C107.597 70.2483 105.96 73.5693 105.025 76.2822C104.65 77.4983 104.557 78.387 104.557 79.5564C104.557 79.9774 104.604 80.5387 104.697 81.1468C104.744 81.4742 104.838 82.0822 104.838 82.5968C104.838 83.5323 104.417 84.0935 103.575 84.0935C102.405 84.0935 101.329 82.129 100.488 79.5564C99.6456 77.0306 99.2714 73.9902 99.2714 71.6983C99.2714 69.4999 99.5988 66.6466 100.347 63.466C100.675 62.0159 101.236 59.8643 101.75 57.6191C101.938 56.7772 102.078 55.8417 102.078 55.3272C102.078 54.3449 101.938 53.4094 100.908 51.3046L101.797 50.6965C102.92 51.3981 103.949 52.4739 104.604 53.4094C105.071 54.111 105.399 54.953 105.399 55.6078C105.399 55.8417 105.399 56.3094 105.118 57.1046C104.978 57.4788 104.744 58.0869 104.51 58.7417C103.949 60.2385 103.388 62.3434 102.92 64.074C102.171 66.9741 101.797 69.4063 101.797 71.6983C101.797 73.0547 101.938 74.4112 102.312 75.6741C102.358 75.8612 102.499 76.0951 102.592 76.0951C102.686 76.0951 102.826 75.8612 102.92 75.6741C104.417 72.587 106.194 69.4999 108.112 66.6934ZM163.446 65.2434L163.493 65.3369C166.112 63.9805 169.293 63.045 172.24 63.045C179.537 63.045 184.261 67.5353 184.261 73.3354C184.261 80.5387 177.104 85.4032 169.106 85.4032C163.54 85.4032 159.891 83.3452 159.891 80.1177C159.891 77.779 162.183 75.6273 165.644 75.6273C170.041 75.6273 172.895 78.2935 173.97 82.2693C178.133 80.7726 180.94 77.5451 180.94 73.2886C180.94 68.5176 177.525 64.916 171.725 64.916C169.153 64.916 166.019 65.8982 162.791 67.9095C160.359 69.4063 158.628 70.8563 156.383 73.1951C155.307 74.3644 154.652 74.879 154.044 74.879C153.296 74.879 152.875 74.1773 152.875 73.2418C152.875 72.2596 153.109 71.4644 154.138 70.716C154.746 70.2483 155.494 69.6402 156.196 69.0321C158.02 67.4418 159.704 65.8047 161.107 64.4014C165.832 59.4901 168.545 56.403 172.24 51.9594C172.707 51.3513 172.801 51.0239 172.801 50.8836C172.801 50.6965 172.661 50.6029 172.474 50.6029C172.286 50.6029 171.959 50.6497 171.351 50.8368C169.059 51.632 165.598 52.8949 162.885 53.9239C162.277 54.1578 161.903 54.3449 161.528 54.5788C161.201 54.8127 160.827 54.9998 160.359 54.9998C159.844 54.9998 159.049 54.532 158.488 53.9239C157.552 52.9417 156.944 51.6788 157.132 50.0884L158.114 49.6207C158.628 51.0707 159.564 51.6788 160.453 51.6788C160.967 51.6788 161.622 51.5384 162.136 51.3981C165.13 50.5562 168.451 49.5271 171.445 48.5449C171.866 48.4045 172.193 48.2642 172.567 48.0303C172.988 47.7497 173.316 47.6561 173.549 47.6561C174.111 47.6561 174.859 48.2174 175.701 49.0594C176.683 49.9949 177.291 50.6029 177.291 51.2578C177.291 51.8191 176.917 52.1933 176.356 52.4739C175.701 52.8014 175.093 53.1755 174.298 53.9707C170.883 57.5724 166.861 61.6885 163.446 65.2434ZM171.304 82.9242C170.509 79.4161 168.311 77.4048 165.27 77.4048C162.885 77.4048 161.528 78.5741 161.528 79.9306C161.528 81.708 164.054 83.1581 168.545 83.1581C169.48 83.1581 170.416 83.0645 171.304 82.9242ZM209.659 55.2336H203.204L199.883 55.5143L199.369 53.3626L203.204 53.6433H218.313V49.9949C218.313 47.9836 218.172 46.9545 217.658 45.6448L217.892 45.3642C222.522 46.0658 223.551 46.3465 223.551 47.0949C223.551 47.6561 223.084 47.9368 221.493 48.3578V53.6433H234.403L236.789 50.6497H237.443L240.952 54.111V55.2336H230.801C230.053 58.5079 229.118 61.7353 227.761 64.8224C226.358 68.0031 224.487 70.9967 222.289 73.6628C226.872 77.7322 233.14 81.1468 241.373 83.0177L241.139 84C239.408 84.0468 238.052 84.9823 237.49 86.3855C230.521 83.9065 224.814 80.3984 220.324 75.7677C215.226 80.9129 208.303 84.6548 199.229 86.8065L198.761 85.7774C206.619 83.1581 213.401 79.1354 218.406 73.616C216.161 71.0434 214.29 67.9563 212.793 64.8224C211.39 61.7821 210.361 58.5546 209.659 55.2336ZM227.2 55.2336H210.969C211.998 58.695 213.355 61.9692 215.179 65.0563C216.582 67.395 218.266 69.5934 220.137 71.6047C223.832 66.8337 226.171 61.1272 227.2 55.2336ZM287.492 57.1514H255.779C255.779 60.7998 254.75 63.0918 252.552 63.0918C251.523 63.0918 250.774 62.3901 250.774 61.4547C250.774 60.6595 251.102 60.2853 252.318 59.0691C253.721 57.6191 254.002 55.8885 254.189 52.9417L255.311 52.9884C255.545 53.9239 255.639 54.7659 255.732 55.5611H278.371C279.868 52.9884 280.991 50.5094 281.599 48.6852C282.02 47.4691 282.207 46.7207 282.207 45.6448L282.534 45.5045C286.744 47.4223 287.492 48.1239 287.492 48.6852C287.492 49.34 286.978 49.5739 284.966 49.5271C283.704 51.3513 282.02 53.503 280.102 55.5611H287.118L288.849 53.5965H289.504C292.357 55.982 293.012 56.7304 293.012 57.2917C293.012 57.9466 292.497 58.0869 290.486 58.3675C288.989 60.0514 287.633 61.5482 285.996 62.8111L285.107 62.1095C286.042 60.5659 286.931 58.7885 287.492 57.1514ZM270.139 73.9902H255.218L251.944 74.2709L251.382 72.1193L255.218 72.3999H270.139V70.8563C270.139 69.1725 269.999 68.4241 269.484 67.3482L269.718 67.0676C271.168 67.3015 272.197 67.5353 272.992 67.6757C275.191 66.0386 277.015 64.4482 278.044 63.2321H262.561L259.287 63.5127L258.726 61.3611L262.561 61.6417H278.371L280.008 60.0046H280.663C283.002 61.8756 283.891 62.7176 283.891 63.2789C283.891 63.8402 283.376 64.074 281.458 64.2144C279.166 65.6644 276.921 66.9273 274.489 68.0966C274.957 68.3305 275.097 68.5176 275.097 68.7515C275.097 69.1725 274.863 69.3596 273.132 69.8273V72.3999H285.996L288.287 69.5934H288.942L292.17 72.8676V73.9902H273.132V77.9193L273.366 83.4855C273.366 86.4791 272.057 87.6952 267.192 87.8355C267.052 86.1049 266.444 85.45 263.17 84.3274L263.45 83.2516C266.584 83.8597 267.987 84 268.923 84C269.765 84 270.139 83.6258 270.139 82.7839V73.9902ZM256.294 47.1416L257.042 46.2997C261.626 48.3578 263.824 50.8368 263.824 52.9884C263.824 54.1578 263.17 54.8594 262.187 54.8594C261.345 54.8594 260.831 54.4385 260.363 53.0352C259.708 51.1175 258.539 49.0594 256.294 47.1416ZM267.005 45.3642L267.847 44.6158C272.057 46.861 273.928 49.761 273.928 51.8191C273.928 53.1755 273.273 53.9707 272.384 53.9707C271.449 53.9707 270.934 53.5965 270.56 52.053C270.045 49.8546 269.11 47.4691 267.005 45.3642ZM312.657 80.5855V81.5209L312.189 81.9887L309.476 82.0822L309.71 74.4112V68.0499C309.71 65.945 309.663 65.0095 309.149 63.6063L309.43 63.3256C310.833 63.9805 312.049 64.5418 313.265 65.1498H332.91L334.454 63.466H335.109C337.635 65.3837 338.243 65.8515 338.243 66.2724C338.243 66.7402 337.681 67.0676 336.512 67.5353V74.2709L336.746 81.1935L336.278 81.6613L333.518 81.7548V80.5855H312.657ZM312.657 78.9951H333.518V75.908H312.657V78.9951ZM312.657 74.3177H333.518V71.2773H312.657V74.3177ZM312.657 69.687H333.518V66.7402H312.657V69.687ZM315.557 55.8885H330.385L331.835 54.3449H332.489C334.828 55.9352 335.53 56.4498 335.53 57.0111C335.53 57.432 335.109 57.7595 333.846 58.1804V59.0691L333.939 62.7643L333.472 63.2321L330.899 63.3256V62.4837H314.996V62.9047L314.528 63.3724L312.002 63.466L312.096 59.7708V58.7885C312.096 56.9175 312.002 56.0288 311.675 54.4385L311.955 54.1578C313.405 54.7659 314.388 55.2336 315.557 55.8885ZM314.996 57.4788V60.8934H330.899V57.4788H314.996ZM338.944 53.2691H307.231C307.231 56.9175 306.202 58.7417 304.004 58.7417C302.975 58.7417 302.273 58.0869 302.273 57.0578C302.273 56.3562 302.6 55.982 303.396 55.1401C304.846 53.5965 305.547 52.0997 305.641 49.0594L306.763 49.1062C306.997 50.0417 307.091 50.8836 307.184 51.6788H314.575C314.294 51.3981 314.013 50.9771 313.733 50.3223C312.984 48.8255 312.142 47.6561 310.318 46.2997L311.02 45.411C315.183 46.7674 316.913 48.4981 316.913 50.4158C316.913 51.0707 316.726 51.4449 316.446 51.6788H321.497V48.4513C321.497 46.6739 321.31 45.7384 320.749 44.6158L320.983 44.3352C325.801 45.0835 326.502 45.3642 326.502 46.1126C326.502 46.6739 326.081 46.9078 324.351 47.3287V51.6788H328.981C330.01 50.1352 330.618 48.9658 331.039 48.0771C331.647 46.7674 331.835 46.2061 331.928 45.3642L332.256 45.2239C335.202 46.4868 336.512 47.2352 336.512 47.7497C336.512 48.4045 336.091 48.5449 334.36 48.4045C333.331 49.4804 332.302 50.4626 330.852 51.6788H338.57L340.301 49.7142H340.956C343.809 52.0997 344.464 52.8481 344.464 53.4094C344.464 54.0643 343.949 54.2046 341.938 54.4852C340.862 55.6546 339.506 56.9643 337.869 58.2272L336.98 57.5256C337.915 55.982 338.383 54.9062 338.944 53.2691ZM315.417 81.2871L315.791 81.1935C318.925 82.8774 319.439 83.2516 319.439 83.7661C319.439 84.1403 319.112 84.3742 318.223 84.3742C317.849 84.3742 317.334 84.3274 316.726 84.2339C312.423 86.292 308.775 87.2742 302.834 88.1629L302.46 87.0871C307.278 85.9178 310.365 84.7952 312.844 83.3452C314.388 82.4564 314.949 81.8951 315.417 81.2871ZM327.017 82.6435L327.438 81.6145C336.839 82.6903 340.581 84.6081 340.581 86.6194C340.581 87.6484 340.16 88.0226 339.272 88.0226C338.523 88.0226 337.775 87.6016 336.606 86.7129C334.594 85.1226 331.554 83.9065 327.017 82.6435ZM399.67 84.3824L399.555 85.2236C398.102 85.4148 397.414 86.0266 397.031 87.3266C391.755 86.1413 387.204 84.3059 383.419 81.1322C378.83 84.3824 373.363 86.2942 367.168 87.4031L366.862 86.5236C372.368 85.0706 377.53 82.9676 381.813 79.6792C380.283 78.1115 378.945 76.3526 377.836 74.479C377.148 73.3319 376.574 72.1465 376.001 70.923H373.898L371.221 71.1524L370.762 69.3935L373.898 69.6229H389.116L390.531 67.9787H391.066C393.475 69.9288 393.743 70.2729 393.743 70.6935C393.743 71.1141 393.246 71.3436 391.907 71.7259C389.996 74.9761 387.74 77.6527 385.14 79.7939C389.04 82.3176 393.781 83.6559 399.67 84.3824ZM389.231 70.923H377.263C378.792 73.7525 380.781 76.3908 383.304 78.4174C385.675 76.3526 387.663 73.9054 389.231 70.923ZM389.001 63.6962H396.037L397.452 62.0902H397.987C400.32 64.0403 400.855 64.5756 400.855 65.0345C400.855 65.5698 400.434 65.6845 398.79 65.9904C397.681 67.0993 396.381 68.3229 394.928 69.3553L394.202 68.7817C395.081 67.4816 395.731 66.4492 396.343 64.9962H370.036C370.036 67.9787 369.195 69.8523 367.398 69.8523C366.556 69.8523 365.945 69.2788 365.945 68.514C365.945 67.864 366.212 67.5581 367.206 66.564C368.353 65.3786 368.583 63.9638 368.736 61.5549L369.654 61.5932C369.845 62.3579 369.921 63.0462 369.998 63.6962H387.587C388.81 61.7843 389.613 60.2166 390.11 59.0313C390.531 58.0371 390.722 57.4253 390.76 56.6988L391.028 56.5841C394.316 58.3048 394.737 58.6489 394.737 59.1077C394.737 59.6048 394.469 59.7578 392.749 59.6048C391.716 60.9049 390.454 62.3579 389.001 63.6962ZM372.483 58.0754L373.095 57.3871C375.886 58.9166 376.919 60.3313 376.919 61.6314C376.919 62.5108 376.498 63.0844 375.733 63.0844C375.045 63.0844 374.701 62.5873 374.471 61.7079C374.166 60.5608 373.63 59.3372 372.483 58.0754ZM380.398 57.3489L381.125 56.8135C383.954 58.3812 385.178 60.0254 385.178 61.402C385.178 62.5491 384.566 63.0844 383.916 63.0844C383.266 63.0844 382.884 62.702 382.654 61.6696C382.272 60.2166 381.775 58.9548 380.398 57.3489ZM369.921 56.89L369.845 55.9723C376.536 55.3988 382.616 54.4811 387.09 53.3722C388.849 52.9516 389.919 52.6075 390.952 52.0339H391.219C394.163 53.8693 394.775 54.3281 394.775 54.8252C394.775 55.1693 394.508 55.3605 394.087 55.3605C393.628 55.3605 393.093 55.2458 391.563 54.9017C383.725 56.2782 377.263 56.8135 369.921 56.89ZM416.914 81.2087V81.9734L416.532 82.3558L414.314 82.4323L414.505 76.1614V70.9612C414.505 69.2405 414.467 68.4758 414.047 67.3287L414.276 67.0993C415.423 67.6346 416.417 68.0934 417.411 68.5905H433.471L434.733 67.214H435.268C437.333 68.7817 437.83 69.1641 437.83 69.5082C437.83 69.8906 437.371 70.1582 436.415 70.5406V76.0467L436.606 81.7058L436.224 82.0882L433.968 82.1646V81.2087H416.914ZM416.914 79.9086H433.968V77.385H416.914V79.9086ZM416.914 76.085H433.968V73.5996H416.914V76.085ZM416.914 72.2995H433.968V69.8906H416.914V72.2995ZM419.285 61.0196H431.406L432.592 59.7578H433.127C435.039 61.0578 435.612 61.4784 435.612 61.9373C435.612 62.2814 435.268 62.5491 434.236 62.8932V63.6197L434.312 66.6404L433.93 67.0228L431.827 67.0993V66.411H418.826V66.7551L418.444 67.1375L416.379 67.214L416.456 64.1933V63.3903C416.456 61.8608 416.379 61.1343 416.111 59.8343L416.341 59.6048C417.526 60.1019 418.329 60.4843 419.285 61.0196ZM418.826 62.3197V65.1109H431.827V62.3197H418.826ZM438.404 58.8783H412.479C412.479 61.8608 411.638 63.3521 409.841 63.3521C408.999 63.3521 408.426 62.8167 408.426 61.9755C408.426 61.402 408.693 61.0961 409.344 60.4078C410.529 59.146 411.102 57.9224 411.179 55.437L412.097 55.4752C412.288 56.24 412.364 56.9282 412.441 57.5783H418.482C418.253 57.3489 418.023 57.0047 417.794 56.4694C417.182 55.2458 416.494 54.2899 415.003 53.181L415.576 52.4545C418.979 53.5634 420.394 54.9782 420.394 56.5459C420.394 57.0812 420.241 57.3871 420.012 57.5783H424.141V54.9399C424.141 53.4869 423.988 52.7222 423.529 51.8045L423.721 51.5751C427.659 52.1869 428.233 52.4163 428.233 53.0281C428.233 53.4869 427.888 53.6781 426.474 54.0222V57.5783H430.259C431.1 56.3165 431.597 55.3605 431.942 54.634C432.439 53.5634 432.592 53.1045 432.668 52.4163L432.936 52.3016C435.345 53.334 436.415 53.9458 436.415 54.3664C436.415 54.9017 436.071 55.0164 434.656 54.9017C433.815 55.7811 432.974 56.5841 431.789 57.5783H438.098L439.512 55.9723H440.048C442.38 57.9224 442.916 58.5342 442.916 58.993C442.916 59.5284 442.495 59.6431 440.851 59.8725C439.971 60.8284 438.862 61.899 437.524 62.9314L436.798 62.3579C437.562 61.0961 437.945 60.2166 438.404 58.8783ZM419.17 81.7823L419.476 81.7058C422.038 83.0823 422.459 83.3882 422.459 83.8088C422.459 84.1147 422.191 84.3059 421.465 84.3059C421.159 84.3059 420.738 84.2677 420.241 84.1912C416.723 85.8736 413.741 86.6766 408.885 87.4031L408.579 86.5236C412.517 85.5677 415.041 84.65 417.067 83.4647C418.329 82.7382 418.788 82.2793 419.17 81.7823ZM428.653 82.8911L428.997 82.0499C436.683 82.9294 439.742 84.4971 439.742 86.1413C439.742 86.9825 439.398 87.2884 438.671 87.2884C438.059 87.2884 437.448 86.9442 436.492 86.2177C434.848 84.9177 432.362 83.9235 428.653 82.8911Z" fill="white"/>
</svg>
