<svg width="212" height="85" viewBox="0 0 212 85" fill="none" xmlns="http://www.w3.org/2000/svg">
<path d="M11.0814 3.03408C8.63237 3.99509 7.59858 6.70314 8.89773 9.04456C9.01659 9.26676 9.27642 9.3473 9.50308 9.23621C11.8388 8.06411 12.7427 5.7088 11.6674 3.2785C11.5651 3.04797 11.3136 2.93965 11.0814 3.03408Z" fill="#A6C022"/>
<path d="M3.93625 10.9361C3.5548 11.5111 3.33643 12.1332 3.2231 12.7498C3.11254 13.3664 3.12359 13.9803 3.28115 14.5635C3.5852 15.7301 4.33429 16.7355 5.5284 17.3744C5.75229 17.4938 6.01488 17.4188 6.13374 17.2022C6.46268 16.63 6.66999 16.0412 6.75291 15.4523C6.79437 15.1579 6.80267 14.8635 6.78884 14.5747C6.78055 14.2858 6.73909 13.9997 6.67275 13.7192C6.3991 12.5971 5.67213 11.5472 4.56371 10.8056C4.35087 10.664 4.08275 10.7223 3.93625 10.9389V10.9361Z" fill="#A6C022"/>
<path d="M12.7427 13.3328C12.7869 13.9439 12.7427 14.5216 12.5658 15.041C12.3944 15.5604 12.1125 16.0298 11.7614 16.438C11.0538 17.2519 9.93985 17.8101 8.62689 17.9573C8.37535 17.9851 8.15698 17.824 8.11829 17.5824C8.0326 16.9463 8.08512 16.3353 8.24267 15.777C8.32283 15.4993 8.42511 15.2326 8.56331 14.9826C8.70428 14.7355 8.87013 14.5049 9.06086 14.2966C9.81547 13.455 10.9239 12.944 12.2673 12.9301C12.5216 12.9273 12.7233 13.0995 12.7427 13.3328Z" fill="#A6C022"/>
<path d="M1.30209 19.7103C0.953807 20.4463 0.740968 21.2074 0.710562 21.9517C0.680157 22.6961 0.796251 23.421 1.04226 24.0821C1.55915 25.4097 2.62611 26.479 4.09111 27.0345C4.37029 27.1401 4.66605 27.0123 4.77938 26.7373C5.07791 26.0152 5.21335 25.2958 5.22164 24.5959C5.24652 23.8987 5.12766 23.2183 4.87889 22.5794C4.3924 21.3046 3.43601 20.1825 2.01247 19.4603C1.74435 19.3242 1.4403 19.4298 1.30485 19.7103H1.30209Z" fill="#A6C022"/>
<path d="M11.9194 21.2818C12.0769 21.9845 12.0603 22.6483 11.947 23.2761C11.8337 23.901 11.5849 24.4843 11.2173 25.0037C10.5014 26.0452 9.33213 26.8618 7.79527 27.2368C7.50503 27.309 7.22862 27.1562 7.15398 26.8785C6.95773 26.1508 6.90798 25.4314 7.01301 24.7565C7.13187 24.0843 7.38617 23.4566 7.75657 22.915C8.50841 21.8262 9.76886 21.0846 11.3085 20.8819C11.6015 20.843 11.8668 21.018 11.9249 21.2818H11.9194Z" fill="#A6C022"/>
<path d="M0.315359 29.6504C-0.2043 31.2531 -0.0716209 32.8751 0.638764 34.1639C1.31598 35.4554 2.57366 36.4053 4.14922 36.7747C4.45052 36.8441 4.73246 36.6747 4.80709 36.3775C4.9066 35.9887 4.96741 35.6054 4.98952 35.2304C5.01716 34.8554 5.01993 34.486 4.98123 34.1277C4.91213 33.4112 4.67165 32.7334 4.35377 32.1113C3.71249 30.8725 2.5322 29.8504 1.01192 29.3005C0.721688 29.1949 0.420396 29.3449 0.315359 29.6504Z" fill="#A6C022"/>
<path d="M11.3773 29.8506C11.8803 31.2393 11.7477 32.5781 11.1644 33.7418C10.5453 34.9028 9.48107 35.8916 7.96632 36.4804C7.67885 36.5915 7.37479 36.4721 7.2587 36.2027C7.1039 35.8444 6.99057 35.4833 6.91594 35.125C6.84684 34.764 6.82749 34.4057 6.83578 34.0557C6.86619 33.353 7.01269 32.6781 7.34162 32.0726C7.98843 30.8588 9.12726 29.9339 10.7056 29.5228C11.0013 29.4451 11.2943 29.5867 11.38 29.8506H11.3773Z" fill="#A6C022"/>
<path d="M0.688831 39.6884C0.603143 40.1105 0.561681 40.5299 0.556152 40.9382C0.556152 41.3465 0.608671 41.7437 0.686067 42.127C0.85468 42.8936 1.13662 43.6018 1.58441 44.2045C2.47723 45.4127 3.80678 46.2182 5.46527 46.3849C5.78038 46.4154 6.04021 46.2071 6.07338 45.8988C6.18947 45.085 6.14525 44.3156 5.96558 43.6046C5.92135 43.4268 5.86607 43.2519 5.80526 43.0824C5.74721 42.9102 5.68364 42.7436 5.61177 42.5797C5.46803 42.252 5.28836 41.9409 5.08105 41.6493C4.23246 40.4855 2.97201 39.6023 1.34393 39.2467C1.03435 39.1801 0.752406 39.3689 0.688831 39.6884Z" fill="#A6C022"/>
<path d="M11.8832 38.4443C12.049 38.7804 12.1762 39.1165 12.2619 39.4525C12.3558 39.7886 12.4194 40.1219 12.4415 40.4552C12.494 41.119 12.3669 41.7801 12.1541 42.4022C11.7201 43.6465 10.7112 44.7964 9.27658 45.5852C9.00293 45.7352 8.67676 45.6547 8.51921 45.3963C8.13223 44.7103 7.90004 43.9909 7.82264 43.2799C7.80329 43.1021 7.79224 42.9244 7.79224 42.7494C7.79776 42.5716 7.81159 42.3967 7.83646 42.2245C7.88345 41.8773 7.96638 41.5384 8.08524 41.2135C8.54408 39.908 9.63868 38.8193 11.1507 38.2027C11.4381 38.086 11.7533 38.1916 11.8804 38.4443H11.8832Z" fill="#A6C022"/>
<path d="M2.28602 49.5958C2.18375 51.3456 2.73381 52.951 3.79248 54.0592C4.81521 55.1813 6.32167 55.8062 8.0078 55.759C8.32844 55.7507 8.56615 55.5035 8.56615 55.1869C8.56339 54.7702 8.51916 54.3703 8.44453 53.987C8.38095 53.6009 8.28145 53.2315 8.14877 52.8815C8.01609 52.5316 7.85024 52.2011 7.65399 51.89C7.55448 51.7344 7.44944 51.5845 7.33611 51.44C7.22831 51.2928 7.11498 51.1539 6.99059 51.0178C6.02314 49.9402 4.56644 49.2236 2.8969 49.0653C2.57626 49.0375 2.31366 49.2653 2.28602 49.5986V49.5958Z" fill="#A6C022"/>
<path d="M13.4613 46.8937C14.332 48.1546 14.5393 49.5323 14.2601 50.8516C13.9423 52.1792 13.1241 53.4541 11.7613 54.4484C11.5015 54.6373 11.1643 54.5984 10.9763 54.3568C10.7276 54.0374 10.5147 53.7068 10.3461 53.3652C10.1886 53.0208 10.0697 52.6653 9.98677 52.3098C9.90661 51.9542 9.86238 51.596 9.85962 51.2404C9.85962 51.0627 9.86515 50.8849 9.88173 50.7099C9.90385 50.5322 9.93702 50.3572 9.97848 50.185C10.3157 48.7962 11.2168 47.5686 12.6984 46.7409C12.9776 46.5854 13.3065 46.652 13.4613 46.8937Z" fill="#A6C022"/>
<path d="M5.06179 59.5666C5.1226 60.4943 5.3382 61.3692 5.73348 62.1191C6.12322 62.8746 6.62077 63.5357 7.25099 64.0412C8.51973 65.0549 10.1285 65.5188 11.903 65.2133C12.2375 65.1577 12.4503 64.8633 12.3978 64.5356C12.2734 63.6634 12.0247 62.8691 11.6349 62.183C11.4359 61.8414 11.2231 61.5164 10.9826 61.2137C10.7393 60.9137 10.4685 60.6415 10.1699 60.3943C9.8714 60.1499 9.54799 59.9305 9.19971 59.7444C8.85972 59.5555 8.50038 59.3917 8.11893 59.2639C7.35603 59.0084 6.51297 58.8834 5.61738 58.9223C5.27739 58.9361 5.03691 59.2111 5.05903 59.5639L5.06179 59.5666Z" fill="#A6C022"/>
<path d="M16.367 55.1926C16.8977 55.7898 17.2515 56.4453 17.492 57.1118C17.7269 57.7812 17.7822 58.495 17.7269 59.2005C17.6191 60.6059 16.8894 62.0835 15.6317 63.3056C15.3885 63.5389 15.0291 63.5501 14.7942 63.3279C14.1861 62.7363 13.7576 62.0474 13.4757 61.3336C13.3319 60.9781 13.2435 60.6059 13.1965 60.2337C13.1495 59.8616 13.1412 59.4866 13.1744 59.1144C13.2075 58.7422 13.2794 58.3756 13.3927 58.0201C13.5116 57.659 13.6775 57.3063 13.8765 56.9702C14.2773 56.2953 14.8356 55.6759 15.5405 55.1482C15.8086 54.9482 16.1652 54.9704 16.3642 55.1954L16.367 55.1926Z" fill="#A6C022"/>
<path d="M9.52536 69.502C9.72714 70.4297 10.0782 71.2824 10.5674 71.9962C11.0705 72.7045 11.6897 73.2933 12.3835 73.7266C13.807 74.5765 15.5263 74.7987 17.2594 74.2488C17.5911 74.1404 17.757 73.821 17.6685 73.4877C17.428 72.6156 17.0466 71.8601 16.5546 71.2185C16.0847 70.563 15.4959 70.027 14.8187 69.6187C13.4836 68.791 11.8113 68.4383 9.99526 68.7743C9.65251 68.8382 9.44796 69.1493 9.52536 69.502Z" fill="#A6C022"/>
<path d="M20.3555 63.4581C20.9857 63.9803 21.4418 64.5885 21.7624 65.2385C22.0969 65.8801 22.2738 66.58 22.3014 67.3132C22.3843 68.7548 21.8813 70.3351 20.7618 71.7711C20.5517 72.0405 20.1813 72.11 19.9215 71.91C19.2305 71.3906 18.6804 70.7684 18.2962 70.0852C17.9313 69.388 17.7212 68.6381 17.677 67.8798C17.6079 66.3522 18.2381 64.7913 19.5096 63.5275C19.7529 63.2859 20.115 63.2581 20.3555 63.4581Z" fill="#A6C022"/>
<path d="M15.0423 78.751C15.3768 79.712 15.8992 80.5369 16.5101 81.2285C17.132 81.9145 17.8866 82.4284 18.6827 82.7839C19.4733 83.1449 20.3633 83.2921 21.2423 83.2699C22.1241 83.2449 23.0169 83.0283 23.8848 82.6089C24.2138 82.4506 24.3492 82.0756 24.2027 81.7451C23.8213 80.8619 23.2905 80.1397 22.6935 79.5259C22.0992 78.9093 21.3943 78.4399 20.6259 78.1066C19.1167 77.4205 17.2702 77.3206 15.4404 77.9094C15.0893 78.0233 14.918 78.3843 15.0423 78.751Z" fill="#A6C022"/>
<path d="M25.5574 70.8244C26.2816 71.2882 26.8703 71.8354 27.2905 72.477C27.7189 73.1102 28.023 73.8018 28.1557 74.5656C28.2856 75.3322 28.3049 76.121 28.1446 76.9543C27.9898 77.782 27.6747 78.6374 27.191 79.479C27.0085 79.7984 26.6409 79.9151 26.3341 79.7484C25.5352 79.3068 24.847 78.7485 24.3577 78.0764C23.8685 77.4014 23.5285 76.6515 23.3792 75.86C23.1 74.2518 23.5036 72.552 24.6894 71.016C24.9106 70.7272 25.2865 70.6438 25.5574 70.8244Z" fill="#A6C022"/>
<path d="M28.6642 84.6033C28.5481 84.6033 28.4348 84.5617 28.3435 84.4756C26.7597 82.9868 25.2366 81.412 25.2201 81.3981C15.2222 70.7548 8.69325 57.4701 6.32991 42.9744C4.2955 30.4979 5.50619 17.6687 9.82655 5.87274C9.915 5.62832 10.1887 5.50333 10.4319 5.59221C10.6751 5.68387 10.8023 5.95329 10.7111 6.20048C6.446 17.8409 5.25466 30.5062 7.26142 42.8216C9.59436 57.1284 16.0376 70.2409 25.9 80.7426C25.9111 80.7537 27.4175 82.3119 28.9848 83.784C29.1755 83.9617 29.1838 84.2617 29.0069 84.4533C28.913 84.5533 28.7886 84.6033 28.6614 84.6033H28.6642Z" fill="#A6C022"/>
<path d="M199.733 3.29272C198.658 5.72024 199.562 8.07555 201.898 9.24765C202.122 9.35597 202.384 9.27542 202.503 9.056C203.802 6.71736 202.768 4.00931 200.319 3.0483C200.087 2.95664 199.836 3.06219 199.733 3.29272Z" fill="#A6C022"/>
<path d="M198.694 13.3337C198.65 13.9447 198.694 14.5224 198.871 15.0418C199.042 15.5612 199.324 16.0306 199.675 16.4389C200.383 17.2527 201.497 17.811 202.81 17.9582C203.061 17.986 203.28 17.8249 203.318 17.5832C203.404 16.9472 203.352 16.3361 203.194 15.7779C203.114 15.5001 203.012 15.2335 202.873 14.9835C202.732 14.7363 202.567 14.5058 202.376 14.2975C201.621 13.4559 200.513 12.9448 199.169 12.9309C198.915 12.9282 198.713 13.1004 198.694 13.3337Z" fill="#A6C022"/>
<path d="M207.5 10.9366C207.882 11.5115 208.1 12.1337 208.214 12.7503C208.324 13.3669 208.313 13.9807 208.155 14.564C207.851 15.7305 207.102 16.736 205.908 17.372C205.684 17.4915 205.422 17.4165 205.303 17.1998C204.974 16.6277 204.767 16.0388 204.684 15.45C204.642 15.1556 204.634 14.8612 204.648 14.5723C204.656 14.2835 204.698 13.9974 204.764 13.7169C205.038 12.5948 205.764 11.5449 206.873 10.8033C207.086 10.6616 207.354 10.72 207.5 10.9366Z" fill="#A6C022"/>
<path d="M199.518 21.2821C199.36 21.9848 199.377 22.6486 199.49 23.2763C199.603 23.9012 199.852 24.4845 200.22 25.0039C200.936 26.0455 202.105 26.862 203.642 27.237C203.932 27.3092 204.208 27.1564 204.283 26.8787C204.479 26.151 204.529 25.4316 204.424 24.7567C204.305 24.0846 204.051 23.4568 203.68 22.9152C202.929 21.8265 201.668 21.0849 200.128 20.8821C199.835 20.8432 199.57 21.0182 199.512 21.2821H199.518Z" fill="#A6C022"/>
<path d="M210.137 19.7074C210.486 20.4434 210.699 21.2044 210.729 21.9488C210.759 22.6932 210.643 23.4181 210.397 24.0791C209.88 25.4068 208.813 26.4761 207.348 27.0316C207.069 27.1371 206.773 27.0094 206.66 26.7344C206.362 26.0122 206.226 25.2929 206.218 24.593C206.193 23.8958 206.312 23.2153 206.561 22.5765C207.047 21.3016 208.004 20.1795 209.427 19.4574C209.695 19.3213 209.999 19.4268 210.135 19.7074H210.137Z" fill="#A6C022"/>
<path d="M200.059 29.8483C199.556 31.237 199.689 32.5757 200.272 33.7395C200.891 34.9005 201.956 35.8893 203.47 36.4781C203.758 36.5892 204.062 36.4698 204.178 36.2004C204.333 35.8421 204.446 35.481 204.521 35.1227C204.59 34.7616 204.609 34.4033 204.601 34.0534C204.571 33.3507 204.424 32.6757 204.095 32.0702C203.448 30.8565 202.309 29.9316 200.731 29.5205C200.435 29.4427 200.142 29.5844 200.057 29.8483H200.059Z" fill="#A6C022"/>
<path d="M211.122 29.6508C211.642 31.2534 211.509 32.8755 210.799 34.1642C210.121 35.4558 208.864 36.4057 207.288 36.7751C206.987 36.8445 206.705 36.6751 206.63 36.3779C206.531 35.989 206.47 35.6057 206.448 35.2308C206.42 34.8558 206.417 34.4864 206.456 34.1281C206.525 33.4115 206.766 32.7338 207.084 32.1117C207.725 30.8729 208.905 29.8508 210.425 29.3008C210.716 29.1953 211.017 29.3453 211.122 29.6508Z" fill="#A6C022"/>
<path d="M199.554 38.4444C199.388 38.7805 199.261 39.1166 199.175 39.4527C199.081 39.7887 199.018 40.122 198.995 40.4553C198.943 41.1191 199.07 41.7802 199.283 42.4023C199.717 43.6467 200.726 44.7965 202.16 45.5853C202.434 45.7353 202.76 45.6548 202.918 45.3965C203.305 44.7104 203.537 43.9911 203.614 43.28C203.634 43.1023 203.645 42.9245 203.645 42.7495C203.639 42.5718 203.625 42.3968 203.601 42.2246C203.554 41.8774 203.471 41.5385 203.352 41.2136C202.893 39.9082 201.798 38.8194 200.286 38.2028C199.999 38.0861 199.684 38.1917 199.557 38.4444H199.554Z" fill="#A6C022"/>
<path d="M210.751 39.6863C210.837 40.1085 210.878 40.5279 210.884 40.9361C210.884 41.3444 210.831 41.7416 210.754 42.1249C210.585 42.8915 210.304 43.5997 209.856 44.2025C208.963 45.4107 207.633 46.2161 205.975 46.3828C205.66 46.4133 205.4 46.205 205.367 45.8967C205.251 45.0829 205.295 44.3136 205.475 43.6025C205.519 43.4248 205.574 43.2498 205.635 43.0804C205.693 42.9082 205.757 42.7415 205.828 42.5776C205.975 42.2499 206.152 41.9388 206.359 41.6472C207.208 40.4834 208.468 39.6002 210.096 39.2447C210.406 39.178 210.688 39.3669 210.751 39.6863Z" fill="#A6C022"/>
<path d="M197.975 46.8938C197.104 48.1548 196.897 49.5324 197.176 50.8517C197.494 52.1793 198.312 53.4542 199.675 54.4485C199.935 54.6374 200.272 54.5985 200.46 54.3569C200.709 54.0375 200.922 53.707 201.09 53.3653C201.248 53.0209 201.367 52.6654 201.447 52.3099C201.527 51.9544 201.571 51.5961 201.574 51.2406C201.574 51.0628 201.568 50.885 201.552 50.7101C201.53 50.5323 201.496 50.3573 201.455 50.1851C201.118 48.7964 200.217 47.5687 198.735 46.741C198.456 46.5855 198.127 46.6522 197.972 46.8938H197.975Z" fill="#A6C022"/>
<path d="M209.153 49.5961C209.255 51.346 208.705 52.9513 207.646 54.0596C206.624 55.1817 205.117 55.8066 203.431 55.7594C203.111 55.751 202.873 55.5039 202.873 55.1872C202.876 54.7706 202.92 54.3706 202.994 53.9873C203.058 53.6013 203.158 53.2319 203.29 52.8819C203.423 52.5319 203.589 52.2014 203.785 51.8903C203.884 51.7348 203.99 51.5848 204.103 51.4404C204.211 51.2932 204.324 51.1543 204.448 51.0182C205.416 49.9406 206.873 49.224 208.542 49.0656C208.863 49.0379 209.125 49.2656 209.153 49.5989V49.5961Z" fill="#A6C022"/>
<path d="M195.07 55.1898C194.539 55.787 194.185 56.4424 193.945 57.109C193.71 57.7784 193.655 58.4922 193.71 59.1977C193.818 60.6031 194.547 62.0807 195.805 63.3028C196.048 63.5361 196.408 63.5472 196.643 63.325C197.251 62.7334 197.679 62.0446 197.964 61.3308C198.108 60.9753 198.196 60.6031 198.24 60.2309C198.287 59.8587 198.296 59.4838 198.263 59.1116C198.229 58.7394 198.157 58.3728 198.044 58.0173C197.925 57.6562 197.759 57.3035 197.56 56.9674C197.16 56.2925 196.601 55.6731 195.896 55.1454C195.628 54.9454 195.274 54.9676 195.073 55.1926L195.07 55.1898Z" fill="#A6C022"/>
<path d="M206.378 59.5669C206.317 60.4946 206.101 61.3695 205.706 62.1194C205.316 62.8749 204.819 63.5359 204.189 64.0414C202.92 65.0552 201.311 65.519 199.537 65.2135C199.202 65.158 198.989 64.8635 199.042 64.5358C199.166 63.6637 199.415 62.8693 199.805 62.1833C200.004 61.8416 200.217 61.5167 200.457 61.2139C200.7 60.914 200.971 60.6418 201.27 60.3946C201.568 60.1502 201.892 59.9307 202.24 59.7446C202.58 59.5558 202.939 59.3919 203.321 59.2641C204.084 59.0086 204.927 58.8836 205.822 58.9225C206.162 58.9364 206.403 59.2114 206.381 59.5641L206.378 59.5669Z" fill="#A6C022"/>
<path d="M191.081 63.4585C190.451 63.9806 189.995 64.5889 189.674 65.2388C189.34 65.8804 189.163 66.5803 189.135 67.3136C189.053 68.7551 189.556 70.3355 190.675 71.7715C190.885 72.0409 191.256 72.1103 191.515 71.9103C192.206 71.391 192.757 70.7688 193.141 70.0855C193.506 69.3884 193.716 68.6385 193.76 67.8802C193.829 66.3526 193.199 64.7916 191.927 63.5279C191.684 63.2863 191.322 63.2585 191.081 63.4585Z" fill="#A6C022"/>
<path d="M201.914 69.5025C201.712 70.4302 201.361 71.2829 200.872 71.9967C200.369 72.705 199.75 73.2938 199.056 73.7271C197.633 74.577 195.913 74.7992 194.18 74.2493C193.849 74.1409 193.683 73.8215 193.771 73.4882C194.012 72.6161 194.393 71.8606 194.885 71.219C195.355 70.5635 195.944 70.0275 196.621 69.6192C197.956 68.7915 199.628 68.4388 201.444 68.7748C201.787 68.8387 201.992 69.1498 201.914 69.5025Z" fill="#A6C022"/>
<path d="M185.88 70.8247C185.155 71.2886 184.567 71.8357 184.146 72.4773C183.718 73.1106 183.414 73.8022 183.281 74.566C183.151 75.3326 183.132 76.1214 183.292 76.9546C183.447 77.7823 183.762 78.6378 184.246 79.4794C184.428 79.7988 184.796 79.9154 185.103 79.7488C185.902 79.3072 186.59 78.7489 187.079 78.0767C187.568 77.4018 187.908 76.6519 188.058 75.8603C188.337 74.2522 187.933 72.5523 186.748 71.0164C186.526 70.7275 186.15 70.6442 185.88 70.8247Z" fill="#A6C022"/>
<path d="M196.397 78.7513C196.062 79.7123 195.54 80.5372 194.929 81.2288C194.307 81.9149 193.553 82.4287 192.756 82.7842C191.966 83.1453 191.076 83.2925 190.197 83.2703C189.315 83.2453 188.422 83.0259 187.554 82.6093C187.225 82.4509 187.09 82.076 187.236 81.7455C187.618 80.8622 188.149 80.1401 188.746 79.5262C189.34 78.9096 190.045 78.4403 190.813 78.107C192.322 77.4209 194.169 77.3209 195.999 77.9098C196.347 78.0236 196.521 78.3847 196.397 78.7513Z" fill="#A6C022"/>
<path d="M182.772 84.6031C182.645 84.6031 182.521 84.5531 182.427 84.4531C182.25 84.2615 182.258 83.9615 182.449 83.7837C184.016 82.3117 185.523 80.7535 185.539 80.7368C195.396 70.2407 201.842 57.1282 204.175 42.8214C206.182 30.506 204.991 17.8407 200.725 6.20025C200.634 5.95583 200.761 5.68364 201.005 5.59198C201.248 5.50033 201.519 5.62809 201.61 5.87251C205.93 17.6685 207.138 30.4977 205.107 42.9742C202.743 57.4698 196.214 70.7546 186.222 81.3923C186.203 81.4118 184.68 82.9866 183.096 84.4753C183.005 84.5614 182.888 84.6031 182.775 84.6031H182.772Z" fill="#A6C022"/>
<path d="M84.7218 9.203H80.3374L78.9794 9.3194L78.7466 8.427L80.3374 8.5434H90.1538L90.697 7.8644H90.9686C91.958 8.621 92.1714 8.7762 92.1714 9.009C92.1714 9.1642 92.0162 9.3 91.5506 9.4552V10.658L91.6476 12.2488L91.4536 12.4428L90.3284 12.4816V11.822H85.9052V13.9754H91.667L92.3266 13.1994H92.5788C93.607 13.9948 93.801 14.1888 93.801 14.4022C93.801 14.5768 93.6458 14.732 93.122 14.8872C92.9668 15.896 92.8504 16.8272 92.4624 17.8554C91.9968 19.097 91.1626 19.485 89.6106 19.5044C89.5912 18.9224 89.3002 18.5538 87.981 18.127L88.078 17.6808C89.1838 17.8942 89.63 17.9718 90.0762 17.9718C90.6776 17.9718 91.0462 17.836 91.2984 17.254C91.6282 16.4586 91.7446 15.6438 91.861 14.635H85.9052V16.7108L85.9828 20.4162L85.7888 20.6102L84.6054 20.649L84.78 15.605C82.7236 17.6226 79.9494 19.2522 76.9036 20.0864L76.6708 19.679C79.3092 18.5926 82.0252 16.8466 83.9652 14.635H78.9406C78.8048 14.9454 78.6884 15.2752 78.5526 15.5662L78.3004 15.7408L77.117 15.605C77.7184 14.344 78.3004 12.792 78.6302 11.6862C78.7466 11.3176 78.8436 10.9296 78.9018 10.5416L79.0182 10.4446C79.445 10.658 79.8912 10.9102 80.3374 11.1624H84.7218V9.203ZM85.9052 9.203V11.1624H90.3284V9.203H85.9052ZM84.7218 11.822H79.9494C79.6972 12.5398 79.4644 13.2576 79.1928 13.9754H84.7218V11.822ZM85.4008 5.4394H81.579C82.4714 6.0408 82.9176 6.584 82.9176 7.1078C82.9176 7.4376 82.7624 7.7674 82.3938 7.7674C82.0446 7.7674 81.9282 7.554 81.7536 6.9914C81.6178 6.5258 81.3462 5.9826 80.9 5.4394H79.3868C78.5526 6.6616 77.602 7.5346 76.3992 8.3882L76.0888 8.039C77.4274 6.7586 78.2034 5.6528 78.863 4.0038C79.0376 3.5576 79.1152 3.1308 79.1346 2.7622L79.2704 2.704C80.6672 3.189 81.1522 3.48 81.1522 3.7322C81.1522 3.9262 80.8806 4.0232 80.221 4.0232C80.0852 4.2948 79.9494 4.547 79.7942 4.7798H83.0534L83.8876 3.7516H84.1592L85.4008 4.9738V5.4394ZM94.1502 5.4394H88.9704C90.0374 6.1184 90.5224 6.7198 90.5224 7.263C90.5224 7.7286 90.3284 7.9808 89.9792 7.9808C89.63 7.9808 89.4554 7.748 89.2808 7.1854C89.1062 6.584 88.7958 6.0214 88.2332 5.4394H86.9916C86.3708 6.3706 85.6918 7.1078 84.6248 7.9226L84.2756 7.6122C85.3232 6.5452 85.9634 5.517 86.526 4.062C86.72 3.577 86.7976 3.189 86.817 2.7622L86.9528 2.704C88.3496 3.189 88.7764 3.4412 88.7764 3.6934C88.7764 3.8874 88.5242 3.9844 87.8646 3.9844C87.7094 4.2754 87.5542 4.5276 87.4184 4.7798H91.6476L92.5206 3.6546H92.7922L94.1502 4.9738V5.4394ZM104.84 15.1394H102.725V16.6526C102.725 17.9718 102.803 18.0688 103.87 18.224L104.801 18.3404V19C104.005 18.9418 102.88 18.903 101.891 18.903C100.979 18.903 99.7568 18.9418 98.9808 19V18.3404L99.9896 18.224C101.095 18.0882 101.154 17.9718 101.154 16.6526V15.1394H95.6246V14.2276C97.2736 11.1236 99.3494 7.5928 100.882 5.129H102.725V14.053H105.131L104.84 15.1394ZM96.808 14.053H101.154V6.2542C99.8732 8.2912 98.1466 11.4534 96.808 14.053ZM107.304 18.5344V17.9524C107.789 18.0882 108.332 18.1852 108.992 18.1852C111.514 18.1852 113.124 16.4004 113.202 12.1712C112.503 12.9666 111.359 13.5486 110.001 13.5486C107.828 13.5486 106.451 12.21 106.451 9.7462C106.451 6.7198 108.216 4.9738 110.622 4.9738C113.26 4.9738 114.948 6.487 114.948 11.0266C114.948 16.478 112.484 19.097 109.07 19.097C108.507 19.097 108.022 19.0776 107.556 18.9612C107.362 18.903 107.304 18.7866 107.304 18.5344ZM110.835 12.5398C111.98 12.5398 112.736 11.9966 113.182 11.4534C113.202 11.2594 113.202 11.0654 113.202 10.8132C113.202 6.9914 112.251 5.7498 110.466 5.7498C108.914 5.7498 108.158 7.1466 108.158 9.2418C108.158 11.2788 108.973 12.5398 110.835 12.5398ZM127.947 14.4604H123.368V15.4498L123.174 15.6438L122.068 15.6826L122.165 12.1906V9.6298C122.165 8.7568 122.088 8.2718 121.874 7.6898L121.991 7.5734C122.612 7.845 123.116 8.1166 123.659 8.427H127.714L128.335 7.6704H128.606C129.654 8.4658 129.867 8.6598 129.867 8.8926C129.867 9.0866 129.654 9.2224 129.169 9.4164V12.016L129.266 15.2558L129.072 15.4498L127.947 15.4886V14.4604ZM127.947 13.8008V9.0866H123.368V13.8008H127.947ZM119.585 4.1784H131.865L132.506 3.4024H132.777C133.941 4.2366 134.155 4.4112 134.155 4.644C134.155 4.838 133.961 4.9738 133.379 5.1678V15.1588L133.495 19.9118L133.301 20.1058L132.118 20.1446V19.0776H119.275V20.0088L119.081 20.2028L117.917 20.2416L118.033 15.217V5.3812C118.033 4.5858 117.956 4.062 117.762 3.4218L117.878 3.3054C118.499 3.5964 119.023 3.8486 119.585 4.1784ZM119.275 4.838V18.418H132.118V4.838H119.275ZM35.5987 29.8186V29.2158C36.0919 28.9692 36.5304 28.8596 36.9414 28.8596C37.4894 28.8596 38.147 29.024 38.8047 29.3254C39.4075 29.5994 39.7089 29.9008 39.7089 30.2844C39.7089 30.3941 39.6815 30.5859 39.6267 30.8599C39.5445 31.2161 39.4897 31.5175 39.4349 32.0381C39.4075 32.3396 39.3801 32.915 39.3527 33.874C41.6544 33.6 43.3533 33.4904 44.6686 33.3808C45.1892 33.326 45.4085 33.2712 45.7647 33.1068C45.9839 32.9972 46.2305 32.915 46.4497 32.915C46.8059 32.915 47.354 33.2164 47.8472 33.5178C48.3404 33.8192 48.6692 34.1207 48.6692 34.4769C48.6692 34.8057 48.4774 34.9701 47.765 34.9701C46.6415 34.9701 45.9291 34.8879 45.107 34.8879C43.8466 34.8879 41.8189 34.9153 39.3527 35.1619C39.3253 37.2444 39.3253 39.0803 39.3527 41.2177C39.4897 42.2589 39.5171 43.1358 39.5171 44.0674C39.5171 48.9723 37.3524 51.3288 32.5571 52.5893L32.2283 51.9317C36.1741 50.315 37.599 48.0954 37.7908 44.9991C36.9688 46.0403 36.2837 46.3691 35.4617 46.3691C33.9546 46.3691 32.9682 44.6976 32.9682 42.8069C32.9682 40.0942 34.6122 37.9295 36.2563 37.9295C36.914 37.9295 37.325 38.1213 37.7634 38.5597V35.3537C35.0233 35.7099 32.1187 36.2854 30.228 36.7786C29.4334 36.9978 28.9675 37.1348 28.6661 37.2718C28.4743 37.354 28.2277 37.4362 27.9811 37.4362C27.5153 37.4362 27.0494 37.1896 26.5288 36.7786C26.0082 36.3676 25.5971 35.6825 25.4601 34.8057L25.8986 34.3947C26.6384 35.2715 27.4056 35.5455 27.9811 35.5455C28.2003 35.5455 28.8579 35.4633 29.406 35.3811C32.4201 34.8331 34.9411 34.4221 37.7634 34.0659C37.7634 32.9424 37.736 32.0381 37.6812 31.2435C37.6538 30.8599 37.5442 30.5311 37.2702 30.257C36.914 29.9556 36.3385 29.8186 35.5987 29.8186ZM34.0094 42.6151C34.0094 44.0126 34.6122 44.9717 35.4891 44.9717C36.5852 44.9717 37.7086 43.4372 37.7086 41.5739C37.7086 40.1216 36.9962 39.1077 36.1193 39.1077C34.9959 39.1077 34.0094 40.7244 34.0094 42.6151ZM70.8371 30.0378L71.2481 29.572C74.3445 30.7503 75.3309 32.0107 75.3309 32.8054C75.3309 33.4082 74.9199 33.8192 74.4267 33.8192C73.906 33.8192 73.6868 33.5178 73.1114 32.5588C72.5086 31.5997 71.7413 30.7503 70.8371 30.0378ZM73.358 28.2293L73.7142 27.7361C76.9202 28.613 78.0711 29.7638 78.0711 30.6133C78.0711 31.2161 77.6875 31.5449 77.249 31.5449C76.7832 31.5449 76.5366 31.3531 75.8789 30.4489C75.1939 29.572 74.3445 28.8322 73.358 28.2293ZM66.6994 31.3805L66.8912 30.7777C67.0557 30.7503 67.2201 30.7503 67.3571 30.7503C68.0969 30.7503 68.9464 31.0243 69.6314 31.4353C70.289 31.8189 70.6727 32.2574 70.6727 32.7506C70.6727 32.915 70.6727 33.1068 70.6453 33.3534C70.6179 33.6 70.5905 33.9014 70.5631 34.2303C70.5083 34.8331 70.5083 35.4907 70.4808 36.3676C71.4673 36.1758 72.1797 35.9566 72.5634 35.7922C72.81 35.6825 73.0292 35.6003 73.3306 35.6003C73.7416 35.6003 74.1253 35.7373 74.3445 35.847C74.6733 35.984 74.8651 36.258 74.8651 36.5046C74.8651 36.943 74.5637 37.1896 72.8922 37.5184C72.2894 37.6281 71.5769 37.7651 70.4808 37.9021C70.4808 40.6148 70.5083 43.355 70.5083 46.0677C71.6591 46.3965 72.4264 46.7528 73.2758 47.1638C74.5911 47.8214 75.1939 48.4791 75.1939 49.1641C75.1939 49.6847 74.8925 50.0409 74.4815 50.0409C74.1527 50.0409 73.8512 49.8765 73.084 49.2737C72.1797 48.5887 71.4399 48.1228 70.4534 47.6844C70.1246 49.7395 68.6449 50.6712 66.0692 50.6712C63.5483 50.6712 61.959 49.6025 61.959 47.9584C61.959 46.3965 63.4387 45.4101 66.0692 45.4101C66.9735 45.4101 67.8777 45.4649 68.8642 45.6567V38.0939C67.6585 38.2309 66.8364 38.3131 66.2884 38.3131C64.5073 38.3131 63.3839 37.7925 62.4796 36.6416L62.8084 36.121C63.8223 36.7238 64.8635 36.943 65.987 36.943C66.6994 36.943 67.5763 36.8334 68.8642 36.6416V35.1071C68.8642 33.7644 68.6723 32.9698 68.3161 32.4492C68.0147 31.9833 67.4941 31.5997 66.6994 31.3805ZM62.918 47.931C62.918 48.9175 64.0415 49.4107 65.9322 49.4107C67.8503 49.4107 68.7546 48.5339 68.8642 47.0816C67.8229 46.7528 66.7542 46.5336 65.713 46.5336C64.0689 46.5336 62.918 47.0268 62.918 47.931ZM59.027 40.8614L59.6572 41.2451C58.7256 42.944 57.7665 44.8895 57.2185 46.4787C56.9993 47.1912 56.9445 47.7118 56.9445 48.3969C56.9445 48.6435 56.9719 48.9723 57.0267 49.3285C57.0541 49.5203 57.1089 49.8765 57.1089 50.178C57.1089 50.726 56.8623 51.0548 56.3691 51.0548C55.684 51.0548 55.0538 49.9039 54.5606 48.3969C54.0673 46.9172 53.8481 45.1361 53.8481 43.7934C53.8481 42.5055 54.0399 40.834 54.4784 38.9707C54.6702 38.1213 54.999 36.8608 55.3004 35.5455C55.41 35.0523 55.4922 34.5043 55.4922 34.2029C55.4922 33.6274 55.41 33.0794 54.8072 31.8463L55.3278 31.4901C55.9854 31.9011 56.5883 32.5314 56.9719 33.0794C57.2459 33.4904 57.4377 33.9837 57.4377 34.3673C57.4377 34.5043 57.4377 34.7783 57.2733 35.2441C57.1911 35.4633 57.0541 35.8196 56.9171 36.2032C56.5883 37.08 56.2595 38.3131 55.9854 39.3269C55.547 41.0258 55.3278 42.4507 55.3278 43.7934C55.3278 44.588 55.41 45.3827 55.6292 46.1225C55.6566 46.2321 55.7388 46.3691 55.7936 46.3691C55.8484 46.3691 55.9306 46.2321 55.9854 46.1225C56.8623 44.314 57.9035 42.5055 59.027 40.8614ZM88.7029 40.012L88.7303 40.0668C90.2648 39.2721 92.1281 38.7241 93.8544 38.7241C98.129 38.7241 100.897 41.3547 100.897 44.7525C100.897 48.9723 96.7041 51.822 92.0184 51.822C88.7577 51.822 86.6203 50.6164 86.6203 48.7257C86.6203 47.3556 87.963 46.0951 89.9907 46.0951C92.5665 46.0951 94.238 47.657 94.8682 49.9861C97.3069 49.1093 98.951 47.2186 98.951 44.725C98.951 41.9301 96.9507 39.8202 93.5529 39.8202C92.0459 39.8202 90.2099 40.3956 88.3192 41.5739C86.8944 42.4507 85.8805 43.3002 84.5652 44.6702C83.935 45.3553 83.5514 45.6567 83.1952 45.6567C82.7567 45.6567 82.5101 45.2457 82.5101 44.6976C82.5101 44.1222 82.6471 43.6564 83.25 43.218C83.6062 42.944 84.0446 42.5877 84.4556 42.2315C85.5243 41.2999 86.5107 40.3408 87.3328 39.5188C90.1003 36.6416 91.6896 34.8331 93.8544 32.23C94.1284 31.8737 94.1832 31.6819 94.1832 31.5997C94.1832 31.4901 94.101 31.4353 93.9914 31.4353C93.8818 31.4353 93.6899 31.4627 93.3337 31.5723C91.991 32.0381 89.9633 32.778 88.374 33.3808C88.0178 33.5178 87.7986 33.6274 87.5794 33.7644C87.3876 33.9014 87.1684 34.0111 86.8944 34.0111C86.5929 34.0111 86.1271 33.737 85.7983 33.3808C85.2503 32.8054 84.8941 32.0655 85.0037 31.1339L85.5791 30.8599C85.8805 31.7093 86.4285 32.0655 86.9492 32.0655C87.2506 32.0655 87.6342 31.9833 87.9356 31.9011C89.6893 31.4079 91.6348 30.8051 93.3885 30.2296C93.6351 30.1474 93.8269 30.0652 94.0462 29.9282C94.2928 29.7638 94.4846 29.709 94.6216 29.709C94.9504 29.709 95.3888 30.0378 95.8821 30.5311C96.4575 31.0791 96.8137 31.4353 96.8137 31.8189C96.8137 32.1477 96.5945 32.367 96.2657 32.5314C95.8821 32.7232 95.5258 32.9424 95.06 33.4082C93.0597 35.5181 90.7032 37.9295 88.7029 40.012ZM93.3063 50.3698C92.8405 48.3147 91.5526 47.1364 89.7715 47.1364C88.374 47.1364 87.5794 47.8214 87.5794 48.6161C87.5794 49.6573 89.0591 50.5068 91.6896 50.5068C92.2377 50.5068 92.7857 50.452 93.3063 50.3698ZM113.035 34.1481H109.254L107.309 34.3125L107.007 33.052L109.254 33.2164H118.105V31.0791C118.105 29.9008 118.022 29.298 117.721 28.5307L117.858 28.3663C120.571 28.7774 121.174 28.9418 121.174 29.3802C121.174 29.709 120.9 29.8734 119.968 30.12V33.2164H127.531L128.928 31.4627H129.312L131.367 33.4904V34.1481H125.421C124.982 36.0662 124.434 37.9569 123.64 39.7654C122.818 41.6287 121.722 43.3824 120.434 44.9443C123.119 47.3282 126.791 49.3285 131.614 50.4246L131.477 51C130.463 51.0274 129.668 51.5754 129.339 52.3975C125.257 50.9452 121.914 48.8901 119.283 46.1773C116.296 49.1915 112.241 51.3836 106.925 52.6441L106.651 52.0413C111.254 50.5068 115.228 48.1502 118.16 44.9169C116.844 43.4098 115.748 41.6013 114.871 39.7654C114.049 37.9843 113.446 36.0936 113.035 34.1481ZM123.311 34.1481H113.803C114.405 36.1758 115.2 38.0939 116.269 39.9024C117.091 41.2725 118.077 42.5603 119.173 43.7386C121.338 40.9436 122.708 37.6007 123.311 34.1481ZM155.891 35.2715H137.313C137.313 37.4088 136.71 38.7515 135.422 38.7515C134.82 38.7515 134.381 38.3405 134.381 37.7925C134.381 37.3266 134.573 37.1074 135.285 36.395C136.108 35.5455 136.272 34.5317 136.382 32.8054L137.039 32.8328C137.176 33.3808 137.231 33.874 137.286 34.3399H150.548C151.425 32.8328 152.083 31.3805 152.439 30.3118C152.685 29.5994 152.795 29.161 152.795 28.5307L152.987 28.4485C155.453 29.572 155.891 29.983 155.891 30.3118C155.891 30.6955 155.59 30.8325 154.412 30.8051C153.672 31.8737 152.685 33.1342 151.562 34.3399H155.672L156.686 33.189H157.07C158.741 34.5865 159.125 35.0249 159.125 35.3537C159.125 35.7373 158.823 35.8196 157.645 35.984C156.768 36.9704 155.974 37.8473 155.015 38.5871L154.494 38.1761C155.042 37.2718 155.563 36.2306 155.891 35.2715ZM145.725 45.1361H136.984L135.066 45.3005L134.737 44.04L136.984 44.2044H145.725V43.3002C145.725 42.3137 145.643 41.8753 145.342 41.2451L145.479 41.0806C146.328 41.2177 146.931 41.3547 147.397 41.4369C148.685 40.4778 149.753 39.5462 150.356 38.8337H141.286L139.368 38.9981L139.039 37.7377L141.286 37.9021H150.548L151.507 36.943H151.891C153.261 38.0391 153.781 38.5323 153.781 38.8611C153.781 39.1899 153.48 39.3269 152.357 39.4092C151.014 40.2586 149.699 40.9984 148.274 41.6835C148.548 41.8205 148.63 41.9301 148.63 42.0671C148.63 42.3137 148.493 42.4233 147.479 42.6973V44.2044H155.015L156.357 42.5603H156.741L158.632 44.4784V45.1361H147.479V47.4378L147.616 50.6986C147.616 52.4523 146.849 53.1647 143.999 53.2469C143.917 52.2331 143.561 51.8494 141.643 51.1918L141.807 50.5616C143.643 50.9178 144.465 51 145.013 51C145.506 51 145.725 50.7808 145.725 50.2876V45.1361ZM137.615 29.4076L138.053 28.9144C140.738 30.12 142.026 31.5723 142.026 32.8328C142.026 33.5178 141.643 33.9288 141.067 33.9288C140.574 33.9288 140.273 33.6822 139.999 32.8602C139.615 31.7367 138.93 30.5311 137.615 29.4076ZM143.89 28.3663L144.383 27.9279C146.849 29.2432 147.945 30.9421 147.945 32.1477C147.945 32.9424 147.561 33.4082 147.041 33.4082C146.493 33.4082 146.191 33.189 145.972 32.2848C145.671 30.9969 145.123 29.5994 143.89 28.3663ZM167.893 48.9997V49.5477L167.619 49.8217L166.03 49.8765L166.167 45.3827V41.6561C166.167 40.423 166.14 39.875 165.838 39.0529L166.003 38.8885C166.825 39.2721 167.537 39.601 168.249 39.9572H179.758L180.662 38.9707H181.046C182.526 40.0942 182.882 40.3682 182.882 40.6148C182.882 40.8888 182.553 41.0806 181.868 41.3547V45.3005L182.005 49.3559L181.731 49.6299L180.114 49.6847V48.9997H167.893ZM167.893 48.068H180.114V46.2595H167.893V48.068ZM167.893 45.3279H180.114V43.5468H167.893V45.3279ZM167.893 42.6151H180.114V40.8888H167.893V42.6151ZM169.592 34.5317H178.278L179.128 33.6274H179.512C180.882 34.5591 181.293 34.8605 181.293 35.1893C181.293 35.4359 181.046 35.6277 180.306 35.8744V36.395L180.361 38.5597L180.087 38.8337L178.58 38.8885V38.3953H169.263V38.6419L168.989 38.9159L167.51 38.9707L167.564 36.806V36.2306C167.564 35.1345 167.51 34.6139 167.318 33.6822L167.482 33.5178C168.332 33.874 168.907 34.1481 169.592 34.5317ZM169.263 35.4633V37.4636H178.58V35.4633H169.263ZM183.293 32.9972H164.715C164.715 35.1345 164.112 36.2032 162.824 36.2032C162.221 36.2032 161.81 35.8196 161.81 35.2167C161.81 34.8057 162.002 34.5865 162.468 34.0933C163.317 33.189 163.728 32.3122 163.783 30.5311L164.441 30.5585C164.578 31.1065 164.632 31.5997 164.687 32.0655H169.017C168.852 31.9011 168.688 31.6545 168.523 31.2709C168.085 30.3941 167.592 29.709 166.523 28.9144L166.934 28.3937C169.373 29.1884 170.387 30.2022 170.387 31.3257C170.387 31.7093 170.277 31.9285 170.113 32.0655H173.072V30.1748C173.072 29.1336 172.963 28.5856 172.634 27.9279L172.771 27.7635C175.593 28.2019 176.004 28.3663 176.004 28.8048C176.004 29.1336 175.758 29.2706 174.744 29.5172V32.0655H177.456C178.059 31.1613 178.415 30.4763 178.662 29.9556C179.018 29.1884 179.128 28.8596 179.183 28.3663L179.375 28.2841C181.101 29.024 181.868 29.4624 181.868 29.7638C181.868 30.1474 181.621 30.2296 180.608 30.1474C180.005 30.7777 179.402 31.3531 178.552 32.0655H183.074L184.088 30.9147H184.471C186.143 32.3122 186.526 32.7506 186.526 33.0794C186.526 33.463 186.225 33.5452 185.047 33.7096C184.416 34.3947 183.622 35.1619 182.663 35.9018L182.142 35.4907C182.69 34.5865 182.964 33.9562 183.293 32.9972ZM169.51 49.4107L169.729 49.3559C171.565 50.3424 171.866 50.5616 171.866 50.863C171.866 51.0822 171.675 51.2192 171.154 51.2192C170.935 51.2192 170.633 51.1918 170.277 51.137C167.756 52.3427 165.619 52.9181 162.139 53.4387L161.92 52.8085C164.742 52.1235 166.551 51.4658 168.003 50.6164C168.907 50.0957 169.236 49.7669 169.51 49.4107ZM176.306 50.2054L176.552 49.6025C182.06 50.2328 184.252 51.3562 184.252 52.5345C184.252 53.1373 184.005 53.3565 183.485 53.3565C183.046 53.3565 182.608 53.1099 181.923 52.5893C180.745 51.6576 178.963 50.9452 176.306 50.2054ZM103.842 77.224L103.775 77.7168C102.924 77.8288 102.521 78.1872 102.297 78.9488C99.2056 78.2544 96.54 77.1792 94.3224 75.32C91.6344 77.224 88.4312 78.344 84.8024 78.9936L84.6232 78.4784C87.8488 77.6272 90.8728 76.3952 93.3816 74.4688C92.4856 73.5504 91.7016 72.52 91.052 71.4224C90.6488 70.7504 90.3128 70.056 89.9768 69.3392H88.7448L87.1768 69.4736L86.908 68.4432L88.7448 68.5776H97.66L98.4888 67.6144H98.8024C100.214 68.7568 100.37 68.9584 100.37 69.2048C100.37 69.4512 100.079 69.5856 99.2952 69.8096C98.1752 71.7136 96.8536 73.2816 95.3304 74.536C97.6152 76.0144 100.393 76.7984 103.842 77.224ZM97.7272 69.3392H90.716C91.612 70.9968 92.7768 72.5424 94.2552 73.7296C95.644 72.52 96.8088 71.0864 97.7272 69.3392ZM97.5928 65.1056H101.714L102.543 64.1648H102.857C104.223 65.3072 104.537 65.6208 104.537 65.8896C104.537 66.2032 104.29 66.2704 103.327 66.4496C102.678 67.0992 101.916 67.816 101.065 68.4208L100.639 68.0848C101.154 67.3232 101.535 66.7184 101.894 65.8672H86.4824C86.4824 67.6144 85.9896 68.712 84.9368 68.712C84.444 68.712 84.0856 68.376 84.0856 67.928C84.0856 67.5472 84.2424 67.368 84.8248 66.7856C85.4968 66.0912 85.6312 65.2624 85.7208 63.8512L86.2584 63.8736C86.3704 64.3216 86.4152 64.7248 86.46 65.1056H96.764C97.4808 63.9856 97.9512 63.0672 98.2424 62.3728C98.4888 61.7904 98.6008 61.432 98.6232 61.0064L98.78 60.9392C100.706 61.9472 100.953 62.1488 100.953 62.4176C100.953 62.7088 100.796 62.7984 99.788 62.7088C99.1832 63.4704 98.444 64.3216 97.5928 65.1056ZM87.916 61.8128L88.2744 61.4096C89.9096 62.3056 90.5144 63.1344 90.5144 63.896C90.5144 64.4112 90.268 64.7472 89.82 64.7472C89.4168 64.7472 89.2152 64.456 89.0808 63.9408C88.9016 63.2688 88.588 62.552 87.916 61.8128ZM92.5528 61.3872L92.9784 61.0736C94.636 61.992 95.3528 62.9552 95.3528 63.7616C95.3528 64.4336 94.9944 64.7472 94.6136 64.7472C94.2328 64.7472 94.0088 64.5232 93.8744 63.9184C93.6504 63.0672 93.3592 62.328 92.5528 61.3872ZM86.4152 61.1184L86.3704 60.5808C90.2904 60.2448 93.852 59.7072 96.4728 59.0576C97.5032 58.8112 98.1304 58.6096 98.7352 58.2736H98.892C100.617 59.3488 100.975 59.6176 100.975 59.9088C100.975 60.1104 100.818 60.2224 100.572 60.2224C100.303 60.2224 99.9896 60.1552 99.0936 59.9536C94.5016 60.76 90.716 61.0736 86.4152 61.1184ZM111.705 75.3648V75.8128L111.481 76.0368L110.182 76.0816L110.294 72.408V69.3616C110.294 68.3536 110.271 67.9056 110.025 67.2336L110.159 67.0992C110.831 67.4128 111.414 67.6816 111.996 67.9728H121.404L122.143 67.1664H122.457C123.666 68.0848 123.958 68.3088 123.958 68.5104C123.958 68.7344 123.689 68.8912 123.129 69.1152V72.3408L123.241 75.656L123.017 75.88L121.695 75.9248V75.3648H111.705ZM111.705 74.6032H121.695V73.1248H111.705V74.6032ZM111.705 72.3632H121.695V70.9072H111.705V72.3632ZM111.705 70.1456H121.695V68.7344H111.705V70.1456ZM113.094 63.5376H120.194L120.889 62.7984H121.202C122.322 63.56 122.658 63.8064 122.658 64.0752C122.658 64.2768 122.457 64.4336 121.852 64.6352V65.0608L121.897 66.8304L121.673 67.0544L120.441 67.0992V66.696H112.825V66.8976L112.601 67.1216L111.391 67.1664L111.436 65.3968V64.9264C111.436 64.0304 111.391 63.6048 111.234 62.8432L111.369 62.7088C112.063 63 112.534 63.224 113.094 63.5376ZM112.825 64.2992V65.9344H120.441V64.2992H112.825ZM124.294 62.2832H109.106C109.106 64.0304 108.614 64.904 107.561 64.904C107.068 64.904 106.732 64.5904 106.732 64.0976C106.732 63.7616 106.889 63.5824 107.27 63.1792C107.964 62.44 108.3 61.7232 108.345 60.2672L108.882 60.2896C108.994 60.7376 109.039 61.1408 109.084 61.5216H112.623C112.489 61.3872 112.354 61.1856 112.22 60.872C111.862 60.1552 111.458 59.5952 110.585 58.9456L110.921 58.52C112.914 59.1696 113.743 59.9984 113.743 60.9168C113.743 61.2304 113.654 61.4096 113.519 61.5216H115.938V59.976C115.938 59.1248 115.849 58.6768 115.58 58.1392L115.692 58.0048C117.999 58.3632 118.335 58.4976 118.335 58.856C118.335 59.1248 118.134 59.2368 117.305 59.4384V61.5216H119.522C120.015 60.7824 120.306 60.2224 120.508 59.7968C120.799 59.1696 120.889 58.9008 120.934 58.4976L121.09 58.4304C122.502 59.0352 123.129 59.3936 123.129 59.64C123.129 59.9536 122.927 60.0208 122.098 59.9536C121.606 60.4688 121.113 60.9392 120.418 61.5216H124.114L124.943 60.5808H125.257C126.623 61.7232 126.937 62.0816 126.937 62.3504C126.937 62.664 126.69 62.7312 125.727 62.8656C125.212 63.4256 124.562 64.0528 123.778 64.6576L123.353 64.3216C123.801 63.5824 124.025 63.0672 124.294 62.2832ZM113.026 75.7008L113.206 75.656C114.706 76.4624 114.953 76.6416 114.953 76.888C114.953 77.0672 114.796 77.1792 114.37 77.1792C114.191 77.1792 113.945 77.1568 113.654 77.112C111.593 78.0976 109.846 78.568 107.001 78.9936L106.822 78.4784C109.129 77.9184 110.607 77.3808 111.794 76.6864C112.534 76.2608 112.802 75.992 113.026 75.7008ZM118.582 76.3504L118.783 75.8576C123.286 76.3728 125.078 77.2912 125.078 78.2544C125.078 78.7472 124.876 78.9264 124.45 78.9264C124.092 78.9264 123.734 78.7248 123.174 78.2992C122.21 77.5376 120.754 76.9552 118.582 76.3504Z" fill="white"/>
</svg>
