<svg width="206" height="67" viewBox="0 0 206 67" fill="none" xmlns="http://www.w3.org/2000/svg">
<g clip-path="url(#clip0_3_127)">
<path d="M31.29 18.92C31.29 19.37 31.12 19.74 30.77 20.05C30.43 20.36 30 20.51 29.5 20.51C29.12 20.51 28.79 20.43 28.5 20.25C27.64 19.74 26.73 19.25 25.76 18.78C25.45 18.63 25.17 18.56 24.91 18.56C24.36 18.56 23.94 18.87 23.63 19.49C21.8 23.06 19.14 25.9 15.65 28.01C15.34 28.2 15.02 28.3 14.69 28.3C14.19 28.3 13.77 28.15 13.42 27.85C13.08 27.55 12.9 27.18 12.9 26.73C12.9 26.16 13.17 25.71 13.72 25.39C16.74 23.62 19.03 21.26 20.6 18.31C20.74 18.05 20.81 17.81 20.81 17.58C20.81 17.03 20.43 16.64 19.67 16.43C16.91 15.64 15.04 15.25 14.04 15.25C13.28 15.25 12.7 15.61 12.29 16.33C11.79 17.24 10.94 18.73 9.72 20.8C9.05 21.88 8.28 22.71 7.4 23.29C6.52 23.86 5.49 24.15 4.3 24.15C3.11 24.15 2.07 23.73 1.24 22.91C0.41 22.08 -0.0100002 21.06 -0.0100002 19.85C-0.0100002 16.96 1.59 14.83 4.8 13.47C5.3 13.26 6.13 13.04 7.29 12.83C8.55 12.62 9.42 12.41 9.89 12.22C10.77 11.92 11.36 11.48 11.67 10.88L14.16 6.02999C14.33 5.72999 14.41 5.47999 14.41 5.25999C14.41 4.82999 14.1 4.61999 13.48 4.61999C13.34 4.61999 13.17 4.62999 12.98 4.64999L8.03 5.37999C7.55 5.43999 7.13 5.33999 6.75 5.05999C6.37 4.77999 6.18 4.41999 6.18 3.97999C6.18 3.61999 6.32 3.29999 6.61 3.01999C6.9 2.73999 7.24 2.57999 7.64 2.53999C11.01 2.21999 13.73 1.82999 15.8 1.35999C16.04 1.29999 16.28 1.25999 16.51 1.25999C17.17 1.25999 17.73 1.45999 18.17 1.86999C18.61 2.26999 18.83 2.74999 18.83 3.30999C18.83 3.68999 18.72 4.05999 18.51 4.42999C18.01 5.29999 16.88 7.44999 15.12 10.87C14.98 11.13 14.91 11.37 14.91 11.6C14.91 12.17 15.34 12.54 16.19 12.68C17.47 12.89 18.93 13.21 20.57 13.64C20.81 13.7 21.02 13.74 21.21 13.74C21.92 13.74 22.36 13.37 22.53 12.62C22.65 12.13 22.77 11.43 22.89 10.51C22.94 10.13 23.13 9.80999 23.46 9.54999C23.79 9.28999 24.18 9.16999 24.64 9.16999C25.16 9.16999 25.6 9.34999 25.94 9.69999C26.28 10.05 26.42 10.46 26.35 10.93C26.23 11.72 26.02 12.7 25.71 13.87C25.66 14.04 25.64 14.2 25.64 14.35C25.64 14.95 25.98 15.39 26.67 15.69C28.02 16.29 29.27 16.91 30.41 17.57C30.98 17.89 31.26 18.34 31.26 18.91L31.29 18.92ZM8.52 16.78C8.64 16.53 8.7 16.28 8.7 16.05C8.7 15.5 8.39 15.22 7.77 15.22C6.65 15.22 5.58 15.67 4.56 16.56C3.54 17.45 3.03 18.41 3.03 19.43C3.03 20.56 3.51 21.12 4.46 21.12C5.29 21.12 6.17 20.47 7.1 19.17C7.36 18.81 7.84 18.01 8.53 16.78H8.52Z" fill="black"/>
<path d="M60.83 27.18C57.84 27.65 54.71 27.88 51.46 27.88C48.49 27.88 46.07 27.49 44.19 26.7C41.65 25.64 40.38 23.92 40.38 21.56C40.38 18.84 42.46 16.39 46.62 14.22C47.71 13.65 48.19 12.85 48.05 11.83C47.84 10.26 47.73 7.25999 47.73 2.82999C47.73 2.37999 47.91 1.99999 48.26 1.66999C48.62 1.33999 49.04 1.17999 49.54 1.17999C50.04 1.17999 50.51 1.35999 50.89 1.70999C51.27 2.05999 51.44 2.46999 51.39 2.93999C51.29 4.16999 51.25 5.58999 51.25 7.17999V9.79999C51.39 11.06 51.82 11.68 52.53 11.68C52.82 11.68 53.14 11.62 53.49 11.49C54.8 11.04 56.26 10.62 57.87 10.21C58.11 10.15 58.35 10.11 58.58 10.11C59.13 10.11 59.57 10.28 59.92 10.6C60.26 10.93 60.44 11.31 60.44 11.73C60.44 12.5 59.99 12.97 59.09 13.17C49.04 15.32 44.02 18.03 44.02 21.31C44.02 23.65 46.45 24.82 51.33 24.82C54.25 24.82 57.21 24.54 60.2 23.99C60.34 23.97 60.47 23.96 60.59 23.96C61.11 23.96 61.54 24.13 61.87 24.47C62.2 24.81 62.37 25.2 62.37 25.65C62.37 26.52 61.86 27.03 60.84 27.18H60.83ZM62.08 6.40999C62.08 6.74999 61.95 7.03999 61.69 7.26999C61.43 7.49999 61.11 7.61999 60.73 7.61999C60.25 7.61999 59.87 7.42999 59.59 7.04999C59.04 6.30999 58.22 5.42999 57.13 4.42999C56.92 4.23999 56.81 3.97999 56.81 3.65999C56.81 2.88999 57.23 2.50999 58.06 2.50999C58.42 2.50999 58.73 2.62999 58.99 2.85999C60.25 4.00999 61.19 4.93999 61.8 5.66999C61.99 5.87999 62.09 6.12999 62.09 6.39999L62.08 6.40999ZM65.89 4.07999C65.89 4.41999 65.75 4.70999 65.48 4.95999C65.21 5.19999 64.88 5.32999 64.5 5.32999C64.05 5.32999 63.68 5.14999 63.4 4.78999C62.95 4.23999 62.08 3.40999 60.8 2.29999C60.59 2.10999 60.48 1.84999 60.48 1.52999C60.48 1.18999 60.6 0.889995 60.85 0.639995C61.1 0.389995 61.4 0.259995 61.76 0.259995C62.12 0.259995 62.43 0.369995 62.69 0.579994C63.78 1.46999 64.74 2.39999 65.58 3.35999C65.79 3.61999 65.9 3.85999 65.9 4.08999L65.89 4.07999Z" fill="black"/>
<path d="M94.22 12C94.22 15.79 93.38 18.98 91.71 21.57C90.04 24.17 87.36 26.47 83.67 28.49C83.41 28.64 83.08 28.71 82.67 28.71C82.15 28.71 81.7 28.54 81.33 28.22C80.96 27.89 80.78 27.49 80.78 27.02C80.78 26.38 81.09 25.89 81.71 25.55C84.8 23.83 87.02 22 88.37 20.06C89.79 18 90.51 15.4 90.51 12.27C90.51 10.8 90.27 9.52 89.8 8.41C89.21 7.05 88.38 6.37 87.31 6.37C85.77 6.37 84.35 7.56 83.07 9.94C81.93 12.05 81.25 14.18 81.04 16.35C80.97 17.03 80.71 17.56 80.26 17.95C79.88 18.25 79.48 18.4 79.05 18.4C77.98 18.4 77.33 17.83 77.09 16.68C76.71 14.83 76.52 12.68 76.52 10.24C76.52 7.8 76.86 5.06 77.55 1.72C77.72 0.870002 78.29 0.440002 79.26 0.440002C79.76 0.440002 80.18 0.590002 80.52 0.900002C80.86 1.21 81.04 1.57 81.04 1.97C81.04 2.1 81.02 2.24 80.97 2.39C80.16 5.03 79.75 7.13 79.72 8.71C79.72 9.26 79.87 9.54 80.18 9.54C80.42 9.54 80.63 9.34 80.82 8.93C81.27 7.97 81.9 7.03 82.71 6.09C84.35 4.18 86.13 3.22 88.05 3.22C90.24 3.22 91.88 4.25 92.97 6.31C93.8 7.91 94.22 9.8 94.22 11.99V12Z" fill="black"/>
<path d="M118.49 14.1C118.49 14.18 118.47 14.3 118.42 14.45C117.45 17.26 117.04 19.81 117.21 22.11C117.26 22.75 117.04 23.3 116.55 23.75C116.06 24.21 115.46 24.44 114.75 24.44C113.97 24.44 113.31 24.15 112.79 23.58C109.25 19.62 107.18 14.67 106.59 8.71C106.54 8.24 106.7 7.82 107.07 7.45C107.44 7.08 107.9 6.89 108.44 6.89C108.91 6.89 109.33 7.04 109.69 7.34C110.05 7.64 110.25 8 110.3 8.42C110.66 12.06 111.49 15.07 112.8 17.45C113.16 18.09 113.52 18.41 113.9 18.41C114.4 18.41 114.75 17.96 114.97 17.07C115.18 16.18 115.51 15.08 115.93 13.78C116.12 13.23 116.54 12.95 117.18 12.95C117.56 12.95 117.87 13.06 118.12 13.28C118.37 13.5 118.49 13.77 118.49 14.09V14.1ZM135.88 16.46C135.88 16.93 135.7 17.33 135.35 17.66C134.99 17.99 134.54 18.15 134 18.15C133.12 18.15 132.53 17.8 132.22 17.1C130.98 14.31 129.33 11.97 127.27 10.08C126.96 9.8 126.81 9.45 126.81 9.03C126.81 8.58 126.98 8.2 127.33 7.88C127.67 7.56 128.08 7.4 128.56 7.4C129.04 7.4 129.45 7.55 129.81 7.85C132.45 10.06 134.43 12.72 135.76 15.83C135.85 16.04 135.9 16.26 135.9 16.47L135.88 16.46Z" fill="black"/>
<path d="M174.15 8.49C174.15 8.89 174.01 9.25 173.72 9.54C173.43 9.84 173.08 10.01 172.65 10.05C171.46 10.18 170.06 10.38 168.44 10.66C167.2 10.87 166.55 11.57 166.48 12.77C166.36 14.66 166.21 15.97 166.02 16.69C165.4 19.2 164.17 20.46 162.31 20.46C161.74 20.46 160.75 20.27 159.35 19.89C158.66 19.7 158.32 19.27 158.32 18.61C158.32 18.25 158.47 17.94 158.77 17.68C159.07 17.42 159.41 17.3 159.79 17.3C159.96 17.3 160.22 17.35 160.59 17.46C160.96 17.57 161.23 17.62 161.39 17.62C162.08 17.62 162.57 17.22 162.85 16.41C163.04 15.84 163.16 14.77 163.21 13.22C163.23 12.39 162.88 11.98 162.14 11.98C161.97 11.98 161.81 12 161.64 12.04C159.81 12.47 157.9 12.99 155.9 13.6C155.14 13.83 154.6 14.16 154.28 14.57C153.96 14.98 153.8 15.62 153.8 16.47V20.75C153.8 22.26 154.32 23.28 155.37 23.81C156.13 24.19 157.54 24.38 159.61 24.38C161.68 24.38 164.48 24.17 167.81 23.74C168.33 23.68 168.79 23.8 169.18 24.11C169.57 24.42 169.77 24.81 169.77 25.27C169.77 26.18 169.27 26.69 168.27 26.8C165.13 27.12 162.24 27.28 159.58 27.28C156.92 27.28 154.8 26.98 153.45 26.39C151.53 25.56 150.56 24.05 150.56 21.86V19.37C150.56 19.05 150.57 18.6 150.6 18.03V16.82C150.6 16.08 150.26 15.7 149.57 15.7C149.38 15.7 149.17 15.74 148.93 15.83C147.31 16.4 145.98 16.91 144.94 17.36C144.75 17.44 144.51 17.49 144.23 17.49C143.75 17.49 143.34 17.34 143 17.04C142.66 16.74 142.48 16.38 142.48 15.96C142.48 15.24 142.84 14.75 143.55 14.49C145.33 13.85 147.09 13.25 148.82 12.67C149.98 12.29 150.57 11.56 150.57 10.5V5.49C150.57 5.04 150.74 4.67 151.09 4.36C151.43 4.05 151.86 3.9 152.36 3.9C152.86 3.9 153.28 4.06 153.62 4.38C153.96 4.7 154.12 5.08 154.1 5.53L153.92 9.58C153.9 10.35 154.24 10.73 154.95 10.73C155.12 10.73 155.31 10.7 155.52 10.63C157.23 10.16 159.21 9.66 161.47 9.13C162.7 8.83 163.32 8.13 163.32 7.02L163.36 2.87C163.36 2.61 163.54 2.29 163.89 1.9C164.24 1.51 164.65 1.31 165.1 1.31C165.57 1.31 165.98 1.46 166.31 1.77C166.64 2.08 166.81 2.45 166.81 2.87C166.81 4.57 166.8 5.78 166.77 6.51C166.75 7.3 167.11 7.69 167.87 7.69C168.01 7.69 168.17 7.68 168.33 7.66C169.95 7.34 171.19 7.12 172.07 6.99C172.62 6.91 173.1 7.01 173.51 7.31C173.93 7.61 174.13 8 174.13 8.49H174.15Z" fill="black"/>
<path d="M205.69 10.59C205.69 10.97 205.54 11.3 205.24 11.56C204.94 11.83 204.59 11.97 204.19 11.99C203.12 12.03 201.94 12.13 200.66 12.28C199.9 12.37 199.52 12.67 199.52 13.21C199.52 13.44 199.61 13.69 199.81 13.94C200.81 15.34 201.98 16.83 203.34 18.41C203.6 18.71 203.73 19.09 203.73 19.56C203.73 20.09 203.53 20.54 203.12 20.92C202.72 21.29 202.23 21.48 201.66 21.48C201.37 21.48 201.09 21.43 200.81 21.32C198.08 20.32 195.43 19.82 192.86 19.82C189.08 19.82 187.19 20.7 187.19 22.47C187.19 23.34 187.82 24.03 189.08 24.54C190.43 25.07 192.35 25.34 194.82 25.34C195.34 25.34 195.88 25.33 196.42 25.31L197.92 25.25C198.39 25.23 198.79 25.36 199.11 25.65C199.43 25.94 199.59 26.29 199.59 26.72C199.59 27.15 199.44 27.46 199.14 27.74C198.84 28.02 198.48 28.17 198.05 28.19L196.09 28.25C192.03 28.38 188.94 27.95 186.84 26.96C184.74 25.97 183.69 24.51 183.69 22.57C183.69 20.76 184.66 19.39 186.61 18.45C188.18 17.68 190.07 17.3 192.28 17.3C193.82 17.3 195.36 17.45 196.88 17.75C197.12 17.79 197.33 17.81 197.52 17.81C198.09 17.81 198.38 17.63 198.38 17.27C198.38 17.06 198.25 16.78 197.99 16.44C197.47 15.76 196.97 15.07 196.49 14.38C196.01 13.69 195.42 13.34 194.71 13.34C194.4 13.34 194.02 13.39 193.57 13.5C191.38 13.99 189.52 14.52 187.98 15.1C187.77 15.19 187.56 15.23 187.37 15.23C186.92 15.23 186.53 15.09 186.21 14.8C185.89 14.51 185.73 14.17 185.73 13.76C185.73 13.04 186.12 12.57 186.91 12.36C188.72 11.87 190.54 11.43 192.4 11.05C193.11 10.9 193.47 10.58 193.47 10.09C193.47 9.88001 193.4 9.65001 193.26 9.42001L192.94 8.88001C192.54 8.18001 191.87 7.87001 190.94 7.95001C188.97 8.12001 186.85 8.14001 184.6 8.01001C184.2 7.99001 183.85 7.84001 183.57 7.56001C183.28 7.28001 183.14 6.96001 183.14 6.60001C183.14 6.20001 183.31 5.85001 183.64 5.56001C183.97 5.27001 184.36 5.15001 184.82 5.19001C186.15 5.32001 187.59 5.36001 189.13 5.32001C189.94 5.30001 190.34 5.00001 190.34 4.43001C190.34 4.22001 190.28 3.99001 190.16 3.76001L189.38 2.13001C189.29 1.94001 189.24 1.74001 189.24 1.52001C189.24 1.12001 189.41 0.760005 189.74 0.450005C190.07 0.140005 190.49 -0.00999451 190.99 -0.00999451C191.77 -0.00999451 192.31 0.330005 192.59 1.01001C192.85 1.56001 193.24 2.42001 193.77 3.59001C194.08 4.25001 194.57 4.58001 195.23 4.58001C195.4 4.58001 195.57 4.56001 195.76 4.52001C196.88 4.24001 197.78 3.95001 198.47 3.63001C198.66 3.55001 198.9 3.50001 199.18 3.50001C199.61 3.50001 199.98 3.64001 200.28 3.91001C200.59 4.19001 200.74 4.52001 200.74 4.90001C200.74 5.56001 200.31 6.05001 199.46 6.37001C199.34 6.43001 198.59 6.62001 197.21 6.94001C196.52 7.11001 196.18 7.43001 196.18 7.90001C196.18 8.11001 196.25 8.35001 196.39 8.60001L196.64 9.01001C197 9.61001 197.52 9.90001 198.21 9.90001C198.35 9.90001 198.51 9.89001 198.67 9.87001C200.38 9.59001 202.15 9.37001 203.98 9.20001C204.43 9.16001 204.83 9.27001 205.17 9.55001C205.51 9.83001 205.69 10.17 205.69 10.57V10.59Z" fill="black"/>
</g>
<g clip-path="url(#clip1_3_127)">
<path d="M34.93 56.73C34.93 56.94 34.86 57.12 34.71 57.26C34.56 57.4 34.38 57.47 34.16 57.47H29.31C28.79 57.47 28.54 57.66 28.54 58.05C28.54 58.14 28.56 58.24 28.59 58.35C29.43 60.95 31.35 63.18 34.37 65.02C34.62 65.17 34.75 65.4 34.75 65.7C34.75 65.92 34.67 66.11 34.51 66.26C34.35 66.41 34.15 66.49 33.93 66.49C33.76 66.49 33.6 66.45 33.47 66.36C30.99 64.8 29.2 63.03 28.09 61.03C27.87 60.64 27.67 60.45 27.47 60.45C27.27 60.45 27.07 60.64 26.85 61.03C25.68 63.13 23.88 64.9 21.45 66.36C21.32 66.44 21.18 66.48 21.02 66.48C20.79 66.48 20.6 66.4 20.44 66.25C20.28 66.1 20.2 65.91 20.2 65.69C20.2 65.39 20.33 65.17 20.6 65.01C22.19 64.09 23.51 62.98 24.56 61.67C25.42 60.58 25.99 59.48 26.28 58.38C26.3 58.29 26.31 58.21 26.31 58.13C26.31 57.7 26.04 57.48 25.5 57.48H20.77C20.55 57.48 20.37 57.41 20.22 57.27C20.07 57.13 20 56.95 20 56.74C20 56.53 20.07 56.35 20.22 56.2C20.37 56.05 20.55 55.98 20.77 55.98H25.62C26.19 55.98 26.48 55.7 26.48 55.15V53.04C26.48 52.83 26.56 52.65 26.72 52.49C26.88 52.33 27.08 52.25 27.3 52.25C27.52 52.25 27.71 52.33 27.87 52.49C28.03 52.65 28.11 52.83 28.11 53.04V55.14C28.11 55.69 28.4 55.97 28.97 55.97H34.15C34.37 55.97 34.55 56.04 34.7 56.19C34.85 56.34 34.92 56.52 34.92 56.73H34.93Z" fill="black"/>
<path d="M51.34 64.38C51.34 65.5 50.76 66.07 49.59 66.07H39.7C38.52 66.07 37.93 65.51 37.93 64.38V54.88C37.93 53.74 38.52 53.18 39.7 53.18H49.59C50.76 53.18 51.34 53.75 51.34 54.88V64.38ZM43.81 58.04V55.39C43.81 54.84 43.52 54.56 42.95 54.56H40.44C39.83 54.56 39.53 54.85 39.53 55.44V58.04C39.53 58.59 39.82 58.87 40.39 58.87H42.95C43.52 58.87 43.81 58.59 43.81 58.04ZM43.81 63.83V61.08C43.81 60.53 43.52 60.25 42.95 60.25H40.39C39.82 60.25 39.53 60.53 39.53 61.08V63.79C39.53 64.36 39.83 64.65 40.44 64.65H42.95C43.52 64.65 43.81 64.37 43.81 63.82V63.83ZM49.74 58.04V55.44C49.74 54.86 49.44 54.56 48.85 54.56H46.24C45.67 54.56 45.38 54.84 45.38 55.39V58.04C45.38 58.59 45.67 58.87 46.24 58.87H48.89C49.46 58.87 49.75 58.59 49.75 58.04H49.74ZM49.74 63.8V61.09C49.74 60.54 49.45 60.26 48.88 60.26H46.23C45.66 60.26 45.37 60.54 45.37 61.09V63.84C45.37 64.39 45.66 64.67 46.23 64.67H48.84C49.44 64.67 49.73 64.38 49.73 63.81L49.74 63.8Z" fill="black"/>
<path d="M55.94 64.89L55.72 64.54C55.66 64.48 55.61 64.43 55.57 64.37C55.53 64.31 55.49 64.26 55.44 64.2C55.27 64 55.3 63.85 55.54 63.75C56.33 63.4 57.11 62.97 57.89 62.47C58.66 61.97 59.41 61.42 60.12 60.82C60.83 60.22 61.49 59.58 62.1 58.89C62.71 58.2 63.24 57.5 63.7 56.77C63.84 56.55 63.86 56.37 63.77 56.23C63.68 56.09 63.5 56.03 63.24 56.06L57.62 56.41C57.46 56.42 57.32 56.38 57.21 56.29C57.1 56.2 57.03 56.07 57 55.92L56.95 55.44C56.93 55.26 56.97 55.12 57.07 55.01C57.17 54.9 57.32 54.84 57.52 54.83H58.14C58.43 54.82 58.72 54.81 59.03 54.81C59.34 54.81 59.67 54.79 60.03 54.77C60.68 54.75 61.34 54.72 62.01 54.69C62.68 54.66 63.33 54.61 63.99 54.56C64.2 54.55 64.38 54.54 64.55 54.53C64.72 54.52 64.86 54.5 64.99 54.48C65.14 54.46 65.28 54.48 65.4 54.56L65.88 54.86C66.14 55.03 66.22 55.25 66.1 55.52C65.84 56.15 65.53 56.75 65.18 57.33C64.83 57.91 64.44 58.47 64.02 59.01C63.92 59.14 63.87 59.28 63.89 59.42C63.91 59.56 63.98 59.7 64.12 59.82C64.25 59.92 64.37 60.02 64.51 60.13C64.64 60.23 64.78 60.35 64.91 60.47C65.47 60.94 66.02 61.43 66.55 61.93C67.08 62.43 67.6 62.94 68.11 63.47C68.2 63.57 68.24 63.67 68.21 63.78C68.19 63.88 68.12 63.98 68.02 64.05C67.8 64.22 67.58 64.41 67.35 64.63C67.26 64.72 67.17 64.76 67.07 64.76C66.96 64.76 66.85 64.7 66.76 64.59C66.67 64.48 66.57 64.37 66.48 64.25C66.38 64.13 66.28 64.02 66.18 63.89C65.69 63.37 65.18 62.86 64.67 62.37C64.15 61.87 63.62 61.39 63.07 60.93C62.96 60.83 62.83 60.78 62.69 60.78C62.54 60.78 62.4 60.84 62.28 60.96C61.45 61.78 60.56 62.53 59.6 63.23C58.64 63.93 57.63 64.53 56.57 65.05C56.5 65.08 56.43 65.1 56.35 65.1C56.19 65.1 56.06 65.03 55.95 64.9L55.94 64.89Z" fill="black"/>
<path d="M74.43 65.98L73.88 65.25C73.88 65.25 73.78 65.14 73.71 65.05C73.59 64.94 73.61 64.85 73.76 64.79C74.41 64.54 75 64.25 75.51 63.93C76.02 63.61 76.46 63.24 76.82 62.81C77.18 62.38 77.47 61.9 77.69 61.36C77.91 60.82 78.06 60.21 78.14 59.52C78.16 59.34 78.12 59.2 78.01 59.09C77.9 58.98 77.75 58.93 77.57 58.94L74.23 58.97L72.84 59H72.48C72.25 59.02 72.12 58.91 72.1 58.67L72.07 57.94C72.06 57.82 72.09 57.72 72.17 57.65C72.25 57.58 72.35 57.54 72.48 57.54H72.93C74.11 57.54 75.28 57.54 76.43 57.52C77.58 57.5 78.75 57.48 79.93 57.46L84.28 57.39L84.71 57.37C84.85 57.36 84.96 57.39 85.04 57.47C85.12 57.55 85.16 57.65 85.16 57.78L85.18 58.47C85.18 58.71 85.05 58.83 84.8 58.83H82.84L80.78 58.86H80.32L80.08 58.88C79.93 58.88 79.84 58.96 79.82 59.11C79.77 59.96 79.64 60.73 79.41 61.43C79.18 62.12 78.86 62.76 78.45 63.32C78.04 63.89 77.53 64.4 76.93 64.85C76.33 65.3 75.63 65.7 74.84 66.06C74.69 66.14 74.56 66.1 74.46 65.94L74.43 65.98ZM74.45 54.71L74.4 53.95C74.39 53.84 74.42 53.75 74.49 53.68C74.56 53.61 74.65 53.58 74.77 53.58L75.15 53.56L78.57 53.51L82.37 53.41C82.47 53.41 82.56 53.44 82.63 53.51C82.7 53.58 82.73 53.66 82.73 53.78L82.75 54.52C82.76 54.64 82.73 54.73 82.66 54.79C82.59 54.85 82.5 54.88 82.38 54.88H81.98L76.75 54.98L74.86 55.05C74.73 55.06 74.64 55.03 74.57 54.97C74.5 54.9 74.46 54.82 74.45 54.71Z" fill="black"/>
<path d="M91.2 65.24L91.08 65.03L90.7 64.48C90.7 64.48 90.63 64.41 90.61 64.37C90.58 64.33 90.56 64.3 90.53 64.26C90.4 64.14 90.43 64.05 90.6 64C91.53 63.68 92.41 63.3 93.23 62.85C94.06 62.4 94.81 61.89 95.5 61.3C96.19 60.72 96.79 60.05 97.32 59.31C97.85 58.57 98.28 57.74 98.63 56.84C98.72 56.62 98.71 56.44 98.6 56.31C98.49 56.18 98.32 56.11 98.08 56.11L97.1 56.14C96.76 56.15 96.41 56.16 96.05 56.16C95.69 56.16 95.33 56.17 94.97 56.18C94.6 56.19 94.24 56.2 93.88 56.21C93.52 56.22 93.17 56.23 92.82 56.24L91 56.29L90.4 56.32C90.23 56.33 90.09 56.29 89.98 56.19C89.87 56.09 89.81 55.96 89.8 55.79L89.75 55.23C89.74 55.04 89.79 54.9 89.89 54.8C89.99 54.7 90.14 54.66 90.34 54.67H90.96L92.77 54.69L94.83 54.67C95.46 54.67 96.09 54.67 96.73 54.65C97.37 54.64 98 54.61 98.63 54.57L99.63 54.52C99.72 54.51 99.83 54.53 99.96 54.59L100.49 54.87C100.61 54.93 100.69 55.01 100.74 55.13C100.79 55.25 100.8 55.36 100.77 55.49C100.48 56.67 100.06 57.77 99.51 58.79C98.96 59.81 98.29 60.74 97.51 61.57C96.73 62.4 95.84 63.14 94.84 63.78C93.84 64.42 92.75 64.95 91.57 65.37C91.4 65.43 91.28 65.38 91.21 65.24H91.2Z" fill="black"/>
<path d="M112.5 61.07C112.5 61.07 112.43 61 112.39 60.97C112.35 60.94 112.31 60.9 112.26 60.85C112.18 60.78 112.09 60.72 111.98 60.67C111.82 60.55 111.81 60.43 111.96 60.31C112.29 60.08 112.6 59.82 112.88 59.53C113.16 59.24 113.43 58.95 113.7 58.65C113.86 58.46 113.91 58.32 113.85 58.21C113.79 58.11 113.64 58.05 113.39 58.05L112.56 58.08C111.93 58.09 111.26 58.11 110.55 58.13C110.19 58.14 109.85 58.15 109.52 58.16C109.19 58.17 108.86 58.18 108.54 58.19L106.29 58.27C105.95 58.29 105.76 58.13 105.74 57.79L105.72 57.56C105.72 57.2 105.91 57.01 106.29 57.01H106.87L110.59 56.98C111.27 56.96 111.92 56.94 112.55 56.93L114.2 56.86C114.51 56.85 114.77 56.83 114.99 56.81C115.16 56.79 115.32 56.83 115.45 56.93L115.66 57.1C115.77 57.19 115.85 57.3 115.87 57.42C115.89 57.54 115.87 57.67 115.79 57.79C115.42 58.35 114.99 58.93 114.5 59.53C114.01 60.13 113.49 60.64 112.95 61.07C112.8 61.19 112.65 61.19 112.49 61.05L112.5 61.07ZM107.42 66.23C107.42 66.23 107.35 66.16 107.32 66.12C107.29 66.08 107.25 66.04 107.2 66L106.94 65.75C106.76 65.62 106.76 65.49 106.96 65.37C107.49 65.04 107.93 64.66 108.3 64.25C108.67 63.83 108.97 63.38 109.2 62.88C109.44 62.39 109.61 61.87 109.73 61.32C109.84 60.77 109.91 60.21 109.92 59.62C109.92 59.44 109.97 59.3 110.08 59.2C110.19 59.1 110.33 59.04 110.52 59.04H110.67C110.84 59.04 110.98 59.09 111.09 59.2C111.2 59.3 111.25 59.44 111.24 59.61C111.11 62.63 109.99 64.86 107.89 66.29C107.83 66.33 107.76 66.36 107.68 66.36C107.58 66.36 107.49 66.32 107.42 66.23Z" fill="black"/>
<path d="M120.67 62.54V61.61C120.67 61.51 120.71 61.43 120.77 61.36C120.84 61.29 120.93 61.27 121.03 61.28H121.41L124.4 61.31H128.61L130.16 61.29H131.67L132.91 61.27H133.24C133.33 61.26 133.41 61.28 133.47 61.34C133.53 61.4 133.56 61.48 133.56 61.56V62.55C133.56 62.77 133.46 62.87 133.25 62.85L132.92 62.83H131.72L130.21 62.81H124.52L122.8 62.83H121.39L121.03 62.85C120.79 62.87 120.67 62.76 120.67 62.52V62.54ZM122.44 56.9V55.92C122.44 55.8 122.47 55.71 122.54 55.64C122.61 55.57 122.71 55.55 122.83 55.56H123.21L126.19 55.59H128.7L131.23 55.56H131.52C131.73 55.54 131.83 55.63 131.83 55.84V56.87C131.83 57.08 131.73 57.17 131.52 57.15L131.21 57.13L130.07 57.11H125.32L124.05 57.13H123L122.71 57.15C122.63 57.16 122.56 57.15 122.51 57.09C122.46 57.03 122.43 56.98 122.43 56.9H122.44Z" fill="black"/>
<path d="M137.42 60.01V58.9C137.41 58.83 137.42 58.78 137.47 58.73C137.52 58.68 137.57 58.66 137.64 58.66C137.78 58.67 137.93 58.68 138.1 58.68H138.68L143.12 58.71C143.54 58.72 143.97 58.73 144.39 58.73H146.92C147.32 58.73 147.71 58.73 148.09 58.71H149.16C149.49 58.71 149.8 58.71 150.09 58.69L151.29 58.66C151.29 58.66 151.36 58.68 151.36 58.73V59.95C151.36 60.13 151.27 60.22 151.08 60.22L149.77 60.19C149.41 60.18 149.04 60.17 148.64 60.17C148.24 60.17 147.82 60.17 147.38 60.15H141.7C141.23 60.16 140.79 60.17 140.37 60.17C139.95 60.17 139.56 60.17 139.19 60.19C138.88 60.2 138.6 60.21 138.34 60.21C138.08 60.21 137.85 60.21 137.64 60.23C137.57 60.24 137.51 60.23 137.47 60.18C137.43 60.13 137.4 60.08 137.4 60.01H137.42Z" fill="black"/>
<path d="M170.21 65.8C170.21 66.01 170.13 66.19 169.98 66.34C169.82 66.49 169.64 66.56 169.42 66.56C169.19 66.56 169.01 66.49 168.89 66.35C167.98 65.36 167.24 64.27 166.65 63.09C166.48 62.75 166.33 62.58 166.22 62.58C166.11 62.58 165.96 62.76 165.79 63.13C165.3 64.2 164.57 65.3 163.61 66.44C163.46 66.62 163.27 66.7 163.03 66.7C162.79 66.7 162.57 66.6 162.41 66.39C162.36 66.4 162.31 66.41 162.25 66.41H157.18C156.34 66.41 155.92 66.01 155.92 65.22V61.7C155.92 61.46 155.86 61.34 155.73 61.34C155.68 61.34 155.63 61.36 155.56 61.41C155.4 61.51 155.26 61.56 155.15 61.56C154.93 61.56 154.75 61.49 154.6 61.34C154.45 61.2 154.38 61.03 154.38 60.83C154.38 60.6 154.48 60.41 154.67 60.25C155.59 59.54 156.37 58.76 157.03 57.9C157.12 57.78 157.17 57.66 157.17 57.55C157.17 57.31 156.99 57.19 156.64 57.19H155.28C155.1 57.19 154.94 57.13 154.8 57C154.66 56.87 154.59 56.72 154.59 56.53C154.59 56.35 154.66 56.2 154.8 56.07C154.94 55.94 155.1 55.88 155.28 55.88H157.55C158.03 55.88 158.36 55.67 158.55 55.23C158.59 55.14 158.62 55.05 158.62 54.97C158.62 54.71 158.44 54.57 158.07 54.57H157.69C157.25 54.57 156.9 54.75 156.64 55.12C156.4 55.44 156.15 55.6 155.88 55.6C155.67 55.6 155.5 55.53 155.35 55.39C155.2 55.25 155.13 55.08 155.13 54.89C155.13 54.71 155.18 54.56 155.29 54.44C155.85 53.79 156.29 53.12 156.61 52.42C156.74 52.16 156.95 52.02 157.26 52.02C157.47 52.02 157.64 52.09 157.78 52.23C157.92 52.37 157.99 52.54 157.99 52.73C158.04 53.11 158.17 53.29 158.4 53.29H162.34C162.52 53.29 162.68 53.35 162.81 53.48C162.94 53.61 163.01 53.75 163.01 53.92C163.01 54.1 162.94 54.25 162.81 54.38C162.68 54.51 162.52 54.57 162.34 54.57H161.1C160.62 54.57 160.3 54.78 160.14 55.2C160.11 55.3 160.09 55.39 160.09 55.48C160.09 55.74 160.26 55.88 160.61 55.88H162.59C162.9 55.88 163.11 56.02 163.23 56.31C163.69 55.31 164.07 54.13 164.38 52.77C164.47 52.38 164.72 52.19 165.14 52.19C165.35 52.19 165.52 52.26 165.67 52.4C165.82 52.54 165.89 52.69 165.89 52.86C165.89 52.95 165.83 53.22 165.7 53.69C165.68 53.78 165.67 53.86 165.67 53.94C165.67 54.25 165.84 54.4 166.19 54.4H168.74C169.6 54.4 170.03 54.76 170.03 55.49C170.03 55.59 170.02 55.7 170 55.82C169.77 56.98 169.51 58.04 169.23 59C169.12 59.36 168.87 59.55 168.51 59.55C168.3 59.55 168.13 59.48 167.98 59.33C167.83 59.18 167.76 59.01 167.76 58.83C167.76 58.79 167.77 58.73 167.79 58.65C167.98 58 168.16 57.29 168.32 56.52C168.34 56.43 168.35 56.35 168.35 56.29C168.35 55.98 168.16 55.83 167.78 55.83H165.8C165.28 55.83 164.92 56.07 164.72 56.54L164.05 58.1C163.92 58.4 163.69 58.55 163.34 58.55C163.12 58.55 162.94 58.48 162.79 58.33C162.64 58.18 162.57 58.01 162.57 57.81C162.57 57.69 162.65 57.48 162.81 57.2C162.74 57.22 162.67 57.23 162.6 57.23H159.88C159.42 57.23 159.08 57.42 158.85 57.79C158.55 58.28 158.4 58.54 158.4 58.58C158.4 58.75 158.52 58.83 158.76 58.83H158.92C159.39 58.83 159.71 58.67 159.87 58.35L160.11 57.87C160.25 57.61 160.46 57.47 160.75 57.47C160.95 57.47 161.11 57.54 161.24 57.68C161.37 57.82 161.44 57.98 161.44 58.15C161.44 58.19 161.44 58.23 161.42 58.27C161.4 58.35 161.39 58.42 161.39 58.49C161.39 58.72 161.53 58.84 161.82 58.84H162.73C162.9 58.84 163.05 58.9 163.17 59.01C163.29 59.13 163.35 59.27 163.35 59.43C163.35 59.59 163.29 59.74 163.17 59.85C163.05 59.97 162.9 60.02 162.73 60.02H161.08C160.74 60.02 160.56 60.19 160.56 60.52C160.56 60.85 160.73 61.02 161.08 61.02H162.27C162.64 61.02 162.82 61.2 162.82 61.55C162.82 61.9 162.64 62.08 162.27 62.08H161.08C160.74 62.08 160.56 62.24 160.56 62.56C160.56 62.88 160.73 63.06 161.08 63.06H162.27C162.64 63.06 162.82 63.24 162.82 63.59C162.82 63.94 162.64 64.12 162.27 64.12H161.08C160.74 64.12 160.56 64.29 160.56 64.62V64.74C160.56 65.07 160.73 65.24 161.08 65.24H162.3C162.45 65.24 162.58 65.28 162.7 65.36C164.49 63.46 165.38 61.21 165.38 58.61V57.7C165.38 57.5 165.45 57.33 165.6 57.2C165.75 57.06 165.93 56.99 166.13 56.99C166.32 56.99 166.49 57.06 166.64 57.2C166.78 57.34 166.86 57.51 166.86 57.7V58.46C166.86 59.7 167.14 60.91 167.7 62.12C168.26 63.32 169.04 64.4 170.04 65.36C170.19 65.5 170.26 65.68 170.26 65.89L170.21 65.8ZM159.07 60.46C159.07 60.13 158.9 59.96 158.55 59.96H157.88C157.54 59.96 157.36 60.13 157.36 60.46C157.36 60.79 157.53 60.96 157.88 60.96H158.55C158.89 60.96 159.07 60.79 159.07 60.46ZM159.07 62.49C159.07 62.17 158.9 62.01 158.55 62.01H157.88C157.54 62.01 157.36 62.17 157.36 62.49C157.36 62.81 157.53 62.99 157.88 62.99H158.55C158.89 62.99 159.07 62.82 159.07 62.49ZM159.07 64.66V64.54C159.07 64.21 158.9 64.04 158.55 64.04H157.88C157.54 64.04 157.36 64.21 157.36 64.54V64.72C157.36 65.01 157.51 65.15 157.81 65.15H158.55C158.89 65.15 159.07 64.98 159.07 64.65V64.66Z" fill="black"/>
<path d="M187 65.8C187 66.03 186.92 66.23 186.75 66.39C186.58 66.55 186.38 66.63 186.14 66.63C185.98 66.63 185.82 66.58 185.66 66.48C183.19 64.9 181.42 62.97 180.33 60.69C180.08 60.17 179.85 59.91 179.64 59.91C179.42 59.91 179.19 60.16 178.93 60.67C177.89 62.77 176.09 64.71 173.55 66.49C173.39 66.6 173.22 66.66 173.05 66.66C172.82 66.66 172.62 66.58 172.45 66.41C172.28 66.24 172.19 66.05 172.19 65.83C172.19 65.54 172.31 65.32 172.55 65.15C176.61 62.4 178.64 59.13 178.64 55.32V53.14C178.64 52.9 178.73 52.69 178.9 52.53C179.07 52.37 179.28 52.28 179.54 52.28C179.8 52.28 180.01 52.37 180.18 52.54C180.36 52.71 180.45 52.91 180.45 53.14V55.01C180.45 56.93 181.05 58.84 182.26 60.75C183.42 62.58 184.87 64.03 186.61 65.08C186.87 65.23 187.01 65.47 187.01 65.79L187 65.8Z" fill="black"/>
</g>
<defs>
<clipPath id="clip0_3_127">
<rect width="205.69" height="28.72" fill="white"/>
</clipPath>
<clipPath id="clip1_3_127">
<rect width="167" height="14.69" fill="white" transform="translate(20 52)"/>
</clipPath>
</defs>
</svg>
